{"glyphs":{"0":{"ha":572,"x_min":63,"x_max":508,"o":"m 286 10 l 286 10 q 214 10 164 -29 q 114 -69 89 -151 q 63 -233 63 -360 l 63 -360 q 63 -466 84 -548 q 105 -630 154 -677 q 203 -725 287 -725 l 287 -725 q 374 -725 422 -679 q 470 -633 489 -551 q 508 -469 508 -360 l 508 -360 q 508 -267 495 -197 q 481 -128 454 -82 q 426 -36 385 -13 q 343 10 286 10 z m 286 -16 l 286 -16 q 337 -16 374 -37 q 411 -58 435 -100 q 458 -143 470 -208 q 481 -273 481 -360 l 481 -360 q 481 -437 472 -499 q 463 -561 442 -606 q 420 -651 383 -675 q 345 -699 287 -699 l 287 -699 q 231 -699 193 -674 q 155 -649 133 -603 q 110 -558 100 -496 q 90 -434 90 -360 l 90 -360 q 90 -272 103 -207 q 115 -142 140 -99 q 164 -57 201 -36 q 237 -16 286 -16 z"},"1":{"ha":572,"x_min":106,"x_max":324,"o":"m 324 -714 l 324 0 l 298 0 l 298 -563 q 298 -606 298 -635 q 298 -665 299 -685 l 299 -685 q 287 -675 276 -665 q 264 -656 245 -642 l 245 -642 l 122 -551 l 106 -572 l 301 -714 l 324 -714 z"},"2":{"ha":572,"x_min":59,"x_max":491,"o":"m 491 0 l 59 0 l 59 -23 l 283 -260 q 332 -311 365 -353 q 398 -396 415 -439 q 432 -483 432 -538 l 432 -538 q 432 -588 413 -624 q 393 -660 356 -679 q 319 -698 268 -698 l 268 -698 q 225 -698 180 -682 q 135 -666 95 -634 l 95 -634 l 80 -655 q 111 -680 143 -695 q 175 -710 207 -717 q 239 -724 270 -724 l 270 -724 q 328 -724 370 -701 q 412 -679 436 -637 q 459 -596 459 -539 l 459 -539 q 459 -479 441 -432 q 422 -385 388 -341 q 354 -297 305 -246 l 305 -246 l 98 -27 l 98 -26 l 491 -26 l 491 0 z"},"3":{"ha":572,"x_min":46,"x_max":491,"o":"m 246 10 l 246 10 q 185 10 135 -2 q 84 -14 46 -32 l 46 -32 l 46 -61 q 84 -42 138 -29 q 191 -16 246 -16 l 246 -16 q 354 -16 409 -64 q 464 -112 464 -193 l 464 -193 q 464 -254 435 -290 q 406 -326 356 -342 q 305 -359 238 -359 l 238 -359 l 155 -359 l 155 -385 l 238 -385 q 291 -385 338 -402 q 384 -420 413 -456 q 442 -493 442 -550 l 442 -550 q 442 -626 392 -662 q 342 -698 262 -698 l 262 -698 q 207 -698 158 -679 q 109 -660 68 -628 l 68 -628 l 54 -650 q 96 -682 148 -703 q 199 -724 263 -724 l 263 -724 q 325 -724 372 -704 q 418 -685 444 -646 q 469 -608 469 -551 l 469 -551 q 469 -504 449 -467 q 429 -430 395 -406 q 361 -383 317 -375 l 317 -375 l 317 -373 q 400 -362 446 -318 q 491 -274 491 -194 l 491 -194 q 491 -133 463 -87 q 435 -41 381 -15 q 326 10 246 10 z"},"4":{"ha":572,"x_min":23,"x_max":550,"o":"m 420 0 l 394 0 l 394 -193 l 23 -193 l 23 -217 l 392 -718 l 420 -718 l 420 -219 l 550 -219 l 550 -193 l 420 -193 l 420 0 z m 330 -592 l 56 -219 l 394 -219 l 394 -524 q 394 -567 394 -593 q 394 -619 395 -639 q 395 -660 395 -685 l 395 -685 l 393 -685 q 378 -660 364 -640 q 350 -620 330 -592 l 330 -592 z"},"5":{"ha":572,"x_min":72,"x_max":503,"o":"m 250 10 l 250 10 q 192 10 148 -2 q 104 -14 72 -32 l 72 -32 l 72 -63 q 106 -43 151 -29 q 196 -16 251 -16 l 251 -16 q 319 -16 370 -40 q 420 -64 448 -109 q 476 -154 476 -217 l 476 -217 q 476 -303 424 -352 q 372 -401 271 -401 l 271 -401 q 227 -401 189 -395 q 150 -389 115 -378 l 115 -378 l 96 -393 l 126 -714 l 460 -714 l 460 -688 l 150 -688 l 124 -407 q 152 -415 189 -421 q 225 -427 272 -427 l 272 -427 q 345 -427 397 -403 q 448 -379 476 -332 q 503 -286 503 -217 l 503 -217 q 503 -147 472 -96 q 441 -45 384 -17 q 327 10 250 10 z"},"6":{"ha":572,"x_min":71,"x_max":516,"o":"m 302 10 l 302 10 q 238 10 194 -16 q 149 -43 122 -88 q 95 -133 83 -189 q 71 -245 71 -303 l 71 -303 q 71 -395 86 -464 q 100 -534 127 -583 q 154 -633 191 -664 q 228 -696 274 -711 q 319 -726 370 -726 l 370 -726 q 400 -726 424 -722 q 448 -719 468 -713 l 468 -713 l 468 -685 q 450 -692 425 -696 q 400 -700 370 -700 l 370 -700 q 296 -700 235 -664 q 174 -629 137 -546 q 100 -464 98 -324 l 98 -324 l 100 -324 q 113 -352 140 -378 q 167 -405 210 -422 q 252 -440 309 -440 l 309 -440 q 375 -440 422 -413 q 468 -387 492 -338 q 516 -290 516 -225 l 516 -225 q 516 -156 491 -103 q 466 -50 418 -20 q 370 10 302 10 z m 302 -16 l 302 -16 q 393 -16 441 -71 q 489 -127 489 -224 l 489 -224 q 489 -312 443 -363 q 396 -414 307 -414 l 307 -414 q 243 -414 197 -389 q 151 -364 127 -328 q 102 -292 102 -258 l 102 -258 q 102 -228 111 -187 q 119 -147 141 -107 q 163 -68 202 -42 q 241 -16 302 -16 z"},"7":{"ha":572,"x_min":55,"x_max":507,"o":"m 209 0 l 180 0 l 475 -688 l 55 -688 l 55 -714 l 507 -714 l 507 -696 l 209 0 z"},"8":{"ha":572,"x_min":66,"x_max":505,"o":"m 281 10 l 281 10 q 217 10 169 -12 q 120 -35 93 -76 q 66 -118 66 -174 l 66 -174 q 66 -229 89 -267 q 112 -306 155 -333 q 197 -361 253 -381 l 253 -381 q 210 -398 173 -420 q 135 -442 112 -475 q 89 -509 89 -558 l 89 -558 q 89 -609 114 -646 q 139 -684 184 -704 q 228 -724 285 -724 l 285 -724 q 347 -724 391 -705 q 434 -686 458 -650 q 481 -614 481 -561 l 481 -561 q 481 -517 461 -484 q 441 -452 404 -427 q 367 -403 316 -382 l 316 -382 q 374 -362 417 -334 q 459 -307 482 -270 q 505 -233 505 -181 l 505 -181 q 505 -120 475 -77 q 445 -35 395 -12 q 344 10 281 10 z m 281 -16 l 281 -16 q 367 -16 423 -57 q 478 -99 478 -180 l 478 -180 q 478 -224 459 -256 q 440 -289 403 -313 q 366 -338 311 -357 l 311 -357 l 283 -367 q 227 -348 184 -323 q 141 -299 117 -264 q 93 -229 93 -175 l 93 -175 q 93 -101 145 -58 q 197 -16 281 -16 z m 288 -395 l 288 -395 q 336 -414 374 -436 q 411 -459 433 -489 q 454 -520 454 -560 l 454 -560 q 454 -631 410 -664 q 365 -698 285 -698 l 285 -698 q 212 -698 164 -662 q 116 -627 116 -559 l 116 -559 q 116 -517 138 -487 q 159 -457 198 -435 q 236 -413 288 -395 z"},"9":{"ha":572,"x_min":56,"x_max":501,"o":"m 202 10 l 202 10 q 171 10 143 7 q 114 3 94 -3 l 94 -3 l 94 -32 q 112 -25 142 -20 q 171 -16 202 -16 l 202 -16 q 258 -16 307 -35 q 355 -55 392 -99 q 429 -143 451 -215 q 473 -287 474 -392 l 474 -392 l 472 -392 q 460 -365 433 -338 q 405 -311 363 -293 q 321 -276 263 -276 l 263 -276 q 197 -276 151 -302 q 105 -329 81 -377 q 56 -426 56 -491 l 56 -491 q 56 -561 81 -613 q 106 -666 154 -696 q 202 -726 270 -726 l 270 -726 q 335 -726 379 -699 q 423 -673 450 -628 q 477 -583 489 -527 q 501 -472 501 -413 l 501 -413 q 501 -322 487 -252 q 472 -182 445 -132 q 418 -83 381 -51 q 344 -20 299 -5 q 253 10 202 10 z m 265 -302 l 265 -302 q 330 -302 376 -327 q 421 -352 446 -388 q 470 -424 470 -458 l 470 -458 q 470 -488 462 -528 q 453 -569 431 -608 q 409 -648 370 -674 q 331 -700 270 -700 l 270 -700 q 179 -700 131 -644 q 83 -589 83 -492 l 83 -492 q 83 -404 129 -353 q 175 -302 265 -302 z"},"\r":{"ha":309,"x_min":0,"x_max":0,"o":""}," ":{"ha":309,"x_min":0,"x_max":0,"o":""},"ഀ":{"ha":0,"x_min":-410,"x_max":-146,"o":"m -410 -728 l -410 -728 q -410 -785 -375 -824 q -340 -864 -279 -864 l -279 -864 q -217 -864 -181 -825 q -146 -786 -146 -728 l -146 -728 q -146 -670 -181 -631 q -217 -592 -278 -592 l -278 -592 q -340 -592 -375 -631 q -410 -671 -410 -728 z m -383 -729 l -383 -729 q -383 -681 -357 -649 q -331 -618 -279 -618 l -279 -618 q -226 -618 -199 -649 q -173 -681 -173 -729 l -173 -729 q -173 -776 -199 -807 q -226 -838 -279 -838 l -279 -838 q -329 -838 -356 -807 q -383 -776 -383 -729 z"},"ഁ":{"ha":0,"x_min":-424,"x_max":-131,"o":"m -278 -672 l -278 -672 q -348 -672 -386 -705 q -424 -739 -424 -808 l -424 -808 q -424 -816 -423 -829 q -422 -843 -418 -855 l -418 -855 l -393 -849 q -396 -839 -397 -827 q -398 -816 -398 -807 l -398 -807 q -398 -768 -384 -744 q -371 -720 -344 -709 q -317 -698 -278 -698 l -278 -698 q -235 -698 -208 -711 q -182 -724 -169 -748 q -157 -773 -157 -807 l -157 -807 q -157 -817 -158 -828 q -159 -839 -162 -849 l -162 -849 l -136 -855 q -133 -843 -132 -829 q -131 -815 -131 -806 l -131 -806 q -131 -739 -171 -705 q -212 -672 -278 -672 z m -278 -779 l -278 -779 q -294 -779 -299 -788 q -304 -797 -304 -810 l -304 -810 q -304 -822 -299 -831 q -294 -841 -278 -841 l -278 -841 q -261 -841 -256 -831 q -252 -822 -252 -810 l -252 -810 q -252 -797 -256 -788 q -261 -779 -278 -779 z"},"ം":{"ha":411,"x_min":38,"x_max":373,"o":"m 205 12 l 205 12 q 155 12 118 -10 q 80 -32 59 -71 q 38 -111 38 -166 l 38 -166 q 38 -220 59 -260 q 80 -300 118 -322 q 156 -344 206 -344 l 206 -344 q 256 -344 294 -322 q 331 -300 352 -260 q 373 -221 373 -167 l 373 -167 q 373 -112 353 -72 q 332 -32 294 -10 q 256 12 205 12 z m 206 -318 l 206 -318 q 143 -318 104 -279 q 65 -240 65 -166 l 65 -166 q 65 -92 104 -53 q 143 -14 205 -14 l 205 -14 q 268 -14 307 -53 q 346 -92 346 -167 l 346 -167 q 346 -241 307 -279 q 268 -318 206 -318 z"},"ഃ":{"ha":312,"x_min":38,"x_max":274,"o":"m 38 -434 l 38 -434 q 38 -486 70 -522 q 101 -558 155 -558 l 155 -558 q 210 -558 242 -522 q 274 -487 274 -434 l 274 -434 q 274 -381 242 -345 q 210 -310 155 -310 l 155 -310 q 100 -310 69 -346 q 38 -382 38 -434 z m 65 -435 l 65 -435 q 65 -392 88 -364 q 111 -336 155 -336 l 155 -336 q 201 -336 224 -364 q 247 -392 247 -435 l 247 -435 q 247 -477 224 -504 q 201 -532 155 -532 l 155 -532 q 112 -532 89 -504 q 65 -477 65 -435 z m 38 -112 l 38 -112 q 38 -164 70 -200 q 101 -236 155 -236 l 155 -236 q 210 -236 242 -200 q 274 -165 274 -112 l 274 -112 q 274 -59 242 -23 q 210 12 155 12 l 155 12 q 100 12 69 -24 q 38 -60 38 -112 z m 65 -113 l 65 -113 q 65 -70 88 -42 q 111 -14 155 -14 l 155 -14 q 201 -14 224 -42 q 247 -70 247 -113 l 247 -113 q 247 -155 224 -182 q 201 -210 155 -210 l 155 -210 q 112 -210 89 -182 q 65 -155 65 -113 z"},"ഄ":{"ha":535,"x_min":42,"x_max":493,"o":"m 58 -303 l 58 -303 l 84 -298 q 77 -272 73 -248 q 69 -224 69 -199 l 69 -199 q 69 -114 113 -65 q 157 -17 267 -17 l 267 -17 q 378 -17 422 -65 q 466 -114 466 -199 l 466 -199 q 466 -224 463 -248 q 459 -272 451 -298 l 451 -298 l 477 -303 q 484 -281 489 -253 q 493 -226 493 -197 l 493 -197 q 493 -135 471 -88 q 448 -42 398 -16 q 348 9 267 9 l 267 9 q 187 9 137 -16 q 87 -42 65 -88 q 42 -135 42 -197 l 42 -197 q 42 -226 47 -253 q 51 -281 58 -303 z m 255 -158 l 255 -390 l 281 -390 l 281 -158 l 255 -158 z"},"അ":{"ha":1394,"x_min":45,"x_max":1349,"o":"m 352 -558 l 352 -558 q 391 -558 435 -552 q 478 -547 517 -533 l 517 -533 q 520 -532 522 -529 q 524 -527 527 -526 l 527 -526 q 561 -514 588 -493 q 615 -472 631 -442 q 647 -412 647 -372 l 647 -372 q 647 -339 635 -310 q 623 -282 592 -265 q 561 -248 505 -246 l 505 -246 l 507 -255 q 584 -253 621 -218 q 658 -183 658 -123 l 658 -123 q 658 -85 642 -54 q 625 -24 592 -6 q 559 12 507 12 l 507 12 q 440 12 395 -17 q 349 -47 326 -102 q 302 -157 302 -233 l 302 -233 q 302 -297 323 -353 q 344 -409 383 -452 q 422 -495 477 -521 l 477 -521 q 480 -523 483 -525 q 485 -528 488 -529 l 488 -529 q 518 -543 552 -550 q 585 -558 622 -558 l 622 -558 q 704 -558 751 -531 q 797 -504 818 -458 q 839 -412 841 -354 l 841 -354 l 847 -278 l 847 0 l 821 0 l 821 -309 q 821 -374 810 -415 q 799 -456 772 -483 l 772 -483 q 749 -507 713 -519 q 676 -532 619 -532 l 619 -532 q 591 -532 565 -527 q 538 -522 515 -514 l 515 -514 q 472 -498 438 -470 q 403 -443 379 -405 q 354 -368 342 -324 q 329 -281 329 -233 l 329 -233 q 329 -131 373 -72 q 417 -14 507 -14 l 507 -14 q 566 -14 599 -41 q 631 -68 631 -123 l 631 -123 q 631 -170 600 -203 q 569 -237 494 -237 l 494 -237 l 465 -237 l 465 -263 l 485 -263 q 562 -263 591 -293 q 620 -323 620 -371 l 620 -371 q 620 -433 581 -466 q 542 -500 488 -515 l 488 -515 q 454 -525 418 -528 q 382 -532 350 -532 l 350 -532 q 251 -532 190 -497 q 129 -462 101 -403 q 72 -345 72 -276 l 72 -276 q 72 -214 88 -166 q 103 -118 133 -81 q 163 -44 206 -13 l 206 -13 l 191 8 q 154 -18 121 -56 q 87 -94 66 -147 q 45 -201 45 -275 l 45 -275 q 45 -335 64 -386 q 83 -438 122 -476 q 160 -515 218 -536 q 275 -558 352 -558 z m 1169 12 l 1169 12 q 1112 12 1076 -14 q 1040 -41 1023 -86 q 1005 -132 1005 -187 l 1005 -187 q 1005 -282 1054 -331 q 1103 -380 1178 -380 l 1178 -380 q 1221 -380 1253 -363 q 1284 -346 1307 -318 q 1330 -291 1345 -257 l 1345 -257 l 1333 -243 q 1321 -269 1300 -294 q 1278 -320 1248 -337 q 1218 -354 1179 -354 l 1179 -354 q 1106 -354 1069 -309 q 1032 -265 1032 -189 l 1032 -189 q 1032 -141 1046 -101 q 1059 -61 1090 -37 q 1120 -14 1171 -14 l 1171 -14 q 1219 -14 1253 -38 q 1287 -62 1305 -113 q 1323 -164 1323 -244 l 1323 -244 q 1323 -255 1323 -261 q 1322 -267 1322 -271 l 1322 -271 q 1322 -276 1323 -281 q 1323 -287 1322 -291 l 1322 -291 q 1314 -353 1285 -408 q 1256 -463 1200 -497 q 1144 -532 1055 -532 l 1055 -532 q 1010 -532 975 -520 q 940 -508 914 -485 l 914 -485 q 892 -466 877 -440 q 862 -415 855 -379 q 847 -343 847 -292 l 847 -292 l 847 -261 l 829 -349 q 832 -411 860 -458 q 888 -505 938 -531 q 987 -558 1054 -558 l 1054 -558 q 1126 -558 1182 -534 q 1237 -511 1274 -468 q 1311 -426 1330 -368 q 1349 -311 1349 -243 l 1349 -243 q 1349 -152 1326 -96 q 1303 -40 1263 -14 q 1222 12 1169 12 z"},"ആ":{"ha":1529,"x_min":45,"x_max":1498,"o":"m 352 -558 l 352 -558 q 391 -558 435 -552 q 478 -547 517 -533 l 517 -533 q 520 -532 522 -529 q 524 -527 527 -526 l 527 -526 q 561 -514 588 -493 q 615 -472 631 -442 q 647 -412 647 -372 l 647 -372 q 647 -339 635 -310 q 623 -282 592 -265 q 561 -248 505 -246 l 505 -246 l 507 -255 q 584 -253 621 -218 q 658 -183 658 -123 l 658 -123 q 658 -85 642 -54 q 625 -24 592 -6 q 559 12 507 12 l 507 12 q 440 12 395 -17 q 349 -47 326 -102 q 302 -157 302 -233 l 302 -233 q 302 -297 323 -353 q 344 -409 383 -452 q 422 -495 477 -521 l 477 -521 q 480 -523 483 -525 q 485 -528 488 -529 l 488 -529 q 518 -543 552 -550 q 585 -558 622 -558 l 622 -558 q 704 -558 751 -531 q 797 -504 818 -458 q 839 -412 841 -354 l 841 -354 l 847 -278 l 847 0 l 821 0 l 821 -309 q 821 -374 810 -415 q 799 -456 772 -483 l 772 -483 q 749 -507 713 -519 q 676 -532 619 -532 l 619 -532 q 591 -532 565 -527 q 538 -522 515 -514 l 515 -514 q 472 -498 438 -470 q 403 -443 379 -405 q 354 -368 342 -324 q 329 -281 329 -233 l 329 -233 q 329 -131 373 -72 q 417 -14 507 -14 l 507 -14 q 566 -14 599 -41 q 631 -68 631 -123 l 631 -123 q 631 -170 600 -203 q 569 -237 494 -237 l 494 -237 l 465 -237 l 465 -263 l 485 -263 q 562 -263 591 -293 q 620 -323 620 -371 l 620 -371 q 620 -433 581 -466 q 542 -500 488 -515 l 488 -515 q 454 -525 418 -528 q 382 -532 350 -532 l 350 -532 q 251 -532 190 -497 q 129 -462 101 -403 q 72 -345 72 -276 l 72 -276 q 72 -214 88 -166 q 103 -118 133 -81 q 163 -44 206 -13 l 206 -13 l 191 8 q 154 -18 121 -56 q 87 -94 66 -147 q 45 -201 45 -275 l 45 -275 q 45 -335 64 -386 q 83 -438 122 -476 q 160 -515 218 -536 q 275 -558 352 -558 z m 1052 -558 l 1052 -558 q 1127 -558 1181 -529 q 1235 -501 1269 -450 q 1303 -399 1317 -331 l 1317 -331 q 1322 -306 1325 -278 q 1327 -251 1327 -222 l 1327 -222 q 1327 -141 1303 -89 q 1278 -38 1238 -13 q 1197 12 1148 12 l 1148 12 q 1088 12 1053 -14 q 1018 -40 1003 -80 q 988 -121 988 -162 l 988 -162 q 988 -257 1052 -307 q 1115 -357 1223 -357 l 1223 -357 q 1241 -357 1259 -355 q 1276 -353 1292 -350 l 1292 -350 l 1306 -348 q 1375 -331 1417 -290 q 1459 -249 1479 -194 q 1498 -139 1498 -80 l 1498 -80 q 1498 -12 1479 41 q 1459 93 1423 129 q 1387 164 1337 183 q 1287 201 1225 201 l 1225 201 q 1173 201 1131 193 q 1089 184 1060 172 l 1060 172 l 1070 148 q 1099 160 1139 168 q 1179 175 1225 175 l 1225 175 q 1285 175 1331 158 q 1377 140 1408 107 q 1439 73 1455 26 q 1471 -21 1471 -80 l 1471 -80 q 1471 -143 1452 -191 q 1433 -240 1397 -273 q 1360 -306 1309 -321 l 1309 -321 l 1297 -323 q 1280 -327 1262 -329 q 1243 -331 1223 -331 l 1223 -331 q 1163 -331 1116 -314 q 1069 -297 1042 -259 q 1015 -222 1015 -160 l 1015 -160 q 1015 -127 1026 -93 q 1037 -60 1066 -37 q 1095 -14 1147 -14 l 1147 -14 q 1224 -14 1262 -71 q 1300 -128 1300 -223 l 1300 -223 q 1300 -250 1297 -277 q 1294 -305 1288 -333 l 1288 -333 l 1286 -345 q 1273 -395 1246 -437 q 1218 -480 1171 -506 q 1124 -532 1052 -532 l 1052 -532 q 1009 -532 974 -520 q 939 -508 913 -485 l 913 -485 q 891 -466 876 -440 q 861 -415 854 -379 q 847 -343 847 -292 l 847 -292 l 847 -197 l 828 -349 q 831 -411 859 -458 q 887 -505 936 -531 q 985 -558 1052 -558 z"},"ഇ":{"ha":918,"x_min":46,"x_max":873,"o":"m 303 -558 l 303 -558 q 363 -558 405 -540 q 446 -523 472 -488 q 497 -454 509 -401 l 509 -401 l 500 -395 q 514 -484 560 -521 q 606 -558 671 -558 l 671 -558 q 723 -558 761 -537 q 799 -517 824 -481 q 849 -445 861 -398 q 873 -352 873 -300 l 873 -300 q 873 -213 850 -156 q 827 -99 783 -64 l 783 -64 q 756 -42 722 -27 q 688 -13 640 -6 q 592 0 520 0 l 520 0 l 238 0 q 187 0 156 6 q 125 11 107 30 l 107 30 q 98 40 93 54 q 88 68 88 86 l 88 86 q 88 108 96 124 q 103 139 116 150 l 116 150 q 133 163 161 169 q 188 175 234 175 l 234 175 l 856 175 l 856 201 l 227 201 q 182 201 153 194 q 123 187 100 170 l 100 170 q 81 156 71 135 q 61 114 61 86 l 61 86 q 61 63 68 45 q 75 26 88 13 l 88 13 q 102 -1 121 -9 q 139 -18 167 -22 q 194 -26 235 -26 l 235 -26 l 518 -26 q 588 -26 634 -32 q 679 -39 710 -51 q 741 -64 765 -83 l 765 -83 q 807 -116 827 -169 q 846 -223 846 -299 l 846 -299 q 846 -364 828 -416 q 810 -469 772 -500 q 733 -532 671 -532 l 671 -532 q 637 -532 613 -523 q 588 -514 571 -497 l 571 -497 q 541 -468 530 -421 q 519 -374 519 -318 l 519 -318 l 519 -109 l 493 -109 l 493 -321 q 493 -386 476 -429 q 459 -473 423 -499 l 423 -499 q 397 -518 370 -525 q 343 -532 302 -532 l 302 -532 q 245 -532 203 -513 q 161 -495 133 -465 q 105 -435 90 -399 q 74 -364 71 -329 l 71 -329 q 71 -327 72 -324 q 72 -322 72 -320 l 72 -320 q 72 -317 72 -312 q 72 -308 72 -303 l 72 -303 q 72 -225 99 -176 q 125 -128 192 -128 l 192 -128 q 246 -128 274 -162 q 301 -196 301 -247 l 301 -247 q 301 -276 291 -301 q 280 -327 257 -343 q 233 -359 192 -359 l 192 -359 q 153 -359 119 -341 q 84 -323 55 -290 l 55 -290 l 49 -314 q 64 -333 85 -349 q 106 -365 134 -375 q 161 -385 192 -385 l 192 -385 q 240 -385 270 -365 q 300 -346 314 -314 q 328 -283 328 -248 l 328 -248 q 328 -210 313 -176 q 298 -143 268 -122 q 237 -102 190 -102 l 190 -102 q 141 -102 109 -126 q 77 -151 62 -196 q 46 -241 46 -304 l 46 -304 q 46 -369 75 -427 q 104 -485 162 -521 q 219 -558 303 -558 z"},"ഈ":{"ha":1619,"x_min":47,"x_max":1573,"o":"m 304 -558 l 304 -558 q 364 -558 406 -540 q 447 -523 473 -488 q 498 -454 510 -401 l 510 -401 l 501 -395 q 515 -484 561 -521 q 607 -558 672 -558 l 672 -558 q 724 -558 762 -537 q 800 -517 825 -481 q 850 -445 862 -398 q 874 -352 874 -300 l 874 -300 q 874 -213 851 -156 q 828 -99 784 -64 l 784 -64 q 757 -42 723 -27 q 689 -13 641 -6 q 593 0 521 0 l 521 0 l 239 0 q 188 0 157 6 q 126 11 108 30 l 108 30 q 99 40 94 54 q 89 68 89 86 l 89 86 q 89 108 97 124 q 104 139 117 150 l 117 150 q 134 163 162 169 q 189 175 235 175 l 235 175 l 857 175 l 857 201 l 228 201 q 183 201 154 194 q 124 187 101 170 l 101 170 q 82 156 72 135 q 62 114 62 86 l 62 86 q 62 63 69 45 q 76 26 89 13 l 89 13 q 103 -1 122 -9 q 140 -18 168 -22 q 195 -26 236 -26 l 236 -26 l 519 -26 q 589 -26 635 -32 q 680 -39 711 -51 q 742 -64 766 -83 l 766 -83 q 808 -116 828 -169 q 847 -223 847 -299 l 847 -299 q 847 -364 829 -416 q 811 -469 773 -500 q 734 -532 672 -532 l 672 -532 q 638 -532 614 -523 q 589 -514 572 -497 l 572 -497 q 542 -468 531 -421 q 520 -374 520 -318 l 520 -318 l 520 -109 l 494 -109 l 494 -321 q 494 -386 477 -429 q 460 -473 424 -499 l 424 -499 q 398 -518 371 -525 q 344 -532 303 -532 l 303 -532 q 246 -532 204 -513 q 162 -495 134 -465 q 106 -435 91 -399 q 75 -364 72 -329 l 72 -329 q 72 -327 73 -324 q 73 -322 73 -320 l 73 -320 q 73 -317 73 -312 q 73 -308 73 -303 l 73 -303 q 73 -225 100 -176 q 126 -128 193 -128 l 193 -128 q 247 -128 275 -162 q 302 -196 302 -247 l 302 -247 q 302 -276 292 -301 q 281 -327 258 -343 q 234 -359 193 -359 l 193 -359 q 154 -359 120 -341 q 85 -323 56 -290 l 56 -290 l 50 -314 q 65 -333 86 -349 q 107 -365 135 -375 q 162 -385 193 -385 l 193 -385 q 241 -385 271 -365 q 301 -346 315 -314 q 329 -283 329 -248 l 329 -248 q 329 -210 314 -176 q 299 -143 269 -122 q 238 -102 191 -102 l 191 -102 q 142 -102 110 -126 q 78 -151 63 -196 q 47 -241 47 -304 l 47 -304 q 47 -369 76 -427 q 105 -485 163 -521 q 220 -558 304 -558 z m 1399 -558 l 1399 -558 q 1456 -558 1495 -526 q 1533 -494 1553 -436 q 1573 -379 1573 -300 l 1573 -300 q 1573 -196 1547 -126 q 1520 -57 1467 -22 q 1413 12 1330 12 l 1330 12 q 1272 12 1230 1 q 1187 -11 1145 -32 l 1145 -32 l 1159 -55 q 1202 -33 1242 -23 q 1281 -14 1330 -14 l 1330 -14 q 1412 -14 1459 -48 q 1506 -83 1526 -147 q 1546 -211 1546 -300 l 1546 -300 q 1546 -416 1507 -474 q 1467 -532 1399 -532 l 1399 -532 q 1368 -532 1347 -522 q 1326 -513 1312 -496 l 1312 -496 q 1290 -470 1282 -428 q 1273 -387 1273 -339 l 1273 -339 l 1273 -254 l 1247 -254 l 1247 -338 q 1247 -399 1237 -438 q 1226 -477 1203 -500 l 1203 -500 q 1188 -515 1167 -523 q 1146 -532 1119 -532 l 1119 -532 q 1054 -532 1021 -487 q 987 -443 987 -376 l 987 -376 q 987 -345 992 -316 q 997 -288 1006 -255 l 1006 -255 l 981 -250 q 971 -280 966 -313 q 960 -346 960 -377 l 960 -377 q 960 -428 979 -469 q 997 -510 1033 -534 q 1068 -558 1119 -558 l 1119 -558 q 1175 -558 1213 -526 q 1251 -494 1264 -415 l 1264 -415 l 1255 -411 q 1263 -489 1304 -523 q 1344 -558 1399 -558 z"},"ഉ":{"ha":641,"x_min":46,"x_max":596,"o":"m 321 -558 l 321 -558 q 384 -558 435 -538 q 485 -518 521 -482 q 557 -446 577 -396 q 596 -347 596 -287 l 596 -287 q 596 -200 570 -141 q 544 -82 482 -48 l 482 -48 q 450 -31 416 -20 q 382 -9 341 -4 q 300 0 247 0 l 247 0 l 238 0 q 187 0 156 6 q 125 11 107 30 l 107 30 q 98 40 93 54 q 88 68 88 86 l 88 86 q 88 108 96 124 q 103 139 116 150 l 116 150 q 133 163 161 169 q 188 175 234 175 l 234 175 l 576 175 l 576 201 l 227 201 q 182 201 153 194 q 123 187 100 170 l 100 170 q 81 156 71 135 q 61 114 61 86 l 61 86 q 61 63 68 45 q 75 26 88 13 l 88 13 q 109 -8 142 -17 q 174 -26 235 -26 l 235 -26 l 245 -26 q 302 -26 343 -31 q 383 -36 414 -46 q 445 -57 470 -71 l 470 -71 q 526 -103 548 -157 q 569 -211 569 -282 l 569 -282 q 569 -338 553 -383 q 536 -429 505 -462 q 473 -496 427 -514 q 381 -532 322 -532 l 322 -532 q 257 -532 211 -513 q 164 -494 135 -463 q 105 -432 90 -396 q 75 -361 72 -329 l 72 -329 q 72 -327 72 -324 q 72 -322 72 -320 l 72 -320 q 72 -317 72 -312 q 72 -308 72 -303 l 72 -303 q 72 -225 99 -176 q 125 -128 192 -128 l 192 -128 q 246 -128 274 -162 q 301 -196 301 -247 l 301 -247 q 301 -276 291 -301 q 280 -327 257 -343 q 233 -359 192 -359 l 192 -359 q 153 -359 119 -341 q 84 -323 55 -290 l 55 -290 l 49 -314 q 64 -333 85 -349 q 106 -365 134 -375 q 161 -385 192 -385 l 192 -385 q 240 -385 270 -365 q 300 -346 314 -314 q 328 -283 328 -248 l 328 -248 q 328 -210 313 -176 q 298 -143 268 -122 q 237 -102 190 -102 l 190 -102 q 141 -102 109 -126 q 77 -151 62 -196 q 46 -241 46 -304 l 46 -304 q 46 -351 63 -396 q 79 -441 113 -477 q 147 -514 199 -536 q 251 -558 321 -558 z"},"ഊ":{"ha":1340,"x_min":47,"x_max":1293,"o":"m 322 -558 l 322 -558 q 385 -558 436 -538 q 486 -518 522 -482 q 558 -446 578 -396 q 597 -347 597 -287 l 597 -287 q 597 -200 571 -141 q 545 -82 483 -48 l 483 -48 q 451 -31 417 -20 q 383 -9 342 -4 q 301 0 248 0 l 248 0 l 239 0 q 188 0 157 6 q 126 11 108 30 l 108 30 q 99 40 94 54 q 89 68 89 86 l 89 86 q 89 108 97 124 q 104 139 117 150 l 117 150 q 134 163 162 169 q 189 175 235 175 l 235 175 l 577 175 l 577 201 l 228 201 q 183 201 154 194 q 124 187 101 170 l 101 170 q 82 156 72 135 q 62 114 62 86 l 62 86 q 62 63 69 45 q 76 26 89 13 l 89 13 q 110 -8 143 -17 q 175 -26 236 -26 l 236 -26 l 246 -26 q 303 -26 344 -31 q 384 -36 415 -46 q 446 -57 471 -71 l 471 -71 q 527 -103 549 -157 q 570 -211 570 -282 l 570 -282 q 570 -338 554 -383 q 537 -429 506 -462 q 474 -496 428 -514 q 382 -532 323 -532 l 323 -532 q 258 -532 212 -513 q 165 -494 136 -463 q 106 -432 91 -396 q 76 -361 73 -329 l 73 -329 q 73 -327 73 -324 q 73 -322 73 -320 l 73 -320 q 73 -317 73 -312 q 73 -308 73 -303 l 73 -303 q 73 -225 100 -176 q 126 -128 193 -128 l 193 -128 q 247 -128 275 -162 q 302 -196 302 -247 l 302 -247 q 302 -276 292 -301 q 281 -327 258 -343 q 234 -359 193 -359 l 193 -359 q 154 -359 120 -341 q 85 -323 56 -290 l 56 -290 l 50 -314 q 65 -333 86 -349 q 107 -365 135 -375 q 162 -385 193 -385 l 193 -385 q 241 -385 271 -365 q 301 -346 315 -314 q 329 -283 329 -248 l 329 -248 q 329 -210 314 -176 q 299 -143 269 -122 q 238 -102 191 -102 l 191 -102 q 142 -102 110 -126 q 78 -151 63 -196 q 47 -241 47 -304 l 47 -304 q 47 -351 64 -396 q 80 -441 114 -477 q 148 -514 200 -536 q 252 -558 322 -558 z m 1119 -558 l 1119 -558 q 1176 -558 1215 -526 q 1253 -494 1273 -436 q 1293 -379 1293 -300 l 1293 -300 q 1293 -196 1267 -126 q 1240 -57 1187 -22 q 1133 12 1050 12 l 1050 12 q 992 12 950 1 q 907 -11 865 -32 l 865 -32 l 879 -55 q 922 -33 962 -23 q 1001 -14 1050 -14 l 1050 -14 q 1132 -14 1179 -48 q 1226 -83 1246 -147 q 1266 -211 1266 -300 l 1266 -300 q 1266 -416 1227 -474 q 1187 -532 1119 -532 l 1119 -532 q 1088 -532 1067 -522 q 1046 -513 1032 -496 l 1032 -496 q 1010 -470 1002 -428 q 993 -387 993 -339 l 993 -339 l 993 -254 l 967 -254 l 967 -338 q 967 -399 957 -438 q 946 -477 923 -500 l 923 -500 q 908 -515 887 -523 q 866 -532 839 -532 l 839 -532 q 774 -532 741 -487 q 707 -443 707 -376 l 707 -376 q 707 -345 712 -316 q 717 -288 726 -255 l 726 -255 l 701 -250 q 691 -280 686 -313 q 680 -346 680 -377 l 680 -377 q 680 -428 699 -469 q 717 -510 753 -534 q 788 -558 839 -558 l 839 -558 q 895 -558 933 -526 q 971 -494 984 -415 l 984 -415 l 975 -411 q 983 -489 1024 -523 q 1064 -558 1119 -558 z"},"ഋ":{"ha":800,"x_min":41,"x_max":759,"o":"m 597 -558 l 597 -558 q 674 -558 717 -504 q 759 -451 759 -365 l 759 -365 q 759 -293 737 -245 q 715 -198 677 -169 l 677 -169 q 629 -132 566 -119 q 503 -107 428 -107 l 428 -107 l 372 -107 q 323 -107 278 -112 q 233 -118 194 -131 q 155 -145 123 -169 l 123 -169 q 86 -198 64 -245 q 41 -293 41 -365 l 41 -365 q 41 -422 61 -465 q 80 -509 117 -533 q 153 -558 203 -558 l 203 -558 q 247 -558 278 -539 q 309 -520 325 -487 q 341 -455 341 -414 l 341 -414 q 341 -375 325 -343 q 309 -312 277 -294 q 245 -276 197 -276 l 197 -276 q 163 -276 136 -285 q 108 -295 87 -310 q 65 -326 49 -343 l 49 -343 l 57 -368 q 69 -353 88 -338 q 107 -323 134 -312 q 161 -302 196 -302 l 196 -302 q 255 -302 285 -332 q 314 -362 314 -414 l 314 -414 q 314 -464 287 -498 q 260 -532 203 -532 l 203 -532 q 156 -532 126 -509 q 95 -486 81 -448 q 67 -410 67 -365 l 67 -365 q 67 -359 68 -353 q 68 -348 68 -343 l 68 -343 l 67 -335 q 72 -280 96 -239 q 120 -199 162 -173 q 203 -148 262 -135 q 320 -123 395 -123 l 395 -123 l 402 -123 q 478 -123 537 -135 q 596 -148 638 -173 q 680 -199 704 -239 q 728 -280 733 -335 l 733 -335 l 732 -343 q 732 -348 733 -354 q 733 -360 733 -365 l 733 -365 q 733 -410 719 -448 q 705 -486 676 -509 q 646 -532 597 -532 l 597 -532 q 540 -532 513 -498 q 486 -464 486 -414 l 486 -414 q 486 -362 516 -332 q 545 -302 604 -302 l 604 -302 q 639 -302 666 -312 q 693 -323 712 -338 q 731 -353 743 -368 l 743 -368 l 751 -343 q 735 -326 714 -310 q 692 -295 665 -285 q 637 -276 603 -276 l 603 -276 q 556 -276 524 -294 q 491 -312 475 -343 q 459 -375 459 -414 l 459 -414 q 459 -455 475 -487 q 491 -520 522 -539 q 553 -558 597 -558 z m 398 203 l 398 203 q 280 203 208 185 q 136 167 104 131 q 72 95 72 42 l 72 42 q 72 -5 94 -35 q 115 -66 154 -83 q 193 -100 247 -107 q 300 -114 363 -114 l 363 -114 l 437 -114 q 500 -114 554 -107 q 607 -100 646 -83 q 685 -66 707 -35 q 728 -5 728 42 l 728 42 q 728 95 696 131 q 663 167 591 185 q 519 203 398 203 z m 399 177 l 399 177 q 515 177 581 162 q 647 146 674 116 q 701 85 701 40 l 701 40 q 701 5 684 -21 q 667 -47 631 -64 q 595 -81 539 -89 q 482 -98 402 -98 l 402 -98 l 395 -98 q 290 -98 225 -83 q 159 -68 129 -37 q 99 -7 99 40 l 99 40 q 99 85 126 116 q 153 146 219 162 q 284 177 399 177 z"},"ഌ":{"ha":1089,"x_min":48,"x_max":1044,"o":"m 330 -558 l 330 -558 q 418 -558 469 -513 q 520 -469 533 -389 l 533 -389 l 534 -368 l 542 -279 l 542 0 l 516 0 l 516 -312 q 516 -389 497 -431 q 477 -473 445 -498 l 445 -498 q 421 -516 395 -524 q 368 -532 329 -532 l 329 -532 q 250 -532 193 -492 q 135 -453 105 -385 q 74 -318 74 -232 l 74 -232 l 74 -226 q 74 -153 92 -106 q 109 -59 142 -36 q 174 -14 218 -14 l 218 -14 q 249 -14 275 -27 q 300 -40 316 -69 q 331 -99 331 -149 l 331 -149 q 331 -202 302 -239 q 272 -276 210 -276 l 210 -276 q 163 -276 122 -252 q 81 -229 58 -203 l 58 -203 l 53 -229 q 88 -267 130 -284 q 171 -302 211 -302 l 211 -302 q 251 -302 284 -285 q 317 -268 338 -234 q 358 -200 358 -149 l 358 -149 q 358 -94 339 -58 q 320 -23 289 -5 q 257 12 218 12 l 218 12 q 171 12 133 -11 q 94 -35 71 -87 q 48 -139 48 -225 l 48 -225 q 48 -324 83 -399 q 117 -474 181 -516 q 244 -558 330 -558 z m 864 12 l 864 12 q 807 12 771 -14 q 735 -41 718 -86 q 700 -132 700 -187 l 700 -187 q 700 -282 749 -331 q 798 -380 873 -380 l 873 -380 q 916 -380 948 -363 q 979 -346 1002 -318 q 1025 -291 1040 -257 l 1040 -257 l 1028 -243 q 1016 -269 995 -294 q 973 -320 943 -337 q 913 -354 874 -354 l 874 -354 q 801 -354 764 -309 q 727 -265 727 -189 l 727 -189 q 727 -141 741 -101 q 754 -61 785 -37 q 815 -14 866 -14 l 866 -14 q 914 -14 948 -38 q 982 -62 1000 -113 q 1018 -164 1018 -244 l 1018 -244 q 1018 -255 1018 -261 q 1017 -267 1017 -271 l 1017 -271 q 1017 -276 1018 -281 q 1018 -287 1017 -291 l 1017 -291 q 1009 -353 980 -408 q 951 -463 895 -497 q 839 -532 750 -532 l 750 -532 q 705 -532 670 -520 q 635 -508 609 -485 l 609 -485 q 587 -466 572 -440 q 557 -415 550 -379 q 542 -343 542 -292 l 542 -292 l 542 -261 l 523 -349 q 526 -411 555 -458 q 583 -505 633 -531 q 682 -558 749 -558 l 749 -558 q 821 -558 877 -534 q 932 -511 969 -468 q 1006 -426 1025 -368 q 1044 -311 1044 -243 l 1044 -243 q 1044 -152 1021 -96 q 998 -40 958 -14 q 917 12 864 12 z"},"എ":{"ha":1157,"x_min":38,"x_max":1108,"o":"m 201 -327 l 201 -327 q 250 -327 287 -305 q 324 -284 345 -246 q 365 -208 365 -158 l 365 -158 q 365 -111 348 -74 q 330 -38 298 -10 l 298 -10 l 304 -26 l 804 -26 l 804 0 l 291 0 l 279 -21 q 311 -53 325 -85 q 338 -118 338 -157 l 338 -157 q 338 -223 301 -262 q 263 -301 201 -301 l 201 -301 q 158 -301 128 -281 q 97 -261 81 -229 q 65 -197 65 -159 l 65 -159 q 65 -109 84 -75 q 102 -42 139 -13 l 139 -13 l 123 8 q 83 -27 61 -63 q 38 -100 38 -159 l 38 -159 q 38 -205 59 -243 q 79 -281 116 -304 q 153 -327 201 -327 z m 827 -558 l 827 -558 q 902 -558 955 -528 q 1008 -499 1042 -446 q 1076 -394 1092 -325 q 1108 -256 1108 -178 l 1108 -178 q 1108 -99 1091 -25 q 1073 48 1038 112 q 1003 176 951 228 l 951 228 l 933 209 q 982 159 1015 98 q 1047 36 1064 -33 q 1081 -103 1081 -176 l 1081 -176 q 1081 -250 1067 -314 q 1053 -379 1023 -428 q 992 -477 943 -504 q 894 -532 825 -532 l 825 -532 q 743 -532 684 -484 q 625 -437 594 -348 q 562 -260 562 -135 l 562 -135 q 562 -103 564 -74 q 565 -45 567 -19 l 567 -19 q 567 -16 568 -13 q 568 -10 568 -7 l 568 -7 q 577 66 597 113 q 616 159 646 181 q 675 202 714 202 l 714 202 q 743 202 761 190 l 761 190 q 782 176 790 147 q 798 118 798 75 l 798 75 l 798 -415 l 824 -415 l 824 76 q 824 128 813 161 q 802 193 775 211 l 775 211 q 763 219 748 224 q 732 228 714 228 l 714 228 q 662 228 622 195 q 581 161 558 81 q 535 1 535 -137 l 535 -137 q 535 -236 555 -314 q 575 -392 614 -446 q 652 -501 706 -529 q 760 -558 827 -558 z"},"ഏ":{"ha":1154,"x_min":38,"x_max":1121,"o":"m 201 -327 l 201 -327 q 250 -327 287 -305 q 324 -284 345 -246 q 365 -208 365 -158 l 365 -158 q 365 -111 348 -74 q 330 -38 298 -10 l 298 -10 l 304 -26 l 804 -26 l 804 0 l 291 0 l 279 -21 q 311 -53 325 -85 q 338 -118 338 -157 l 338 -157 q 338 -223 301 -262 q 263 -301 201 -301 l 201 -301 q 158 -301 128 -281 q 97 -261 81 -229 q 65 -197 65 -159 l 65 -159 q 65 -109 84 -75 q 102 -42 139 -13 l 139 -13 l 123 8 q 83 -27 61 -63 q 38 -100 38 -159 l 38 -159 q 38 -205 59 -243 q 79 -281 116 -304 q 153 -327 201 -327 z m 872 -558 l 872 -558 q 932 -558 977 -541 q 1022 -524 1052 -493 q 1082 -463 1097 -423 q 1111 -383 1111 -336 l 1111 -336 q 1111 -283 1093 -241 q 1074 -199 1034 -171 q 994 -144 929 -132 l 929 -132 l 930 -140 q 1016 -137 1069 -89 q 1121 -41 1121 47 l 1121 47 q 1121 106 1101 147 q 1080 187 1043 208 q 1005 228 954 228 l 954 228 q 932 228 913 226 q 894 224 877 220 l 877 220 l 883 195 q 896 199 915 201 q 934 202 953 202 l 953 202 q 995 202 1027 186 q 1059 170 1077 136 q 1094 102 1094 48 l 1094 48 q 1094 -26 1049 -72 q 1003 -119 917 -122 l 917 -122 l 917 -148 q 970 -160 1008 -183 q 1045 -207 1065 -244 q 1084 -282 1084 -336 l 1084 -336 q 1084 -388 1063 -432 q 1042 -477 996 -504 q 949 -532 872 -532 l 872 -532 q 768 -532 699 -481 q 630 -430 596 -340 q 562 -251 562 -135 l 562 -135 q 562 -103 564 -74 q 565 -45 567 -19 l 567 -19 q 567 -16 568 -13 q 568 -10 568 -7 l 568 -7 q 577 66 597 113 q 616 159 646 181 q 675 202 714 202 l 714 202 q 743 202 761 190 l 761 190 q 783 176 791 147 q 798 118 798 75 l 798 75 l 798 -415 l 824 -415 l 824 76 q 824 128 813 161 q 802 193 775 211 l 775 211 q 763 219 748 224 q 732 228 714 228 l 714 228 q 662 228 622 195 q 581 161 558 81 q 535 1 535 -137 l 535 -137 q 535 -227 556 -303 q 577 -380 620 -437 q 662 -495 725 -526 q 788 -558 872 -558 z"},"ഐ":{"ha":1816,"x_min":45,"x_max":1767,"o":"m 216 12 l 216 12 q 169 12 130 -11 q 91 -35 68 -87 q 45 -139 45 -225 l 45 -225 q 45 -304 70 -365 q 94 -427 137 -470 q 179 -513 233 -535 q 286 -558 343 -558 l 343 -558 q 408 -558 459 -537 q 509 -516 544 -478 q 578 -441 596 -389 q 613 -338 613 -276 l 613 -276 q 613 -202 593 -149 q 572 -97 538 -59 q 504 -21 465 8 l 465 8 l 450 -13 q 487 -40 518 -75 q 549 -111 568 -160 q 586 -209 586 -277 l 586 -277 q 586 -347 561 -405 q 535 -463 482 -497 q 428 -532 343 -532 l 343 -532 q 270 -532 208 -494 q 146 -456 109 -387 q 71 -319 71 -226 l 71 -226 q 71 -153 89 -106 q 106 -59 139 -36 q 171 -14 215 -14 l 215 -14 q 246 -14 272 -27 q 297 -40 313 -69 q 328 -99 328 -149 l 328 -149 q 328 -202 299 -239 q 269 -276 207 -276 l 207 -276 q 160 -276 119 -252 q 78 -229 55 -203 l 55 -203 l 50 -229 q 85 -267 127 -284 q 168 -302 208 -302 l 208 -302 q 248 -302 281 -285 q 314 -268 335 -234 q 355 -200 355 -149 l 355 -149 q 355 -94 336 -58 q 317 -23 286 -5 q 254 12 216 12 z m 860 -327 l 860 -327 q 909 -327 946 -305 q 983 -284 1004 -246 q 1024 -208 1024 -158 l 1024 -158 q 1024 -111 1007 -74 q 989 -38 957 -10 l 957 -10 l 963 -26 l 1463 -26 l 1463 0 l 950 0 l 938 -21 q 970 -53 984 -85 q 997 -118 997 -157 l 997 -157 q 997 -223 960 -262 q 922 -301 860 -301 l 860 -301 q 817 -301 787 -281 q 756 -261 740 -229 q 724 -197 724 -159 l 724 -159 q 724 -109 743 -75 q 761 -42 798 -13 l 798 -13 l 782 8 q 742 -27 720 -63 q 697 -100 697 -159 l 697 -159 q 697 -205 718 -243 q 738 -281 775 -304 q 812 -327 860 -327 z m 1486 -558 l 1486 -558 q 1561 -558 1614 -528 q 1667 -499 1701 -446 q 1735 -394 1751 -325 q 1767 -256 1767 -178 l 1767 -178 q 1767 -99 1750 -25 q 1732 48 1697 112 q 1662 176 1610 228 l 1610 228 l 1592 209 q 1641 159 1674 98 q 1706 36 1723 -33 q 1740 -103 1740 -176 l 1740 -176 q 1740 -250 1726 -314 q 1712 -379 1682 -428 q 1651 -477 1602 -504 q 1553 -532 1484 -532 l 1484 -532 q 1402 -532 1343 -484 q 1284 -437 1253 -348 q 1221 -260 1221 -135 l 1221 -135 q 1221 -103 1223 -74 q 1224 -45 1226 -19 l 1226 -19 q 1226 -16 1227 -13 q 1227 -10 1227 -7 l 1227 -7 q 1236 66 1256 113 q 1275 159 1305 181 q 1334 202 1373 202 l 1373 202 q 1402 202 1420 190 l 1420 190 q 1441 176 1449 147 q 1457 118 1457 75 l 1457 75 l 1457 -415 l 1483 -415 l 1483 76 q 1483 128 1472 161 q 1461 193 1434 211 l 1434 211 q 1422 219 1407 224 q 1391 228 1373 228 l 1373 228 q 1321 228 1281 195 q 1240 161 1217 81 q 1194 1 1194 -137 l 1194 -137 q 1194 -236 1214 -314 q 1234 -392 1273 -446 q 1311 -501 1365 -529 q 1419 -558 1486 -558 z"},"ഒ":{"ha":691,"x_min":46,"x_max":649,"o":"m 414 -558 l 414 -558 q 497 -558 546 -535 q 595 -512 617 -475 q 638 -438 638 -397 l 638 -397 q 638 -364 624 -334 q 610 -304 576 -285 q 541 -266 479 -264 l 479 -264 l 479 -274 q 564 -270 607 -231 q 649 -192 649 -131 l 649 -131 q 649 -64 612 -26 q 574 12 501 12 l 501 12 q 473 12 449 8 q 424 4 407 0 l 407 0 l 413 -26 q 434 -20 455 -17 q 476 -14 498 -14 l 498 -14 q 564 -14 593 -43 q 622 -73 622 -130 l 622 -130 q 622 -165 608 -188 q 594 -212 571 -227 l 571 -227 q 547 -243 517 -250 q 486 -257 451 -257 l 451 -257 l 435 -257 l 435 -283 l 454 -283 q 507 -283 537 -293 q 567 -304 585 -323 l 585 -323 q 598 -337 605 -356 q 611 -375 611 -397 l 611 -397 q 611 -456 565 -494 q 518 -532 416 -532 l 416 -532 q 329 -532 265 -507 q 200 -483 157 -440 q 114 -398 93 -344 q 72 -290 72 -231 l 72 -231 l 72 -224 q 72 -152 90 -105 q 107 -59 140 -36 q 172 -14 216 -14 l 216 -14 q 247 -14 273 -27 q 298 -40 314 -69 q 329 -99 329 -149 l 329 -149 q 329 -202 300 -239 q 270 -276 208 -276 l 208 -276 q 161 -276 120 -252 q 79 -229 56 -203 l 56 -203 l 51 -229 q 86 -267 128 -284 q 169 -302 209 -302 l 209 -302 q 249 -302 282 -285 q 315 -268 336 -234 q 356 -200 356 -149 l 356 -149 q 356 -94 337 -58 q 318 -23 287 -5 q 255 12 216 12 l 216 12 q 169 12 131 -11 q 92 -35 69 -87 q 46 -140 46 -226 l 46 -226 q 46 -293 70 -353 q 93 -413 139 -459 q 185 -505 254 -531 q 323 -558 414 -558 z"},"ഓ":{"ha":1141,"x_min":46,"x_max":1094,"o":"m 414 -558 l 414 -558 q 497 -558 546 -535 q 595 -512 617 -475 q 638 -438 638 -397 l 638 -397 q 638 -364 624 -334 q 610 -304 576 -285 q 541 -266 479 -264 l 479 -264 l 479 -274 q 564 -270 607 -231 q 649 -192 649 -131 l 649 -131 q 649 -64 612 -26 q 574 12 501 12 l 501 12 q 473 12 449 8 q 424 4 407 0 l 407 0 l 413 -26 q 434 -20 455 -17 q 476 -14 498 -14 l 498 -14 q 564 -14 593 -43 q 622 -73 622 -130 l 622 -130 q 622 -165 608 -188 q 594 -212 571 -227 l 571 -227 q 547 -243 517 -250 q 486 -257 451 -257 l 451 -257 l 435 -257 l 435 -283 l 454 -283 q 507 -283 537 -293 q 567 -304 585 -323 l 585 -323 q 598 -337 605 -356 q 611 -375 611 -397 l 611 -397 q 611 -456 565 -494 q 518 -532 416 -532 l 416 -532 q 329 -532 265 -507 q 200 -483 157 -440 q 114 -398 93 -344 q 72 -290 72 -231 l 72 -231 l 72 -224 q 72 -152 90 -105 q 107 -59 140 -36 q 172 -14 216 -14 l 216 -14 q 247 -14 273 -27 q 298 -40 314 -69 q 329 -99 329 -149 l 329 -149 q 329 -202 300 -239 q 270 -276 208 -276 l 208 -276 q 161 -276 120 -252 q 79 -229 56 -203 l 56 -203 l 51 -229 q 86 -267 128 -284 q 169 -302 209 -302 l 209 -302 q 249 -302 282 -285 q 315 -268 336 -234 q 356 -200 356 -149 l 356 -149 q 356 -94 337 -58 q 318 -23 287 -5 q 255 12 216 12 l 216 12 q 169 12 131 -11 q 92 -35 69 -87 q 46 -140 46 -226 l 46 -226 q 46 -293 70 -353 q 93 -413 139 -459 q 185 -505 254 -531 q 323 -558 414 -558 z m 1094 -275 l 1094 -275 q 1094 -212 1083 -159 q 1071 -106 1047 -68 q 1023 -30 986 -9 q 948 12 897 12 l 897 12 q 856 12 826 -1 q 796 -14 775 -37 q 753 -60 739 -91 q 724 -123 715 -160 l 715 -160 l 741 -166 q 752 -121 771 -86 q 789 -52 820 -33 q 850 -14 896 -14 l 896 -14 q 958 -14 996 -47 q 1033 -80 1050 -139 q 1067 -198 1067 -275 l 1067 -275 q 1067 -351 1050 -408 q 1032 -466 996 -499 q 959 -532 902 -532 l 902 -532 q 857 -532 827 -512 q 796 -492 777 -458 q 757 -424 744 -382 l 744 -382 l 718 -388 q 728 -423 744 -454 q 760 -485 783 -508 q 805 -532 835 -545 q 865 -558 902 -558 l 902 -558 q 953 -558 990 -535 q 1026 -512 1049 -472 q 1072 -433 1083 -382 q 1094 -331 1094 -275 z"},"ഔ":{"ha":1389,"x_min":46,"x_max":1342,"o":"m 414 -558 l 414 -558 q 497 -558 546 -535 q 595 -512 617 -475 q 638 -438 638 -397 l 638 -397 q 638 -364 624 -334 q 610 -304 576 -285 q 541 -266 479 -264 l 479 -264 l 479 -274 q 564 -270 607 -231 q 649 -192 649 -131 l 649 -131 q 649 -64 612 -26 q 574 12 501 12 l 501 12 q 473 12 449 8 q 424 4 407 0 l 407 0 l 413 -26 q 434 -20 455 -17 q 476 -14 498 -14 l 498 -14 q 564 -14 593 -43 q 622 -73 622 -130 l 622 -130 q 622 -165 608 -188 q 594 -212 571 -227 l 571 -227 q 547 -243 517 -250 q 486 -257 451 -257 l 451 -257 l 435 -257 l 435 -283 l 454 -283 q 507 -283 537 -293 q 567 -304 585 -323 l 585 -323 q 598 -337 605 -356 q 611 -375 611 -397 l 611 -397 q 611 -456 565 -494 q 518 -532 416 -532 l 416 -532 q 329 -532 265 -507 q 200 -483 157 -440 q 114 -398 93 -344 q 72 -290 72 -231 l 72 -231 l 72 -224 q 72 -152 90 -105 q 107 -59 140 -36 q 172 -14 216 -14 l 216 -14 q 247 -14 273 -27 q 298 -40 314 -69 q 329 -99 329 -149 l 329 -149 q 329 -202 300 -239 q 270 -276 208 -276 l 208 -276 q 161 -276 120 -252 q 79 -229 56 -203 l 56 -203 l 51 -229 q 86 -267 128 -284 q 169 -302 209 -302 l 209 -302 q 249 -302 282 -285 q 315 -268 336 -234 q 356 -200 356 -149 l 356 -149 q 356 -94 337 -58 q 318 -23 287 -5 q 255 12 216 12 l 216 12 q 169 12 131 -11 q 92 -35 69 -87 q 46 -140 46 -226 l 46 -226 q 46 -293 70 -353 q 93 -413 139 -459 q 185 -505 254 -531 q 323 -558 414 -558 z m 1168 -558 l 1168 -558 q 1225 -558 1264 -526 q 1302 -494 1322 -436 q 1342 -379 1342 -300 l 1342 -300 q 1342 -196 1316 -126 q 1289 -57 1236 -22 q 1182 12 1099 12 l 1099 12 q 1041 12 999 1 q 956 -11 914 -32 l 914 -32 l 928 -55 q 971 -33 1011 -23 q 1050 -14 1099 -14 l 1099 -14 q 1181 -14 1228 -48 q 1275 -83 1295 -147 q 1315 -211 1315 -300 l 1315 -300 q 1315 -416 1276 -474 q 1236 -532 1168 -532 l 1168 -532 q 1137 -532 1116 -522 q 1095 -513 1081 -496 l 1081 -496 q 1059 -470 1051 -428 q 1042 -387 1042 -339 l 1042 -339 l 1042 -254 l 1016 -254 l 1016 -338 q 1016 -399 1006 -438 q 995 -477 972 -500 l 972 -500 q 957 -515 936 -523 q 915 -532 888 -532 l 888 -532 q 823 -532 790 -487 q 756 -443 756 -376 l 756 -376 q 756 -345 761 -316 q 766 -288 775 -255 l 775 -255 l 750 -250 q 740 -280 735 -313 q 729 -346 729 -377 l 729 -377 q 729 -428 748 -469 q 766 -510 802 -534 q 837 -558 888 -558 l 888 -558 q 944 -558 982 -526 q 1020 -494 1033 -415 l 1033 -415 l 1024 -411 q 1032 -489 1073 -523 q 1113 -558 1168 -558 z"},"ക":{"ha":974,"x_min":38,"x_max":936,"o":"m 192 12 l 192 12 q 119 12 79 -28 q 38 -68 38 -141 l 38 -141 q 38 -181 54 -209 q 69 -237 94 -255 l 94 -255 q 121 -275 153 -285 q 185 -295 226 -298 q 267 -302 319 -302 l 319 -302 l 663 -302 q 744 -302 794 -292 q 843 -282 880 -255 l 880 -255 q 906 -236 921 -208 q 936 -180 936 -140 l 936 -140 q 936 -71 898 -29 q 859 12 781 12 l 781 12 q 760 12 737 9 q 713 6 688 -1 l 688 -1 l 695 -26 q 718 -20 739 -17 q 759 -14 782 -14 l 782 -14 q 853 -14 881 -48 q 909 -83 909 -139 l 909 -139 q 909 -174 897 -197 q 884 -221 863 -236 l 863 -236 q 827 -262 779 -269 q 730 -276 667 -276 l 667 -276 l 313 -276 q 246 -276 196 -269 q 146 -262 111 -236 l 111 -236 q 90 -221 78 -197 q 65 -174 65 -140 l 65 -140 q 65 -91 83 -63 q 101 -36 131 -25 q 161 -14 195 -14 l 195 -14 q 241 -14 275 -28 q 309 -42 354 -73 l 354 -73 l 371 -53 q 346 -35 320 -20 q 293 -5 263 4 q 232 12 192 12 z m 491 -558 l 491 -558 q 560 -558 604 -523 q 648 -489 669 -426 q 689 -363 689 -275 l 689 -275 q 689 -174 664 -110 q 639 -47 594 -17 q 549 12 489 12 l 489 12 q 441 12 407 -6 q 372 -24 349 -54 l 349 -54 q 317 -95 304 -154 q 290 -213 290 -275 l 290 -275 q 290 -409 343 -483 q 396 -558 491 -558 z m 491 -532 l 491 -532 q 405 -532 361 -464 q 316 -396 316 -274 l 316 -274 q 316 -187 337 -129 q 358 -72 397 -43 q 435 -14 487 -14 l 487 -14 q 542 -14 582 -40 q 621 -67 642 -125 q 663 -183 663 -276 l 663 -276 q 663 -364 643 -420 q 623 -477 585 -504 q 547 -532 491 -532 z"},"ഖ":{"ha":942,"x_min":46,"x_max":863,"o":"m 353 -558 l 353 -558 q 418 -558 468 -537 q 518 -516 553 -478 q 587 -441 605 -389 q 622 -338 622 -277 l 622 -277 q 622 -203 602 -152 q 582 -101 554 -68 q 525 -35 498 -15 l 498 -15 l 514 0 l 479 0 l 469 -21 q 500 -44 529 -77 q 557 -111 576 -160 q 595 -209 595 -277 l 595 -277 q 595 -347 570 -405 q 544 -463 491 -497 q 437 -532 353 -532 l 353 -532 q 270 -532 207 -492 q 143 -453 108 -384 q 72 -316 72 -229 l 72 -229 l 72 -218 q 72 -149 90 -103 q 107 -58 140 -36 q 172 -14 216 -14 l 216 -14 q 247 -14 273 -27 q 298 -40 314 -69 q 329 -99 329 -149 l 329 -149 q 329 -202 300 -239 q 270 -276 208 -276 l 208 -276 q 161 -276 120 -252 q 79 -229 56 -203 l 56 -203 l 51 -229 q 86 -267 128 -284 q 169 -302 209 -302 l 209 -302 q 249 -302 282 -285 q 315 -268 336 -234 q 356 -200 356 -149 l 356 -149 q 356 -94 337 -58 q 318 -23 287 -5 q 255 12 216 12 l 216 12 q 169 12 131 -11 q 92 -35 69 -86 q 46 -137 46 -221 l 46 -221 q 46 -323 86 -399 q 126 -475 196 -516 q 265 -558 353 -558 z m 837 -546 l 863 -546 l 863 0 l 494 0 l 488 -26 l 837 -26 l 837 -546 z"},"ഗ":{"ha":816,"x_min":45,"x_max":771,"o":"m 571 -558 l 571 -558 q 633 -558 678 -525 q 723 -493 747 -432 q 771 -372 771 -288 l 771 -288 q 771 -214 752 -160 q 733 -106 700 -66 q 667 -26 626 8 l 626 8 l 611 -13 q 650 -45 680 -82 q 710 -119 727 -169 q 744 -219 744 -289 l 744 -289 q 744 -369 723 -423 q 701 -477 662 -504 q 623 -532 572 -532 l 572 -532 q 529 -532 504 -520 q 478 -508 461 -486 l 461 -486 q 435 -453 428 -400 q 421 -347 421 -273 l 421 -273 l 421 -255 q 421 -198 417 -158 q 412 -118 401 -90 q 390 -62 370 -38 l 370 -38 q 350 -14 319 -1 q 288 12 245 12 l 245 12 q 183 12 138 -20 q 93 -53 69 -114 q 45 -175 45 -258 l 45 -258 q 45 -333 64 -386 q 83 -440 116 -480 q 149 -520 190 -554 l 190 -554 l 205 -533 q 167 -501 137 -464 q 106 -427 89 -377 q 72 -328 72 -257 l 72 -257 q 72 -177 94 -123 q 116 -69 155 -41 q 193 -14 244 -14 l 244 -14 q 287 -14 313 -26 q 338 -38 355 -60 l 355 -60 q 381 -93 388 -143 q 395 -193 395 -273 l 395 -273 l 395 -290 q 395 -373 406 -423 q 416 -473 446 -508 l 446 -508 q 466 -532 497 -545 q 528 -558 571 -558 z"},"ഘ":{"ha":1222,"x_min":38,"x_max":1143,"o":"m 201 -558 l 201 -558 q 250 -558 287 -536 q 324 -515 345 -478 q 365 -441 365 -392 l 365 -392 q 365 -346 350 -310 q 334 -275 302 -246 l 302 -246 l 308 -262 l 506 -262 l 509 -236 l 295 -236 l 283 -257 q 313 -287 326 -319 q 338 -352 338 -391 l 338 -391 q 338 -456 301 -494 q 263 -532 201 -532 l 201 -532 q 158 -532 128 -512 q 97 -493 81 -461 q 65 -429 65 -392 l 65 -392 q 65 -343 82 -310 q 99 -278 135 -249 l 135 -249 l 119 -228 q 79 -263 59 -298 q 38 -334 38 -392 l 38 -392 q 38 -437 59 -475 q 79 -513 116 -535 q 153 -558 201 -558 z m 1117 -546 l 1143 -546 l 1143 0 l 494 0 l 494 -317 q 494 -386 508 -428 q 521 -470 547 -498 l 547 -498 q 574 -528 615 -543 q 656 -558 706 -558 l 706 -558 q 758 -558 797 -545 q 836 -532 861 -506 l 861 -506 q 888 -478 902 -434 q 915 -390 915 -325 l 915 -325 l 915 -236 l 520 -236 l 520 -26 l 1117 -26 l 1117 -546 z m 706 -533 l 706 -533 q 616 -533 568 -482 q 520 -432 520 -319 l 520 -319 l 520 -262 l 889 -262 l 889 -315 q 889 -435 846 -484 q 802 -533 706 -533 z"},"ങ":{"ha":989,"x_min":48,"x_max":947,"o":"m 330 -558 l 330 -558 q 418 -558 473 -510 q 527 -462 534 -371 l 534 -371 l 533 -319 l 542 -198 l 542 0 l 516 0 l 516 -312 q 516 -389 497 -431 q 477 -473 445 -498 l 445 -498 q 421 -516 395 -524 q 368 -532 329 -532 l 329 -532 q 250 -532 193 -492 q 135 -453 105 -385 q 74 -318 74 -232 l 74 -232 l 74 -226 q 74 -153 92 -106 q 109 -59 142 -36 q 174 -14 218 -14 l 218 -14 q 249 -14 275 -27 q 300 -40 316 -69 q 331 -99 331 -149 l 331 -149 q 331 -202 302 -239 q 272 -276 210 -276 l 210 -276 q 163 -276 122 -252 q 81 -229 58 -203 l 58 -203 l 53 -229 q 88 -267 130 -284 q 171 -302 211 -302 l 211 -302 q 251 -302 284 -285 q 317 -268 338 -234 q 358 -200 358 -149 l 358 -149 q 358 -94 339 -58 q 320 -23 289 -5 q 257 12 218 12 l 218 12 q 171 12 133 -11 q 94 -35 71 -87 q 48 -139 48 -225 l 48 -225 q 48 -324 83 -399 q 117 -474 181 -516 q 244 -558 330 -558 z m 756 -558 l 756 -558 q 815 -558 855 -537 q 895 -517 916 -483 q 936 -450 936 -409 l 936 -409 q 936 -372 923 -340 q 909 -308 875 -287 q 840 -267 777 -264 l 777 -264 l 777 -274 q 862 -270 905 -231 q 947 -192 947 -131 l 947 -131 q 947 -64 910 -26 q 872 12 799 12 l 799 12 q 771 12 747 8 q 722 4 705 0 l 705 0 l 711 -26 q 732 -20 753 -17 q 774 -14 796 -14 l 796 -14 q 862 -14 891 -43 q 920 -73 920 -130 l 920 -130 q 920 -165 906 -188 q 892 -212 869 -227 l 869 -227 q 845 -243 814 -250 q 782 -257 741 -257 l 741 -257 l 720 -257 l 720 -283 l 746 -283 q 799 -283 831 -293 q 863 -303 882 -325 l 882 -325 q 895 -340 902 -360 q 909 -380 909 -408 l 909 -408 q 909 -463 870 -497 q 830 -532 756 -532 l 756 -532 q 707 -532 669 -516 q 630 -501 601 -469 l 601 -469 q 583 -450 570 -422 q 557 -395 550 -356 q 542 -318 542 -262 l 542 -262 l 542 -136 l 526 -137 l 526 -281 l 524 -335 q 529 -403 557 -453 q 585 -503 636 -530 q 686 -558 756 -558 z"},"ച":{"ha":868,"x_min":15,"x_max":789,"o":"m 763 -546 l 789 -546 l 789 0 l 15 0 l 15 -26 l 389 -26 l 371 -14 q 403 -43 428 -80 q 452 -118 452 -176 l 452 -176 q 452 -244 418 -281 q 384 -318 325 -318 l 325 -318 q 262 -318 229 -282 q 195 -246 195 -184 l 195 -184 q 195 -168 197 -156 q 198 -144 201 -130 l 201 -130 l 175 -125 q 172 -139 170 -153 q 168 -167 168 -185 l 168 -185 q 168 -260 213 -302 q 258 -344 325 -344 l 325 -344 q 360 -344 389 -332 q 417 -321 437 -299 q 457 -277 468 -246 q 479 -215 479 -176 l 479 -176 q 479 -135 468 -105 q 457 -76 440 -54 q 423 -33 406 -15 l 406 -15 l 395 -26 l 763 -26 l 763 -546 z"},"ഛ":{"ha":1267,"x_min":15,"x_max":1222,"o":"m 325 -344 l 325 -344 q 360 -344 389 -332 q 417 -321 437 -299 q 457 -277 468 -246 q 479 -215 479 -176 l 479 -176 q 479 -135 468 -105 q 457 -76 440 -54 q 423 -33 406 -15 l 406 -15 l 395 -26 l 765 -26 l 764 0 l 15 0 l 15 -26 l 389 -26 l 371 -14 q 403 -43 428 -80 q 452 -118 452 -176 l 452 -176 q 452 -244 418 -281 q 384 -318 325 -318 l 325 -318 q 262 -318 229 -282 q 195 -246 195 -184 l 195 -184 q 195 -168 197 -156 q 198 -144 201 -130 l 201 -130 l 175 -125 q 172 -139 170 -153 q 168 -167 168 -185 l 168 -185 q 168 -260 213 -302 q 258 -344 325 -344 z m 925 -558 l 925 -558 q 998 -558 1054 -534 q 1109 -511 1147 -468 q 1184 -426 1203 -368 q 1222 -311 1222 -243 l 1222 -243 q 1222 -152 1199 -96 q 1176 -40 1136 -14 q 1095 12 1042 12 l 1042 12 q 985 12 949 -14 q 913 -41 896 -86 q 878 -132 878 -187 l 878 -187 q 878 -282 927 -331 q 976 -380 1051 -380 l 1051 -380 q 1094 -380 1126 -363 q 1157 -346 1180 -318 q 1203 -291 1218 -257 l 1218 -257 l 1206 -243 q 1194 -269 1173 -294 q 1151 -320 1121 -337 q 1091 -354 1052 -354 l 1052 -354 q 979 -354 942 -309 q 905 -265 905 -189 l 905 -189 q 905 -141 919 -101 q 932 -61 963 -37 q 993 -14 1044 -14 l 1044 -14 q 1092 -14 1126 -38 q 1160 -62 1178 -113 q 1196 -164 1196 -244 l 1196 -244 q 1196 -255 1196 -261 q 1195 -267 1195 -271 l 1195 -271 q 1195 -276 1196 -281 q 1196 -287 1195 -291 l 1195 -291 q 1187 -353 1158 -408 q 1128 -463 1072 -497 q 1015 -532 925 -532 l 925 -532 q 855 -532 796 -503 q 736 -475 700 -418 q 664 -361 664 -276 l 664 -276 q 664 -217 679 -170 q 694 -124 722 -87 q 750 -51 789 -21 l 789 -21 l 777 0 l 759 0 l 752 -22 q 729 -42 702 -73 q 675 -105 656 -155 q 637 -205 637 -278 l 637 -278 q 637 -333 655 -383 q 673 -433 709 -472 q 745 -512 799 -535 q 853 -558 925 -558 z"},"ജ":{"ha":877,"x_min":39,"x_max":832,"o":"m 277 -558 l 277 -558 q 333 -558 374 -541 q 415 -525 442 -491 q 468 -458 480 -405 l 480 -405 l 470 -392 q 482 -480 530 -519 q 577 -558 647 -558 l 647 -558 q 711 -558 752 -533 q 793 -508 813 -468 q 832 -428 832 -382 l 832 -382 q 832 -348 823 -315 q 813 -282 788 -255 q 763 -228 716 -212 l 716 -212 l 681 -214 l 648 -203 q 626 -197 596 -192 q 565 -187 508 -187 l 508 -187 l 215 -187 q 166 -187 136 -181 q 105 -175 86 -157 l 86 -157 q 76 -148 71 -134 q 66 -121 66 -104 l 66 -104 q 66 -73 80 -53 q 93 -33 119 -23 q 144 -14 178 -14 l 178 -14 q 220 -14 257 -23 q 294 -32 332 -50 q 370 -68 414 -94 l 414 -94 q 463 -123 495 -141 q 527 -160 548 -171 q 568 -183 583 -190 q 598 -198 614 -204 l 614 -204 q 622 -209 633 -212 q 643 -215 654 -217 q 665 -220 675 -221 q 684 -222 690 -222 l 690 -222 q 722 -222 749 -210 q 775 -198 791 -173 q 806 -148 806 -109 l 806 -109 q 806 -47 769 -17 q 732 12 685 12 l 685 12 q 638 12 611 -6 q 584 -25 573 -53 q 561 -82 561 -113 l 561 -113 q 561 -144 572 -164 q 583 -184 607 -211 l 607 -211 l 630 -211 q 618 -201 608 -187 q 598 -174 592 -156 q 586 -139 586 -116 l 586 -116 q 586 -69 610 -41 q 634 -14 685 -14 l 685 -14 q 726 -14 753 -37 q 779 -60 779 -109 l 779 -109 q 779 -143 766 -163 q 753 -183 731 -192 q 709 -202 682 -202 l 682 -202 q 659 -202 635 -194 q 611 -186 595 -173 l 595 -173 l 587 -174 q 570 -161 551 -147 q 531 -133 504 -116 q 477 -100 436 -77 l 436 -77 q 383 -47 343 -27 q 303 -8 265 2 q 227 12 178 12 l 178 12 q 147 12 115 2 q 82 -8 61 -33 q 39 -59 39 -105 l 39 -105 q 39 -128 47 -144 q 54 -161 67 -174 l 67 -174 q 90 -197 124 -205 q 157 -213 212 -213 l 212 -213 l 544 -213 q 599 -213 639 -218 q 678 -223 706 -233 q 734 -244 753 -258 l 753 -258 q 781 -279 793 -310 q 805 -342 805 -382 l 805 -382 q 805 -419 790 -453 q 774 -487 740 -509 q 705 -532 647 -532 l 647 -532 q 613 -532 589 -523 q 564 -515 544 -498 l 544 -498 q 513 -470 502 -427 q 491 -384 491 -337 l 491 -337 l 491 -258 l 465 -258 l 465 -336 q 465 -390 449 -432 q 433 -475 396 -500 l 396 -500 q 370 -518 342 -525 q 314 -532 276 -532 l 276 -532 q 207 -532 157 -510 q 107 -488 81 -444 l 81 -444 q 80 -441 81 -438 q 81 -435 79 -432 l 79 -432 q 75 -421 73 -409 q 70 -397 70 -384 l 70 -384 q 70 -322 97 -297 q 124 -272 169 -272 l 169 -272 q 206 -272 226 -286 q 246 -301 254 -322 q 262 -343 262 -363 l 262 -363 q 262 -400 239 -425 q 216 -450 167 -450 l 167 -450 q 137 -450 110 -439 q 82 -428 53 -402 l 53 -402 l 60 -432 q 83 -451 110 -463 q 137 -475 169 -475 l 169 -475 q 212 -475 238 -458 q 264 -442 277 -416 q 289 -391 289 -364 l 289 -364 q 289 -334 276 -307 q 263 -280 237 -263 q 210 -246 169 -246 l 169 -246 q 106 -246 75 -282 q 44 -319 44 -384 l 44 -384 q 44 -430 70 -469 q 96 -509 148 -533 q 200 -558 277 -558 z"},"ഝ":{"ha":1556,"x_min":45,"x_max":1511,"o":"m 618 -558 l 618 -558 q 662 -558 697 -546 q 732 -534 757 -514 l 757 -514 q 799 -480 818 -426 q 836 -373 836 -286 l 836 -286 l 836 -255 q 836 -174 846 -130 q 855 -86 877 -58 l 877 -58 q 894 -37 919 -25 q 943 -14 980 -14 l 980 -14 q 1009 -14 1030 -22 q 1051 -30 1067 -45 l 1067 -45 q 1096 -71 1108 -114 q 1120 -158 1120 -222 l 1120 -222 l 1120 -546 l 1146 -546 l 1146 -235 q 1146 -170 1158 -124 q 1169 -78 1200 -49 l 1200 -49 q 1218 -33 1242 -23 q 1266 -14 1303 -14 l 1303 -14 q 1366 -14 1406 -49 q 1446 -84 1465 -139 q 1484 -195 1484 -255 l 1484 -255 q 1484 -326 1467 -376 q 1450 -426 1420 -462 q 1390 -499 1351 -531 l 1351 -531 l 1366 -552 q 1407 -518 1440 -479 q 1473 -441 1492 -387 q 1511 -334 1511 -255 l 1511 -255 q 1511 -184 1488 -123 q 1464 -62 1417 -25 q 1370 12 1300 12 l 1300 12 q 1225 12 1184 -29 q 1143 -71 1130 -144 l 1130 -144 l 1136 -143 q 1131 -94 1111 -59 q 1090 -24 1057 -6 q 1024 12 980 12 l 980 12 q 940 12 912 0 q 883 -13 862 -36 l 862 -36 q 844 -57 833 -82 q 821 -108 816 -145 q 810 -182 810 -234 l 810 -234 l 810 -261 q 810 -328 803 -372 q 796 -416 781 -444 q 766 -472 742 -491 l 742 -491 q 719 -510 690 -521 q 660 -532 619 -532 l 619 -532 q 578 -532 547 -522 q 515 -513 484 -496 l 484 -496 l 476 -491 q 429 -461 396 -414 q 363 -368 346 -313 q 329 -259 329 -205 l 329 -205 q 329 -137 347 -95 q 365 -53 397 -33 q 429 -14 472 -14 l 472 -14 q 513 -14 545 -35 q 576 -56 595 -99 q 613 -143 613 -210 l 613 -210 q 613 -264 595 -318 q 577 -372 544 -418 q 511 -464 465 -492 l 465 -492 l 457 -497 q 427 -514 393 -523 q 358 -532 320 -532 l 320 -532 q 235 -532 180 -497 q 125 -462 99 -403 q 72 -345 72 -276 l 72 -276 q 72 -214 88 -166 q 103 -118 133 -81 q 163 -44 206 -13 l 206 -13 l 191 8 q 154 -18 121 -56 q 87 -94 66 -147 q 45 -201 45 -275 l 45 -275 q 45 -336 64 -387 q 82 -439 117 -477 q 152 -516 204 -537 q 255 -558 321 -558 l 321 -558 q 365 -558 404 -546 q 443 -534 479 -511 l 479 -511 l 489 -505 q 557 -459 599 -379 q 640 -300 640 -210 l 640 -210 q 640 -134 618 -85 q 595 -36 557 -12 q 519 12 472 12 l 472 12 q 423 12 385 -11 q 346 -34 324 -82 q 302 -130 302 -206 l 302 -206 q 302 -267 320 -323 q 338 -380 372 -426 q 406 -473 453 -505 l 453 -505 l 461 -510 q 498 -534 538 -546 q 577 -558 618 -558 z"},"ഞ":{"ha":1356,"x_min":48,"x_max":1311,"o":"m 330 -558 l 330 -558 q 418 -558 473 -510 q 527 -462 534 -371 l 534 -371 l 533 -319 l 542 -198 l 542 0 l 516 0 l 516 -312 q 516 -389 497 -431 q 477 -473 445 -498 l 445 -498 q 421 -516 395 -524 q 368 -532 329 -532 l 329 -532 q 250 -532 193 -492 q 135 -453 105 -385 q 74 -318 74 -232 l 74 -232 l 74 -226 q 74 -153 92 -106 q 109 -59 142 -36 q 174 -14 218 -14 l 218 -14 q 249 -14 275 -27 q 300 -40 316 -69 q 331 -99 331 -149 l 331 -149 q 331 -202 302 -239 q 272 -276 210 -276 l 210 -276 q 163 -276 122 -252 q 81 -229 58 -203 l 58 -203 l 53 -229 q 88 -267 130 -284 q 171 -302 211 -302 l 211 -302 q 251 -302 284 -285 q 317 -268 338 -234 q 358 -200 358 -149 l 358 -149 q 358 -94 339 -58 q 320 -23 289 -5 q 257 12 218 12 l 218 12 q 171 12 133 -11 q 94 -35 71 -87 q 48 -139 48 -225 l 48 -225 q 48 -324 83 -399 q 117 -474 181 -516 q 244 -558 330 -558 z m 732 -558 l 732 -558 q 779 -558 817 -547 q 855 -536 891 -513 l 891 -513 l 901 -507 q 969 -461 1011 -381 q 1052 -302 1052 -210 l 1052 -210 q 1052 -134 1030 -85 q 1007 -36 969 -12 q 931 12 884 12 l 884 12 q 835 12 797 -11 q 758 -34 736 -82 q 714 -130 714 -206 l 714 -206 q 714 -267 733 -323 q 752 -379 787 -425 q 821 -472 868 -504 l 868 -504 l 876 -509 q 913 -533 956 -545 q 998 -558 1044 -558 l 1044 -558 q 1108 -558 1158 -537 q 1207 -516 1242 -478 q 1276 -441 1294 -389 q 1311 -338 1311 -276 l 1311 -276 q 1311 -202 1290 -149 q 1269 -97 1236 -59 q 1202 -21 1163 8 l 1163 8 l 1148 -13 q 1185 -40 1216 -75 q 1247 -111 1266 -160 q 1284 -209 1284 -277 l 1284 -277 q 1284 -350 1258 -407 q 1231 -465 1178 -498 q 1124 -532 1043 -532 l 1043 -532 q 1002 -532 966 -522 q 930 -512 899 -495 l 899 -495 l 891 -490 q 844 -460 810 -414 q 776 -368 759 -313 q 741 -259 741 -205 l 741 -205 q 741 -137 759 -95 q 777 -53 809 -33 q 841 -14 884 -14 l 884 -14 q 925 -14 957 -35 q 988 -56 1007 -99 q 1025 -143 1025 -210 l 1025 -210 q 1025 -267 1007 -321 q 989 -376 956 -421 q 923 -466 877 -494 l 877 -494 l 869 -499 q 849 -510 827 -517 q 805 -525 782 -528 q 758 -532 733 -532 l 733 -532 q 695 -532 665 -522 q 635 -512 612 -493 l 612 -493 q 576 -464 559 -418 q 542 -372 542 -286 l 542 -286 l 542 -68 l 524 -68 l 528 -239 l 525 -381 q 536 -442 564 -481 q 592 -520 635 -539 q 678 -558 732 -558 z"},"ട":{"ha":508,"x_min":20,"x_max":476,"o":"m 240 -558 l 240 -558 q 315 -558 371 -543 q 427 -528 476 -505 l 476 -505 l 459 -483 q 407 -509 355 -520 q 303 -532 241 -532 l 241 -532 q 177 -532 138 -514 q 98 -497 81 -469 q 63 -441 63 -407 l 63 -407 q 63 -376 73 -355 q 82 -335 98 -322 l 98 -322 q 124 -300 163 -296 q 202 -292 253 -292 l 253 -292 l 259 -292 q 321 -292 357 -283 q 393 -275 421 -254 l 421 -254 q 444 -237 456 -210 q 468 -184 468 -146 l 468 -146 q 468 -100 446 -64 q 423 -28 377 -8 q 331 12 260 12 l 260 12 q 184 12 130 -3 q 75 -19 20 -48 l 20 -48 l 35 -70 q 65 -54 98 -41 q 131 -29 171 -21 q 211 -14 260 -14 l 260 -14 q 327 -14 367 -31 q 406 -49 424 -79 q 441 -109 441 -146 l 441 -146 q 441 -175 433 -196 q 425 -218 407 -232 l 407 -232 q 385 -250 352 -258 q 318 -266 256 -266 l 256 -266 l 250 -266 q 182 -266 143 -274 q 104 -282 76 -307 l 76 -307 q 58 -324 47 -349 q 36 -374 36 -408 l 36 -408 q 36 -450 59 -484 q 81 -518 127 -538 q 172 -558 240 -558 z"},"ഠ":{"ha":610,"x_min":45,"x_max":565,"o":"m 307 -558 l 307 -558 q 388 -558 446 -523 q 504 -488 535 -424 q 565 -360 565 -272 l 565 -272 q 565 -186 534 -122 q 502 -58 443 -23 q 384 12 303 12 l 303 12 q 222 12 165 -23 q 107 -58 76 -122 q 45 -187 45 -275 l 45 -275 q 45 -361 77 -424 q 109 -488 168 -523 q 227 -558 307 -558 z m 303 -14 l 303 -14 q 381 -14 433 -47 q 485 -81 512 -140 q 538 -199 538 -274 l 538 -274 q 538 -354 512 -412 q 485 -470 434 -501 q 382 -532 306 -532 l 306 -532 q 195 -532 134 -461 q 72 -391 72 -274 l 72 -274 q 72 -153 132 -83 q 191 -14 303 -14 z"},"ഡ":{"ha":1141,"x_min":45,"x_max":1096,"o":"m 565 12 l 565 12 q 525 12 497 0 q 468 -13 447 -36 l 447 -36 q 429 -57 418 -82 q 406 -108 401 -145 q 395 -182 395 -234 l 395 -234 l 395 -273 q 395 -353 388 -403 q 381 -453 355 -486 l 355 -486 q 338 -508 313 -520 q 287 -532 244 -532 l 244 -532 q 193 -532 155 -504 q 116 -477 94 -423 q 72 -369 72 -289 l 72 -289 q 72 -219 89 -169 q 106 -119 137 -82 q 167 -45 205 -13 l 205 -13 l 190 8 q 149 -26 116 -66 q 83 -106 64 -160 q 45 -214 45 -288 l 45 -288 q 45 -372 69 -432 q 93 -493 138 -525 q 183 -558 245 -558 l 245 -558 q 288 -558 319 -545 q 350 -532 370 -508 l 370 -508 q 390 -485 401 -456 q 412 -428 417 -388 q 421 -349 421 -291 l 421 -291 l 421 -255 q 421 -174 431 -130 q 440 -86 462 -58 l 462 -58 q 479 -37 504 -25 q 528 -14 565 -14 l 565 -14 q 594 -14 615 -22 q 636 -30 652 -45 l 652 -45 q 681 -71 693 -114 q 705 -158 705 -222 l 705 -222 l 705 -546 l 731 -546 l 731 -235 q 731 -170 743 -124 q 754 -78 785 -49 l 785 -49 q 803 -33 827 -23 q 851 -14 888 -14 l 888 -14 q 951 -14 991 -49 q 1031 -84 1050 -139 q 1069 -195 1069 -255 l 1069 -255 q 1069 -326 1052 -376 q 1035 -426 1005 -462 q 975 -499 936 -531 l 936 -531 l 951 -552 q 992 -518 1025 -479 q 1058 -441 1077 -387 q 1096 -334 1096 -255 l 1096 -255 q 1096 -184 1073 -123 q 1049 -62 1002 -25 q 955 12 885 12 l 885 12 q 810 12 769 -29 q 728 -71 715 -144 l 715 -144 l 721 -143 q 714 -69 672 -28 q 630 12 565 12 z"},"ഢ":{"ha":1247,"x_min":45,"x_max":1199,"o":"m 565 12 l 565 12 q 525 12 497 0 q 468 -13 447 -36 l 447 -36 q 429 -57 418 -82 q 406 -108 401 -145 q 395 -182 395 -234 l 395 -234 l 395 -273 q 395 -353 388 -403 q 381 -453 355 -486 l 355 -486 q 338 -508 313 -520 q 287 -532 244 -532 l 244 -532 q 193 -532 155 -504 q 116 -477 94 -423 q 72 -369 72 -289 l 72 -289 q 72 -219 89 -169 q 106 -119 137 -82 q 167 -45 205 -13 l 205 -13 l 190 8 q 149 -26 116 -66 q 83 -106 64 -160 q 45 -214 45 -288 l 45 -288 q 45 -372 69 -432 q 93 -493 138 -525 q 183 -558 245 -558 l 245 -558 q 288 -558 319 -545 q 350 -532 370 -508 l 370 -508 q 390 -485 401 -456 q 412 -428 417 -388 q 421 -349 421 -291 l 421 -291 l 421 -255 q 421 -174 431 -130 q 440 -86 462 -58 l 462 -58 q 479 -37 504 -25 q 528 -14 565 -14 l 565 -14 q 594 -14 615 -22 q 636 -30 652 -45 l 652 -45 q 681 -71 693 -114 q 705 -158 705 -222 l 705 -222 l 705 -546 l 731 -546 l 731 -235 l 721 -143 q 714 -69 672 -28 q 630 12 565 12 z m 1029 -558 l 1029 -558 q 1076 -558 1115 -534 q 1153 -511 1176 -459 q 1199 -407 1199 -321 l 1199 -321 q 1199 -223 1165 -147 q 1130 -72 1067 -30 q 1003 12 917 12 l 917 12 q 829 12 775 -36 q 720 -84 713 -175 l 713 -175 l 712 -348 l 712 -536 l 731 -536 l 731 -234 q 731 -158 751 -115 q 770 -73 802 -48 l 802 -48 q 826 -30 853 -22 q 879 -14 918 -14 l 918 -14 q 998 -14 1055 -53 q 1112 -93 1143 -161 q 1173 -229 1173 -314 l 1173 -314 l 1173 -320 q 1173 -394 1156 -440 q 1138 -487 1106 -509 q 1073 -532 1029 -532 l 1029 -532 q 999 -532 973 -519 q 947 -506 932 -476 q 916 -447 916 -397 l 916 -397 q 916 -345 946 -307 q 975 -270 1037 -270 l 1037 -270 q 1084 -270 1125 -293 q 1166 -317 1189 -343 l 1189 -343 l 1194 -317 q 1160 -279 1118 -261 q 1076 -244 1036 -244 l 1036 -244 q 997 -244 964 -261 q 930 -278 910 -312 q 889 -347 889 -397 l 889 -397 q 889 -452 908 -487 q 927 -523 959 -540 q 991 -558 1029 -558 z"},"ണ":{"ha":1285,"x_min":48,"x_max":1240,"o":"m 330 -558 l 330 -558 q 418 -558 466 -516 q 514 -474 530 -404 l 530 -404 l 525 -401 q 536 -469 577 -513 q 617 -558 698 -558 l 698 -558 q 772 -558 816 -517 q 859 -477 866 -403 l 866 -403 l 859 -402 q 870 -474 912 -516 q 954 -558 1030 -558 l 1030 -558 q 1100 -558 1147 -521 q 1193 -484 1217 -423 q 1240 -363 1240 -291 l 1240 -291 q 1240 -213 1221 -159 q 1202 -105 1169 -66 q 1136 -28 1095 6 l 1095 6 l 1080 -15 q 1119 -47 1149 -84 q 1179 -121 1196 -170 q 1213 -220 1213 -291 l 1213 -291 q 1213 -352 1194 -407 q 1175 -462 1135 -497 q 1095 -532 1032 -532 l 1032 -532 q 995 -532 971 -523 q 947 -514 929 -497 l 929 -497 q 898 -469 887 -422 q 875 -376 875 -311 l 875 -311 l 875 0 l 849 0 l 849 -315 q 849 -379 841 -416 q 832 -454 810 -482 l 810 -482 q 792 -505 765 -518 q 737 -532 696 -532 l 696 -532 q 657 -532 629 -518 q 601 -505 583 -482 l 583 -482 q 561 -454 552 -414 q 542 -375 542 -316 l 542 -316 l 542 0 l 516 0 l 516 -312 q 516 -389 497 -431 q 477 -473 445 -498 l 445 -498 q 421 -516 395 -524 q 368 -532 329 -532 l 329 -532 q 250 -532 193 -492 q 135 -453 105 -385 q 74 -318 74 -232 l 74 -232 l 74 -226 q 74 -153 92 -106 q 109 -59 142 -36 q 174 -14 218 -14 l 218 -14 q 249 -14 275 -27 q 300 -40 316 -69 q 331 -99 331 -149 l 331 -149 q 331 -202 302 -239 q 272 -276 210 -276 l 210 -276 q 163 -276 122 -252 q 81 -229 58 -203 l 58 -203 l 53 -229 q 88 -267 130 -284 q 171 -302 211 -302 l 211 -302 q 251 -302 284 -285 q 317 -268 338 -234 q 358 -200 358 -149 l 358 -149 q 358 -94 339 -58 q 320 -23 289 -5 q 257 12 218 12 l 218 12 q 171 12 133 -11 q 94 -35 71 -87 q 48 -139 48 -225 l 48 -225 q 48 -324 83 -399 q 117 -474 181 -516 q 244 -558 330 -558 z"},"ത":{"ha":944,"x_min":45,"x_max":899,"o":"m 472 12 l 472 12 q 423 12 385 -11 q 346 -34 324 -82 q 302 -130 302 -206 l 302 -206 q 302 -267 321 -323 q 340 -379 375 -425 q 409 -472 456 -504 l 456 -504 l 464 -509 q 501 -533 544 -545 q 586 -558 632 -558 l 632 -558 q 696 -558 746 -537 q 795 -516 830 -478 q 864 -441 882 -389 q 899 -338 899 -276 l 899 -276 q 899 -202 879 -149 q 858 -97 824 -59 q 790 -21 751 8 l 751 8 l 736 -13 q 773 -40 804 -75 q 835 -111 854 -160 q 872 -209 872 -277 l 872 -277 q 872 -350 846 -407 q 819 -465 766 -498 q 712 -532 631 -532 l 631 -532 q 590 -532 554 -522 q 518 -512 487 -495 l 487 -495 l 479 -490 q 432 -460 398 -414 q 364 -368 347 -313 q 329 -259 329 -205 l 329 -205 q 329 -137 347 -95 q 365 -53 397 -33 q 429 -14 472 -14 l 472 -14 q 513 -14 545 -35 q 576 -56 595 -99 q 613 -143 613 -210 l 613 -210 q 613 -265 595 -319 q 577 -373 544 -418 q 511 -464 465 -492 l 465 -492 l 457 -497 q 427 -514 393 -523 q 358 -532 320 -532 l 320 -532 q 235 -532 180 -497 q 125 -462 99 -403 q 72 -345 72 -276 l 72 -276 q 72 -214 88 -166 q 103 -118 133 -81 q 163 -44 206 -13 l 206 -13 l 191 8 q 154 -18 121 -56 q 87 -94 66 -147 q 45 -201 45 -275 l 45 -275 q 45 -336 64 -387 q 82 -439 117 -477 q 152 -516 204 -537 q 255 -558 321 -558 l 321 -558 q 365 -558 404 -546 q 443 -534 479 -511 l 479 -511 l 489 -505 q 557 -459 599 -379 q 640 -300 640 -210 l 640 -210 q 640 -134 618 -85 q 595 -36 557 -12 q 519 12 472 12 z"},"ഥ":{"ha":836,"x_min":79,"x_max":767,"o":"m 79 -546 l 105 -546 l 105 -26 l 364 -26 l 364 0 l 79 0 l 79 -546 z m 550 -558 l 550 -558 q 604 -558 644 -539 q 684 -521 711 -489 l 711 -489 q 740 -455 754 -407 q 767 -359 767 -288 l 767 -288 l 767 0 l 337 0 l 337 -297 q 337 -342 343 -377 q 349 -413 362 -441 q 375 -470 395 -493 l 395 -493 q 421 -523 460 -540 q 498 -558 550 -558 z m 550 -532 l 550 -532 q 506 -532 472 -518 q 437 -504 414 -476 l 414 -476 q 389 -446 376 -402 q 363 -359 363 -278 l 363 -278 l 363 -26 l 741 -26 l 741 -276 q 741 -353 729 -397 q 716 -442 691 -472 l 691 -472 q 667 -501 632 -516 q 597 -532 550 -532 z"},"ദ":{"ha":583,"x_min":56,"x_max":541,"o":"m 346 -558 l 346 -558 q 405 -558 446 -538 q 487 -519 509 -485 q 530 -452 530 -409 l 530 -409 q 530 -339 492 -306 q 453 -273 390 -267 l 390 -267 l 389 -273 q 466 -268 504 -227 q 541 -186 541 -127 l 541 -127 q 541 -58 496 -23 q 451 12 376 12 l 376 12 q 342 12 320 9 q 297 5 279 1 l 279 1 l 285 -25 q 305 -21 327 -17 q 348 -14 376 -14 l 376 -14 q 444 -14 479 -43 q 514 -72 514 -129 l 514 -129 q 514 -159 504 -182 q 493 -205 473 -221 l 473 -221 q 451 -239 418 -248 q 385 -257 333 -257 l 333 -257 l 295 -257 l 295 -283 l 333 -283 q 385 -283 417 -291 q 448 -299 469 -318 l 469 -318 q 486 -333 495 -355 q 503 -377 503 -408 l 503 -408 q 503 -466 462 -499 q 420 -532 345 -532 l 345 -532 q 257 -532 199 -490 q 140 -448 112 -376 q 83 -304 83 -215 l 83 -215 q 83 -157 90 -105 q 97 -53 110 -1 l 110 -1 l 84 4 q 71 -44 64 -103 q 56 -162 56 -214 l 56 -214 q 56 -315 90 -392 q 124 -470 189 -514 q 253 -558 346 -558 z"},"ധ":{"ha":846,"x_min":45,"x_max":801,"o":"m 590 12 l 590 12 q 541 12 507 -6 q 472 -24 451 -59 q 430 -94 421 -144 l 421 -144 l 427 -144 q 414 -71 373 -29 q 331 12 256 12 l 256 12 q 186 12 139 -25 q 92 -62 69 -123 q 45 -184 45 -255 l 45 -255 q 45 -334 64 -387 q 83 -441 116 -479 q 149 -518 190 -552 l 190 -552 l 205 -531 q 167 -499 137 -462 q 106 -426 89 -376 q 72 -326 72 -255 l 72 -255 q 72 -195 91 -139 q 110 -84 150 -49 q 190 -14 253 -14 l 253 -14 q 291 -14 315 -23 q 338 -33 356 -49 l 356 -49 q 387 -78 399 -124 q 410 -170 410 -235 l 410 -235 l 410 -546 l 436 -546 l 436 -234 q 436 -169 448 -124 q 460 -79 490 -50 l 490 -50 q 508 -33 531 -23 q 554 -14 588 -14 l 588 -14 q 652 -14 693 -47 q 734 -81 754 -137 q 774 -193 774 -258 l 774 -258 q 774 -328 757 -377 q 740 -426 710 -462 q 680 -499 642 -531 l 642 -531 l 657 -552 q 698 -518 731 -478 q 763 -439 782 -386 q 801 -333 801 -258 l 801 -258 q 801 -177 775 -116 q 749 -55 702 -21 q 654 12 590 12 z"},"ന":{"ha":846,"x_min":45,"x_max":801,"o":"m 256 -558 l 256 -558 q 305 -558 340 -540 q 374 -522 396 -487 q 417 -452 425 -402 l 425 -402 l 419 -402 q 432 -475 474 -516 q 515 -558 590 -558 l 590 -558 q 660 -558 707 -521 q 754 -484 778 -423 q 801 -363 801 -291 l 801 -291 q 801 -213 782 -159 q 763 -105 730 -66 q 697 -28 656 6 l 656 6 l 641 -15 q 680 -47 710 -84 q 740 -121 757 -170 q 774 -220 774 -291 l 774 -291 q 774 -352 755 -407 q 736 -462 696 -497 q 656 -532 593 -532 l 593 -532 q 556 -532 532 -523 q 508 -514 490 -497 l 490 -497 q 459 -469 448 -422 q 436 -376 436 -311 l 436 -311 l 436 0 l 410 0 l 410 -312 q 410 -377 398 -422 q 386 -468 356 -496 l 356 -496 q 338 -513 315 -522 q 292 -532 258 -532 l 258 -532 q 194 -532 153 -498 q 112 -465 92 -409 q 72 -354 72 -288 l 72 -288 q 72 -219 89 -169 q 106 -120 136 -83 q 166 -47 204 -15 l 204 -15 l 189 6 q 148 -28 116 -67 q 83 -107 64 -160 q 45 -213 45 -288 l 45 -288 q 45 -370 71 -430 q 97 -491 145 -524 q 192 -558 256 -558 z"},"ഩ":{"ha":952,"x_min":48,"x_max":907,"o":"m 330 -558 l 330 -558 q 418 -558 466 -516 q 514 -474 530 -404 l 530 -404 l 524 -402 q 538 -475 580 -516 q 621 -558 696 -558 l 696 -558 q 766 -558 813 -521 q 860 -484 884 -423 q 907 -363 907 -291 l 907 -291 q 907 -213 888 -159 q 869 -105 836 -66 q 803 -28 762 6 l 762 6 l 747 -15 q 786 -47 816 -84 q 846 -121 863 -170 q 880 -220 880 -291 l 880 -291 q 880 -352 861 -407 q 842 -462 802 -497 q 762 -532 699 -532 l 699 -532 q 662 -532 638 -523 q 614 -514 596 -497 l 596 -497 q 565 -469 554 -422 q 542 -376 542 -311 l 542 -311 l 542 0 l 516 0 l 516 -312 q 516 -389 497 -431 q 477 -473 445 -498 l 445 -498 q 421 -516 395 -524 q 368 -532 329 -532 l 329 -532 q 250 -532 193 -492 q 135 -453 105 -385 q 74 -318 74 -232 l 74 -232 l 74 -226 q 74 -153 92 -106 q 109 -59 142 -36 q 174 -14 218 -14 l 218 -14 q 249 -14 275 -27 q 300 -40 316 -69 q 331 -99 331 -149 l 331 -149 q 331 -202 302 -239 q 272 -276 210 -276 l 210 -276 q 163 -276 122 -252 q 81 -229 58 -203 l 58 -203 l 53 -229 q 88 -267 130 -284 q 171 -302 211 -302 l 211 -302 q 251 -302 284 -285 q 317 -268 338 -234 q 358 -200 358 -149 l 358 -149 q 358 -94 339 -58 q 320 -23 289 -5 q 257 12 218 12 l 218 12 q 171 12 133 -11 q 94 -35 71 -87 q 48 -139 48 -225 l 48 -225 q 48 -324 83 -399 q 117 -474 181 -516 q 244 -558 330 -558 z"},"പ":{"ha":829,"x_min":38,"x_max":750,"o":"m 201 -327 l 201 -327 q 250 -327 287 -305 q 324 -284 345 -246 q 365 -208 365 -158 l 365 -158 q 365 -111 348 -74 q 330 -38 298 -10 l 298 -10 l 304 -26 l 724 -26 l 724 -546 l 750 -546 l 750 0 l 291 0 l 279 -21 q 311 -53 325 -85 q 338 -118 338 -157 l 338 -157 q 338 -223 301 -262 q 263 -301 201 -301 l 201 -301 q 158 -301 128 -281 q 97 -261 81 -229 q 65 -197 65 -159 l 65 -159 q 65 -109 84 -75 q 102 -42 139 -13 l 139 -13 l 123 8 q 83 -27 61 -63 q 38 -100 38 -159 l 38 -159 q 38 -205 59 -243 q 79 -281 116 -304 q 153 -327 201 -327 z"},"ഫ":{"ha":1053,"x_min":38,"x_max":984,"o":"m 201 -327 l 201 -327 q 250 -327 287 -305 q 324 -284 345 -246 q 365 -208 365 -158 l 365 -158 q 365 -111 348 -74 q 330 -38 298 -10 l 298 -10 l 304 -26 l 574 -26 l 574 0 l 291 0 l 279 -21 q 311 -53 325 -85 q 338 -118 338 -157 l 338 -157 q 338 -223 301 -262 q 263 -301 201 -301 l 201 -301 q 158 -301 128 -281 q 97 -261 81 -229 q 65 -197 65 -159 l 65 -159 q 65 -109 84 -75 q 102 -42 139 -13 l 139 -13 l 123 8 q 83 -27 61 -63 q 38 -100 38 -159 l 38 -159 q 38 -205 59 -243 q 79 -281 116 -304 q 153 -327 201 -327 z m 767 -558 l 767 -558 q 821 -558 861 -539 q 901 -521 928 -489 l 928 -489 q 957 -455 971 -407 q 984 -359 984 -288 l 984 -288 l 984 0 l 554 0 l 554 -297 q 554 -342 560 -377 q 566 -413 579 -441 q 592 -470 612 -493 l 612 -493 q 638 -523 677 -540 q 715 -558 767 -558 z m 767 -532 l 767 -532 q 723 -532 689 -518 q 654 -504 631 -476 l 631 -476 q 606 -446 593 -402 q 580 -359 580 -278 l 580 -278 l 580 -26 l 958 -26 l 958 -276 q 958 -353 946 -397 q 933 -442 908 -472 l 908 -472 q 884 -501 849 -516 q 814 -532 767 -532 z"},"ബ":{"ha":1227,"x_min":48,"x_max":1148,"o":"m 330 -558 l 330 -558 q 418 -558 466 -516 q 514 -474 530 -404 l 530 -404 l 534 -368 l 542 -269 l 542 0 l 516 0 l 516 -312 q 516 -389 497 -431 q 477 -473 445 -498 l 445 -498 q 421 -516 395 -524 q 368 -532 329 -532 l 329 -532 q 250 -532 193 -492 q 135 -453 105 -385 q 74 -318 74 -232 l 74 -232 l 74 -226 q 74 -153 92 -106 q 109 -59 142 -36 q 174 -14 218 -14 l 218 -14 q 249 -14 275 -27 q 300 -40 316 -69 q 331 -99 331 -149 l 331 -149 q 331 -202 302 -239 q 272 -276 210 -276 l 210 -276 q 163 -276 122 -252 q 81 -229 58 -203 l 58 -203 l 53 -229 q 88 -267 130 -284 q 171 -302 211 -302 l 211 -302 q 251 -302 284 -285 q 317 -268 338 -234 q 358 -200 358 -149 l 358 -149 q 358 -94 339 -58 q 320 -23 289 -5 q 257 12 218 12 l 218 12 q 171 12 133 -11 q 94 -35 71 -87 q 48 -139 48 -225 l 48 -225 q 48 -324 83 -399 q 117 -474 181 -516 q 244 -558 330 -558 z m 1122 -546 l 1148 -546 l 1148 0 l 768 0 l 758 -21 q 794 -55 822 -91 q 849 -127 865 -175 q 880 -223 880 -291 l 880 -291 q 880 -352 861 -407 q 842 -462 802 -497 q 762 -532 699 -532 l 699 -532 q 662 -532 638 -523 q 614 -514 596 -497 l 596 -497 q 565 -469 554 -422 q 542 -376 542 -311 l 542 -311 l 542 -10 l 519 -10 l 519 -274 l 521 -357 l 524 -402 q 538 -475 580 -516 q 621 -558 696 -558 l 696 -558 q 766 -558 813 -521 q 860 -484 884 -423 q 907 -363 907 -291 l 907 -291 q 907 -223 892 -173 q 877 -123 851 -86 q 824 -50 789 -20 l 789 -20 l 782 -26 l 1122 -26 l 1122 -546 z"},"ഭ":{"ha":594,"x_min":56,"x_max":554,"o":"m 362 -558 l 362 -558 q 418 -558 462 -542 q 505 -526 530 -496 q 554 -466 554 -422 l 554 -422 q 554 -402 549 -384 q 543 -367 532 -356 l 532 -356 q 519 -343 501 -336 q 482 -329 447 -329 l 447 -329 l 410 -329 q 364 -329 341 -325 q 317 -322 302 -311 l 302 -311 q 292 -304 287 -292 q 282 -281 282 -267 l 282 -267 q 282 -233 306 -218 q 330 -203 393 -203 l 393 -203 l 403 -203 q 446 -203 475 -197 q 503 -191 523 -174 l 523 -174 q 537 -163 545 -144 q 553 -126 553 -102 l 553 -102 q 553 -67 538 -41 q 522 -16 490 -2 q 457 12 407 12 l 407 12 q 377 12 346 9 q 315 6 287 -1 q 259 -9 236 -20 l 236 -20 l 247 -44 q 282 -28 323 -21 q 363 -14 407 -14 l 407 -14 q 472 -14 499 -37 q 526 -61 526 -100 l 526 -100 q 526 -144 498 -160 q 469 -177 416 -177 l 416 -177 l 401 -177 q 358 -177 331 -182 q 304 -187 286 -200 l 286 -200 q 271 -211 263 -227 q 255 -243 255 -265 l 255 -265 q 255 -288 262 -303 q 269 -318 282 -328 l 282 -328 q 302 -344 332 -349 q 362 -355 407 -355 l 407 -355 l 449 -355 q 491 -355 509 -370 q 527 -385 527 -422 l 527 -422 q 527 -473 484 -502 q 441 -532 361 -532 l 361 -532 q 267 -532 205 -490 q 143 -448 113 -376 q 83 -304 83 -215 l 83 -215 q 83 -157 90 -105 q 97 -53 110 -1 l 110 -1 l 84 4 q 71 -44 64 -103 q 56 -162 56 -214 l 56 -214 q 56 -315 92 -392 q 127 -470 196 -514 q 264 -558 362 -558 z"},"മ":{"ha":665,"x_min":65,"x_max":600,"o":"m 342 -558 l 342 -558 q 393 -558 434 -546 q 474 -534 505 -510 l 505 -510 q 536 -486 557 -450 q 578 -415 589 -365 q 600 -316 600 -249 l 600 -249 l 600 0 l 65 0 l 65 -246 q 65 -306 74 -351 q 83 -397 101 -432 q 118 -467 145 -492 l 145 -492 q 180 -524 229 -541 q 278 -558 342 -558 z m 294 -526 l 294 -526 q 254 -526 221 -512 q 188 -499 162 -473 l 162 -473 q 128 -439 110 -385 q 91 -331 91 -248 l 91 -248 l 91 -26 l 108 -26 q 191 -87 258 -151 q 325 -215 365 -279 q 404 -343 404 -403 l 404 -403 q 404 -432 394 -460 q 384 -489 360 -507 q 336 -526 294 -526 z m 431 -405 l 431 -405 q 431 -339 392 -273 q 352 -207 284 -141 q 216 -76 128 -9 l 128 -9 l 131 -23 q 165 -25 214 -25 q 263 -26 306 -26 l 306 -26 l 574 -26 l 574 -252 q 574 -337 551 -400 q 528 -464 476 -500 q 424 -536 336 -536 l 336 -536 l 332 -542 q 391 -526 411 -487 q 431 -449 431 -405 z"},"യ":{"ha":966,"x_min":43,"x_max":919,"o":"m 630 12 l 630 12 q 585 12 548 3 q 511 -7 479 -25 l 479 -25 q 477 -27 474 -28 q 471 -30 469 -31 l 469 -31 q 420 -61 385 -106 q 349 -151 331 -209 q 312 -267 312 -334 l 312 -334 q 312 -378 323 -417 q 333 -456 354 -487 l 354 -487 l 359 -494 q 374 -514 393 -528 q 412 -542 436 -550 q 459 -558 487 -558 l 487 -558 q 570 -558 617 -499 q 664 -440 664 -336 l 664 -336 q 664 -230 622 -151 q 580 -73 503 -30 l 503 -30 q 500 -29 497 -27 q 494 -25 491 -23 l 491 -23 q 459 -6 423 3 q 387 12 337 12 l 337 12 q 266 12 212 -14 q 157 -40 120 -87 q 82 -134 63 -196 q 43 -258 43 -330 l 43 -330 q 43 -406 70 -456 q 97 -507 140 -532 q 183 -558 232 -558 l 232 -558 q 288 -558 322 -536 q 355 -514 378 -489 l 378 -489 l 361 -471 q 338 -496 309 -514 q 279 -532 233 -532 l 233 -532 q 190 -532 153 -510 q 116 -489 93 -444 q 70 -399 70 -328 l 70 -328 q 70 -241 101 -169 q 131 -98 191 -56 q 250 -14 338 -14 l 338 -14 q 381 -14 411 -20 q 440 -26 467 -38 l 467 -38 q 471 -40 474 -42 q 477 -44 481 -45 l 481 -45 q 533 -71 568 -114 q 602 -158 620 -215 q 637 -272 637 -335 l 637 -335 q 637 -405 618 -448 q 598 -492 564 -512 q 530 -532 487 -532 l 487 -532 q 441 -532 408 -507 q 374 -482 357 -437 q 339 -393 339 -333 l 339 -333 q 339 -273 357 -217 q 374 -161 408 -117 q 442 -73 491 -46 l 491 -46 q 495 -45 498 -43 q 501 -41 505 -39 l 505 -39 q 531 -27 562 -20 q 592 -14 629 -14 l 629 -14 q 723 -14 781 -52 q 839 -91 866 -157 q 892 -224 892 -308 l 892 -308 q 892 -382 864 -444 q 836 -506 801 -542 l 801 -542 l 823 -557 q 866 -508 893 -445 q 919 -383 919 -309 l 919 -309 q 919 -239 902 -180 q 884 -121 848 -78 q 812 -35 758 -11 q 704 12 630 12 z"},"ര":{"ha":675,"x_min":45,"x_max":630,"o":"m 333 -558 l 333 -558 q 406 -558 462 -534 q 517 -511 555 -468 q 592 -426 611 -368 q 630 -311 630 -243 l 630 -243 q 630 -152 607 -96 q 584 -40 544 -14 q 503 12 450 12 l 450 12 q 393 12 357 -14 q 320 -41 303 -86 q 286 -132 286 -187 l 286 -187 q 286 -282 335 -331 q 384 -380 459 -380 l 459 -380 q 502 -380 534 -363 q 565 -346 588 -318 q 611 -291 626 -257 l 626 -257 l 614 -243 q 602 -269 581 -294 q 559 -320 529 -337 q 499 -354 460 -354 l 460 -354 q 387 -354 350 -309 q 313 -265 313 -189 l 313 -189 q 313 -141 327 -101 q 340 -61 371 -37 q 401 -14 452 -14 l 452 -14 q 500 -14 534 -38 q 568 -62 586 -113 q 604 -164 604 -244 l 604 -244 q 604 -255 604 -261 q 603 -267 603 -271 l 603 -271 q 603 -276 604 -281 q 604 -287 603 -291 l 603 -291 q 595 -353 566 -408 q 536 -463 480 -497 q 423 -532 333 -532 l 333 -532 q 263 -532 204 -503 q 144 -475 108 -418 q 72 -361 72 -276 l 72 -276 q 72 -215 88 -167 q 103 -120 133 -83 q 163 -46 206 -15 l 206 -15 l 191 6 q 154 -20 121 -57 q 87 -95 66 -148 q 45 -201 45 -275 l 45 -275 q 45 -331 63 -382 q 81 -433 117 -472 q 153 -512 207 -535 q 261 -558 333 -558 z"},"റ":{"ha":620,"x_min":45,"x_max":575,"o":"m 313 -558 l 313 -558 q 375 -558 424 -537 q 473 -516 507 -478 q 540 -441 558 -389 q 575 -338 575 -276 l 575 -276 q 575 -202 555 -149 q 534 -97 500 -59 q 466 -21 427 8 l 427 8 l 412 -13 q 449 -40 480 -75 q 511 -111 530 -160 q 548 -209 548 -277 l 548 -277 q 548 -347 523 -405 q 498 -463 446 -497 q 393 -532 312 -532 l 312 -532 q 231 -532 178 -497 q 125 -462 99 -403 q 72 -345 72 -276 l 72 -276 q 72 -215 88 -167 q 103 -120 133 -83 q 163 -46 206 -15 l 206 -15 l 191 6 q 154 -20 121 -57 q 87 -95 66 -148 q 45 -201 45 -275 l 45 -275 q 45 -336 63 -387 q 81 -439 116 -477 q 151 -516 201 -537 q 250 -558 313 -558 z"},"ല":{"ha":800,"x_min":72,"x_max":721,"o":"m 695 -546 l 721 -546 l 721 0 l 72 0 l 72 -317 q 72 -386 86 -428 q 99 -470 125 -498 l 125 -498 q 152 -528 193 -543 q 234 -558 284 -558 l 284 -558 q 336 -558 375 -545 q 414 -532 439 -506 l 439 -506 q 466 -478 480 -434 q 493 -390 493 -325 l 493 -325 l 493 -236 l 98 -236 l 98 -26 l 695 -26 l 695 -546 z m 284 -533 l 284 -533 q 194 -533 146 -482 q 98 -432 98 -319 l 98 -319 l 98 -262 l 467 -262 l 467 -315 q 467 -435 424 -484 q 380 -533 284 -533 z"},"ള":{"ha":661,"x_min":46,"x_max":619,"o":"m 370 -532 l 370 -532 q 286 -532 230 -511 q 174 -491 141 -459 q 107 -427 92 -391 q 76 -355 73 -325 l 73 -325 q 73 -323 73 -320 q 72 -317 72 -315 l 72 -315 q 72 -312 72 -307 q 72 -303 72 -298 l 72 -298 q 72 -224 99 -176 q 125 -128 192 -128 l 192 -128 q 246 -128 274 -162 q 301 -196 301 -247 l 301 -247 q 301 -276 291 -301 q 280 -327 257 -343 q 233 -359 192 -359 l 192 -359 q 153 -359 119 -341 q 84 -323 55 -290 l 55 -290 l 49 -314 q 64 -333 85 -349 q 106 -365 134 -375 q 161 -385 192 -385 l 192 -385 q 240 -385 270 -365 q 300 -346 314 -314 q 328 -283 328 -248 l 328 -248 q 328 -210 313 -176 q 298 -143 268 -122 q 237 -102 190 -102 l 190 -102 q 141 -102 109 -126 q 77 -150 62 -193 q 46 -237 46 -296 l 46 -296 q 46 -344 64 -391 q 82 -438 121 -475 q 159 -513 221 -535 q 282 -558 370 -558 l 370 -558 q 459 -558 511 -535 q 563 -513 586 -476 q 608 -439 608 -397 l 608 -397 q 608 -369 597 -338 q 585 -308 551 -287 q 517 -266 449 -264 l 449 -264 l 410 -265 l 410 -283 l 424 -283 q 462 -283 490 -288 q 517 -293 537 -306 l 537 -306 q 558 -320 570 -341 q 581 -363 581 -397 l 581 -397 q 581 -437 560 -467 q 538 -497 492 -514 q 446 -532 370 -532 z m 619 -141 l 619 -141 q 619 -112 612 -88 q 605 -65 589 -48 l 589 -48 q 573 -30 552 -19 q 531 -9 503 -4 q 474 0 434 0 l 434 0 l 238 0 q 187 0 156 6 q 125 11 107 30 l 107 30 q 98 40 93 54 q 88 68 88 86 l 88 86 q 88 108 96 124 q 103 139 116 150 l 116 150 q 133 163 161 169 q 188 175 234 175 l 234 175 l 601 175 l 601 201 l 227 201 q 182 201 153 194 q 123 187 100 170 l 100 170 q 81 156 71 135 q 61 114 61 86 l 61 86 q 61 63 68 45 q 75 26 88 13 l 88 13 q 102 -1 121 -9 q 139 -18 167 -22 q 194 -26 235 -26 l 235 -26 l 435 -26 q 491 -26 521 -35 q 550 -44 569 -66 l 569 -66 q 580 -80 586 -98 q 592 -117 592 -141 l 592 -141 q 592 -176 577 -199 q 561 -223 534 -237 l 534 -237 q 515 -247 491 -252 q 467 -257 432 -257 l 432 -257 l 410 -257 l 410 -268 l 449 -274 q 535 -274 577 -236 q 619 -199 619 -141 z"},"ഴ":{"ha":594,"x_min":42,"x_max":552,"o":"m 260 -410 l 260 -410 q 260 -472 299 -515 q 338 -558 406 -558 l 406 -558 q 458 -558 490 -535 q 522 -513 537 -477 q 552 -441 552 -399 l 552 -399 q 552 -335 523 -282 q 494 -230 439 -199 q 383 -169 303 -169 l 303 -169 l 296 -169 q 221 -169 164 -192 q 106 -216 74 -267 q 42 -318 42 -399 l 42 -399 q 42 -441 54 -480 q 65 -519 87 -557 l 87 -557 l 110 -544 q 88 -507 79 -472 q 69 -437 69 -400 l 69 -400 q 69 -326 97 -280 q 125 -235 176 -215 q 227 -195 297 -195 l 297 -195 l 303 -195 q 379 -195 428 -223 q 477 -251 501 -297 q 525 -344 525 -399 l 525 -399 q 525 -457 497 -494 q 469 -532 406 -532 l 406 -532 q 366 -532 340 -514 q 313 -497 300 -469 q 287 -442 287 -410 l 287 -410 q 287 -369 300 -331 q 313 -294 330 -258 q 346 -223 359 -187 q 372 -152 372 -114 l 372 -114 q 372 -84 360 -55 q 348 -26 320 -7 q 291 12 239 12 l 239 12 q 202 12 165 3 q 127 -7 95 -26 l 95 -26 l 107 -49 q 137 -32 169 -23 q 201 -14 240 -14 l 240 -14 q 296 -14 321 -41 q 345 -69 345 -112 l 345 -112 q 345 -151 332 -186 q 319 -221 303 -256 q 286 -291 273 -328 q 260 -366 260 -410 z"},"വ":{"ha":895,"x_min":45,"x_max":816,"o":"m 314 -558 l 314 -558 q 376 -558 425 -537 q 473 -516 507 -478 q 540 -441 558 -389 q 575 -338 575 -277 l 575 -277 q 575 -203 555 -152 q 535 -101 507 -68 q 478 -35 451 -15 l 451 -15 l 457 -26 l 790 -26 l 790 -546 l 816 -546 l 816 0 l 432 0 l 422 -21 q 453 -44 482 -77 q 510 -111 529 -160 q 548 -209 548 -277 l 548 -277 q 548 -347 523 -405 q 498 -463 446 -497 q 393 -532 312 -532 l 312 -532 q 231 -532 178 -497 q 125 -462 99 -403 q 72 -345 72 -276 l 72 -276 q 72 -215 88 -167 q 103 -120 133 -83 q 163 -46 206 -15 l 206 -15 l 191 6 q 154 -20 121 -57 q 87 -95 66 -148 q 45 -201 45 -275 l 45 -275 q 45 -336 63 -387 q 81 -439 116 -477 q 151 -516 201 -537 q 251 -558 314 -558 z"},"ശ":{"ha":958,"x_min":45,"x_max":913,"o":"m 637 -558 l 637 -558 q 701 -558 752 -534 q 803 -511 839 -469 q 875 -427 894 -369 q 913 -312 913 -243 l 913 -243 q 913 -152 890 -96 q 867 -40 827 -14 q 786 12 733 12 l 733 12 q 676 12 640 -14 q 604 -41 587 -86 q 569 -132 569 -187 l 569 -187 q 569 -282 618 -331 q 667 -380 742 -380 l 742 -380 q 785 -380 817 -363 q 848 -346 871 -318 q 894 -291 909 -257 l 909 -257 l 897 -243 q 885 -269 864 -294 q 842 -320 812 -337 q 782 -354 743 -354 l 743 -354 q 670 -354 633 -309 q 596 -265 596 -189 l 596 -189 q 596 -141 610 -101 q 623 -61 654 -37 q 684 -14 735 -14 l 735 -14 q 783 -14 817 -38 q 851 -62 869 -113 q 887 -164 887 -244 l 887 -244 q 887 -255 887 -261 q 886 -267 886 -271 l 886 -271 q 886 -276 887 -281 q 887 -287 886 -291 l 886 -291 q 878 -353 849 -408 q 820 -463 768 -497 q 715 -532 637 -532 l 637 -532 q 585 -532 548 -518 q 510 -505 484 -480 l 484 -480 q 450 -446 436 -396 q 421 -347 421 -259 l 421 -259 l 421 -251 q 421 -168 411 -120 q 400 -73 370 -38 l 370 -38 q 350 -14 319 -1 q 288 12 245 12 l 245 12 q 183 12 138 -20 q 93 -53 69 -114 q 45 -175 45 -258 l 45 -258 q 45 -333 64 -386 q 83 -440 116 -480 q 149 -520 190 -554 l 190 -554 l 205 -533 q 167 -501 137 -464 q 106 -427 89 -377 q 72 -328 72 -257 l 72 -257 q 72 -177 94 -123 q 116 -69 155 -41 q 193 -14 244 -14 l 244 -14 q 287 -14 313 -26 q 338 -38 355 -60 l 355 -60 q 381 -93 388 -143 q 395 -193 395 -273 l 395 -273 l 395 -283 q 395 -357 410 -407 q 425 -457 462 -494 l 462 -494 q 489 -523 534 -540 q 578 -558 637 -558 z"},"ഷ":{"ha":1067,"x_min":38,"x_max":988,"o":"m 201 -327 l 201 -327 q 250 -327 287 -305 q 324 -284 345 -246 q 365 -208 365 -158 l 365 -158 q 365 -111 348 -74 q 330 -38 298 -10 l 298 -10 l 304 -26 l 653 -26 l 652 0 l 291 0 l 279 -21 q 311 -53 325 -85 q 338 -118 338 -157 l 338 -157 q 338 -223 301 -262 q 263 -301 201 -301 l 201 -301 q 158 -301 128 -281 q 97 -261 81 -229 q 65 -197 65 -159 l 65 -159 q 65 -109 84 -75 q 102 -42 139 -13 l 139 -13 l 123 8 q 83 -27 61 -63 q 38 -100 38 -159 l 38 -159 q 38 -205 59 -243 q 79 -281 116 -304 q 153 -327 201 -327 z m 988 0 l 636 0 l 636 -372 q 636 -427 627 -462 q 618 -497 595 -515 l 595 -515 q 585 -523 571 -527 q 557 -532 540 -532 l 540 -532 q 494 -532 469 -502 q 444 -473 444 -423 l 444 -423 q 444 -378 463 -345 q 482 -313 522 -296 q 561 -279 623 -279 l 623 -279 l 637 -279 q 697 -279 745 -297 q 793 -316 832 -350 q 871 -385 903 -434 q 935 -484 963 -546 l 963 -546 l 988 -546 l 988 0 z m 538 -558 l 538 -558 q 558 -558 576 -553 q 594 -548 607 -538 l 607 -538 q 637 -516 650 -479 q 662 -443 662 -383 l 662 -383 l 662 -26 l 962 -26 l 962 -400 q 962 -414 962 -432 q 962 -450 963 -468 q 963 -487 964 -502 l 964 -502 l 969 -505 q 935 -428 888 -371 q 841 -314 780 -283 q 718 -253 640 -253 l 640 -253 l 628 -253 q 560 -253 513 -272 q 466 -292 442 -330 q 417 -368 417 -423 l 417 -423 q 417 -460 432 -490 q 446 -521 473 -539 q 500 -558 538 -558 z"},"സ":{"ha":1141,"x_min":45,"x_max":1096,"o":"m 576 -558 l 576 -558 q 615 -558 644 -545 q 673 -533 694 -510 l 694 -510 q 713 -490 724 -464 q 735 -438 741 -401 q 746 -365 746 -312 l 746 -312 l 746 -273 q 746 -193 754 -143 q 761 -93 786 -60 l 786 -60 q 803 -38 829 -26 q 854 -14 897 -14 l 897 -14 q 948 -14 987 -41 q 1026 -69 1048 -123 q 1069 -177 1069 -257 l 1069 -257 q 1069 -328 1052 -377 q 1035 -427 1005 -464 q 975 -501 936 -533 l 936 -533 l 951 -554 q 992 -520 1025 -480 q 1058 -440 1077 -386 q 1096 -333 1096 -258 l 1096 -258 q 1096 -175 1072 -114 q 1048 -53 1003 -20 q 958 12 896 12 l 896 12 q 853 12 822 -1 q 791 -14 771 -38 l 771 -38 q 751 -62 740 -90 q 729 -118 725 -158 q 720 -198 720 -255 l 720 -255 l 720 -291 q 720 -372 711 -416 q 701 -460 679 -488 l 679 -488 q 663 -509 638 -520 q 613 -532 576 -532 l 576 -532 q 548 -532 527 -524 q 506 -516 489 -501 l 489 -501 q 461 -476 449 -432 q 436 -389 436 -324 l 436 -324 l 436 0 l 410 0 l 410 -311 q 410 -376 399 -422 q 387 -469 356 -497 l 356 -497 q 338 -514 315 -523 q 291 -532 253 -532 l 253 -532 q 190 -532 150 -497 q 110 -462 91 -407 q 72 -352 72 -291 l 72 -291 q 72 -220 89 -170 q 106 -121 137 -84 q 167 -47 205 -15 l 205 -15 l 190 6 q 149 -28 116 -66 q 83 -105 64 -159 q 45 -213 45 -291 l 45 -291 q 45 -363 69 -423 q 92 -484 139 -521 q 186 -558 256 -558 l 256 -558 q 331 -558 372 -516 q 413 -475 426 -402 l 426 -402 l 420 -403 q 428 -477 469 -517 q 510 -558 576 -558 z"},"ഹ":{"ha":1113,"x_min":38,"x_max":1068,"o":"m 201 -327 l 201 -327 q 250 -327 287 -305 q 324 -284 345 -246 q 365 -208 365 -158 l 365 -158 q 365 -111 348 -74 q 330 -38 298 -10 l 298 -10 l 304 -26 l 657 -26 l 670 0 l 291 0 l 279 -21 q 311 -53 325 -85 q 338 -118 338 -157 l 338 -157 q 338 -223 301 -262 q 263 -301 201 -301 l 201 -301 q 158 -301 128 -281 q 97 -261 81 -229 q 65 -197 65 -159 l 65 -159 q 65 -109 84 -75 q 102 -42 139 -13 l 139 -13 l 123 8 q 83 -27 61 -63 q 38 -100 38 -159 l 38 -159 q 38 -205 59 -243 q 79 -281 116 -304 q 153 -327 201 -327 z m 806 -558 l 806 -558 q 868 -558 917 -537 q 966 -516 1000 -478 q 1033 -441 1051 -389 q 1068 -338 1068 -276 l 1068 -276 q 1068 -202 1047 -149 q 1026 -97 993 -59 q 959 -21 920 8 l 920 8 l 905 -13 q 942 -40 973 -75 q 1004 -111 1023 -160 q 1041 -209 1041 -277 l 1041 -277 q 1041 -347 1016 -405 q 991 -463 939 -497 q 886 -532 805 -532 l 805 -532 q 724 -532 671 -497 q 617 -462 591 -403 q 565 -345 565 -276 l 565 -276 q 565 -217 580 -170 q 595 -124 623 -87 q 651 -51 690 -21 l 690 -21 l 678 0 l 656 0 l 653 -22 q 630 -42 603 -73 q 576 -105 557 -154 q 538 -203 538 -275 l 538 -275 q 538 -336 556 -387 q 574 -439 609 -477 q 644 -516 694 -537 q 743 -558 806 -558 z"},"ഺ":{"ha":736,"x_min":25,"x_max":721,"o":"m 52 -26 l 721 -26 l 721 0 l 418 0 l 418 202 l 392 202 l 392 0 l 44 0 l 25 -26 l 224 -554 l 249 -546 l 52 -26 z"},"഻":{"ha":0,"x_min":-292,"x_max":-266,"o":"m -292 -581 l -292 -864 l -266 -864 l -266 -581 l -292 -581 z"},"഼":{"ha":0,"x_min":-220,"x_max":16,"o":"m -220 -725 l -220 -725 q -220 -777 -188 -813 q -157 -849 -103 -849 l -103 -849 q -48 -849 -16 -813 q 16 -778 16 -725 l 16 -725 q 16 -672 -16 -636 q -48 -601 -103 -601 l -103 -601 q -158 -601 -189 -637 q -220 -673 -220 -725 z m -193 -726 l -193 -726 q -193 -683 -170 -655 q -147 -627 -103 -627 l -103 -627 q -57 -627 -34 -655 q -11 -683 -11 -726 l -11 -726 q -11 -768 -34 -795 q -57 -823 -103 -823 l -103 -823 q -146 -823 -169 -795 q -193 -768 -193 -726 z"},"ഽ":{"ha":416,"x_min":-81,"x_max":497,"o":"m 351 -784 l 351 -784 q 391 -784 419 -766 q 447 -749 467 -718 q 486 -688 497 -648 l 497 -648 l 471 -643 q 460 -674 446 -700 q 432 -726 410 -742 q 387 -758 351 -758 l 351 -758 q 321 -758 300 -748 q 279 -739 264 -722 l 264 -722 q 239 -694 230 -648 q 221 -602 221 -527 l 221 -527 l 221 1 q 221 79 211 123 q 200 166 174 196 l 174 196 q 155 218 128 231 q 100 244 65 244 l 65 244 q 26 244 -2 227 q -31 209 -50 179 q -69 148 -81 108 l -81 108 l -55 103 q -44 134 -30 160 q -16 186 7 202 q 29 218 65 218 l 65 218 q 95 218 116 208 q 137 198 152 182 l 152 182 q 178 153 187 108 q 195 62 195 -13 l 195 -13 l 195 -541 q 195 -619 206 -662 q 217 -706 242 -736 l 242 -736 q 262 -759 290 -771 q 317 -784 351 -784 z"},"ാ":{"ha":450,"x_min":24,"x_max":403,"o":"m 403 -275 l 403 -275 q 403 -212 392 -159 q 380 -106 356 -68 q 332 -30 295 -9 q 257 12 206 12 l 206 12 q 165 12 135 -1 q 105 -14 84 -37 q 62 -60 48 -91 q 33 -123 24 -160 l 24 -160 l 50 -166 q 61 -121 80 -86 q 98 -52 129 -33 q 159 -14 205 -14 l 205 -14 q 267 -14 305 -47 q 342 -80 359 -139 q 376 -198 376 -275 l 376 -275 q 376 -351 359 -408 q 341 -466 305 -499 q 268 -532 211 -532 l 211 -532 q 166 -532 136 -512 q 105 -492 86 -458 q 66 -424 53 -382 l 53 -382 l 27 -388 q 37 -423 53 -454 q 69 -485 92 -508 q 114 -532 144 -545 q 174 -558 211 -558 l 211 -558 q 262 -558 299 -535 q 335 -512 358 -472 q 381 -433 392 -382 q 403 -331 403 -275 z"},"ി":{"ha":184,"x_min":-197,"x_max":105,"o":"m -56 -843 l -56 -843 q -27 -843 -2 -834 q 23 -825 42 -808 l 42 -808 q 65 -787 79 -758 q 93 -730 99 -688 q 105 -646 105 -583 l 105 -583 l 105 0 l 79 0 l 79 -565 q 79 -609 77 -650 q 74 -692 64 -726 q 53 -761 30 -784 l 30 -784 q 15 -800 -5 -808 q -26 -817 -56 -817 l -56 -817 q -91 -817 -117 -803 q -143 -789 -156 -761 q -170 -734 -170 -694 l -170 -694 q -170 -678 -168 -663 q -166 -648 -164 -636 l -164 -636 l -190 -632 q -192 -645 -194 -661 q -197 -677 -197 -694 l -197 -694 q -197 -738 -180 -771 q -164 -805 -132 -824 q -100 -843 -56 -843 z"},"ീ":{"ha":184,"x_min":-266,"x_max":105,"o":"m -110 -843 l -110 -843 q -72 -843 -38 -833 q -5 -823 20 -805 l 20 -805 q 66 -771 86 -716 q 105 -662 105 -575 l 105 -575 l 105 0 l 79 0 l 79 -549 q 79 -607 74 -650 q 69 -694 54 -726 q 39 -759 8 -783 l 8 -783 q -14 -800 -43 -809 q -73 -818 -116 -818 l -116 -818 q -148 -818 -176 -807 q -204 -796 -221 -773 q -239 -750 -239 -714 l -239 -714 q -239 -675 -217 -650 q -196 -625 -153 -625 l -153 -625 q -106 -625 -84 -651 q -63 -677 -63 -714 l -63 -714 q -63 -752 -79 -779 q -96 -807 -126 -827 l -126 -827 l -93 -830 q -67 -808 -51 -781 q -36 -755 -36 -714 l -36 -714 q -36 -683 -48 -656 q -61 -630 -86 -614 q -112 -599 -152 -599 l -152 -599 q -182 -599 -208 -612 q -234 -625 -250 -650 q -266 -676 -266 -714 l -266 -714 q -266 -753 -246 -782 q -227 -811 -192 -827 q -157 -843 -110 -843 z"},"ു":{"ha":295,"x_min":-18,"x_max":299,"o":"m 140 220 l 140 220 q 69 220 26 175 q -18 130 -18 54 l -18 54 q -18 4 2 -32 q 22 -69 58 -89 q 93 -110 139 -110 l 139 -110 q 188 -110 224 -90 q 259 -70 279 -33 q 299 4 299 54 l 299 54 q 299 104 279 142 q 259 179 223 200 q 187 220 140 220 z m 140 194 l 140 194 q 198 194 235 159 q 272 124 272 54 l 272 54 q 272 -14 236 -49 q 199 -84 139 -84 l 139 -84 q 81 -84 45 -48 q 9 -13 9 55 l 9 55 q 9 122 45 158 q 81 194 140 194 z m 86 -558 l 86 -558 q 134 -558 163 -538 q 191 -519 204 -486 q 216 -454 216 -414 l 216 -414 q 216 -350 198 -263 q 180 -176 154 -87 l 154 -87 l 129 -93 q 154 -183 172 -269 q 189 -355 189 -413 l 189 -413 q 189 -468 167 -500 q 144 -532 85 -532 l 85 -532 q 71 -532 54 -529 q 37 -527 23 -522 l 23 -522 l 16 -547 q 29 -551 49 -554 q 68 -558 86 -558 z"},"ൂ":{"ha":294,"x_min":-18,"x_max":299,"o":"m 140 220 l 140 220 q 69 220 26 175 q -18 130 -18 54 l -18 54 q -18 4 2 -32 q 22 -69 58 -89 q 93 -110 139 -110 l 139 -110 q 188 -110 224 -90 q 259 -70 279 -33 q 299 4 299 54 l 299 54 q 299 104 279 142 q 259 179 223 200 q 187 220 140 220 z m 139 -84 l 139 -84 q 78 -84 44 -52 q 9 -20 9 55 l 9 55 q 9 122 45 158 q 81 194 140 194 l 140 194 q 198 194 235 159 q 272 124 272 54 l 272 54 q 272 -21 237 -52 q 202 -84 139 -84 z m 140 85 l 140 85 q 83 85 58 57 q 32 28 32 -12 l 32 -12 q 32 -33 44 -50 q 55 -68 74 -87 l 74 -87 l 94 -81 q 73 -68 65 -50 q 57 -32 57 -15 l 57 -15 q 57 2 65 20 q 72 37 91 49 q 109 60 141 60 l 141 60 q 173 60 191 49 q 209 37 217 20 q 224 2 224 -15 l 224 -15 q 224 -32 216 -50 q 208 -68 187 -81 l 187 -81 l 207 -87 q 227 -68 238 -50 q 249 -33 249 -12 l 249 -12 q 249 15 238 37 q 227 59 203 72 q 179 85 140 85 z m 86 -558 l 86 -558 q 134 -558 163 -538 q 191 -519 204 -486 q 216 -454 216 -414 l 216 -414 q 216 -350 198 -263 q 180 -176 154 -87 l 154 -87 l 129 -93 q 154 -183 172 -269 q 189 -355 189 -413 l 189 -413 q 189 -468 167 -500 q 144 -532 85 -532 l 85 -532 q 71 -532 54 -529 q 37 -527 23 -522 l 23 -522 l 16 -547 q 29 -551 49 -554 q 68 -558 86 -558 z"},"ൃ":{"ha":188,"x_min":-132,"x_max":186,"o":"m 14 298 l 14 298 q -31 298 -63 282 q -96 265 -114 236 q -132 207 -132 169 l -132 169 q -132 112 -91 78 q -50 44 9 44 l 9 44 q 66 44 106 67 q 146 89 182 124 l 182 124 l 178 152 q 134 106 93 88 q 51 70 9 70 l 9 70 q -41 70 -72 96 q -104 121 -104 169 l -104 169 q -104 218 -73 245 q -42 272 13 272 l 13 272 q 56 272 90 255 q 123 238 142 206 q 161 173 161 125 l 161 125 q 161 92 156 61 q 150 30 137 -7 q 124 -44 101 -94 l 101 -94 q 75 -153 63 -199 q 50 -245 50 -297 l 50 -297 q 50 -365 69 -423 q 88 -482 124 -546 l 124 -546 l 155 -546 q 127 -498 110 -457 q 92 -417 85 -378 q 77 -340 77 -298 l 77 -298 q 77 -240 91 -197 q 104 -154 126 -104 l 126 -104 q 148 -53 161 -14 q 174 24 180 58 q 186 91 186 126 l 186 126 q 186 182 163 221 q 140 259 102 279 q 63 298 14 298 z"},"ൄ":{"ha":188,"x_min":-239,"x_max":185,"o":"m -34 298 l -34 298 q -93 298 -139 284 q -186 270 -212 238 q -239 206 -239 154 l -239 154 q -239 111 -214 80 q -190 48 -145 48 l -145 48 q -107 48 -88 70 q -69 91 -62 123 l -62 123 l -68 119 q -60 87 -39 68 q -19 48 14 48 l 14 48 q 40 48 58 58 q 75 68 85 85 q 95 101 100 120 q 104 139 104 157 l 104 157 l 104 174 l 78 174 l 78 160 q 78 124 64 99 q 49 74 14 74 l 14 74 q -21 74 -36 99 q -52 123 -52 161 l -52 161 l -52 174 l -78 174 l -78 161 q -78 126 -92 100 q -107 74 -144 74 l -144 74 q -178 74 -195 97 q -213 119 -213 154 l -213 154 q -213 215 -168 244 q -123 272 -33 272 l -33 272 q 65 272 112 239 q 159 206 159 124 l 159 124 q 159 91 154 61 q 149 30 137 -7 q 124 -44 101 -94 l 101 -94 q 75 -153 63 -199 q 50 -245 50 -297 l 50 -297 q 50 -365 69 -423 q 88 -482 124 -546 l 124 -546 l 155 -546 q 127 -498 110 -457 q 92 -417 85 -378 q 77 -340 77 -298 l 77 -298 q 77 -240 91 -197 q 104 -154 126 -104 l 126 -104 q 148 -53 161 -15 q 174 23 180 57 q 185 90 185 127 l 185 127 q 185 191 159 229 q 132 266 83 282 q 34 298 -34 298 z"},"െ":{"ha":659,"x_min":45,"x_max":613,"o":"m 216 12 l 216 12 q 169 12 130 -11 q 91 -35 68 -87 q 45 -139 45 -225 l 45 -225 q 45 -304 70 -365 q 94 -427 137 -470 q 179 -513 233 -535 q 286 -558 343 -558 l 343 -558 q 408 -558 459 -537 q 509 -516 544 -478 q 578 -441 596 -389 q 613 -338 613 -276 l 613 -276 q 613 -202 593 -149 q 572 -97 538 -59 q 504 -21 465 8 l 465 8 l 450 -13 q 487 -40 518 -75 q 549 -111 568 -160 q 586 -209 586 -277 l 586 -277 q 586 -347 561 -405 q 535 -463 482 -497 q 428 -532 343 -532 l 343 -532 q 270 -532 208 -494 q 146 -456 109 -387 q 71 -319 71 -226 l 71 -226 q 71 -153 89 -106 q 106 -59 139 -36 q 171 -14 215 -14 l 215 -14 q 246 -14 272 -27 q 297 -40 313 -69 q 328 -99 328 -149 l 328 -149 q 328 -202 299 -239 q 269 -276 207 -276 l 207 -276 q 160 -276 119 -252 q 78 -229 55 -203 l 55 -203 l 50 -229 q 85 -267 127 -284 q 168 -302 208 -302 l 208 -302 q 248 -302 281 -285 q 314 -268 335 -234 q 355 -200 355 -149 l 355 -149 q 355 -94 336 -58 q 317 -23 286 -5 q 254 12 216 12 z"},"േ":{"ha":538,"x_min":44,"x_max":500,"o":"m 336 12 l 336 12 q 278 12 226 -5 q 173 -22 132 -57 q 91 -92 68 -146 q 44 -201 44 -276 l 44 -276 q 44 -350 70 -403 q 95 -456 138 -490 q 180 -525 232 -541 q 283 -558 335 -558 l 335 -558 q 391 -558 428 -541 q 464 -525 482 -496 q 500 -468 500 -431 l 500 -431 q 500 -392 486 -365 q 471 -339 447 -325 q 422 -312 392 -312 l 392 -312 q 351 -312 324 -328 q 297 -344 285 -371 q 272 -399 272 -433 l 272 -433 q 272 -468 286 -496 q 300 -524 326 -547 l 326 -547 l 357 -544 q 331 -524 315 -495 q 299 -467 299 -433 l 299 -433 q 299 -390 321 -364 q 342 -338 391 -338 l 391 -338 q 432 -338 453 -363 q 473 -388 473 -431 l 473 -431 q 473 -481 437 -506 q 401 -532 346 -532 l 346 -532 q 341 -532 335 -532 q 328 -532 320 -532 l 320 -532 q 253 -531 196 -500 q 139 -469 105 -412 q 71 -356 71 -276 l 71 -276 q 71 -196 99 -141 q 127 -86 180 -55 q 233 -24 308 -14 l 308 -14 q 319 -14 326 -14 q 333 -14 346 -14 l 346 -14 q 378 -14 406 -25 q 434 -36 452 -59 q 469 -82 469 -117 l 469 -117 q 469 -156 448 -181 q 426 -206 383 -206 l 383 -206 q 336 -206 315 -178 q 293 -151 293 -117 l 293 -117 q 293 -83 308 -56 q 322 -29 347 -7 l 347 -7 l 314 -6 q 292 -28 279 -55 q 266 -83 266 -117 l 266 -117 q 266 -146 279 -172 q 292 -199 318 -215 q 344 -232 382 -232 l 382 -232 q 413 -232 439 -219 q 464 -206 480 -180 q 496 -155 496 -117 l 496 -117 q 496 -78 477 -49 q 457 -20 421 -4 q 385 12 336 12 z"},"ൈ":{"ha":1318,"x_min":45,"x_max":1272,"o":"m 216 12 l 216 12 q 169 12 130 -11 q 91 -35 68 -87 q 45 -139 45 -225 l 45 -225 q 45 -304 70 -365 q 94 -427 137 -470 q 179 -513 233 -535 q 286 -558 343 -558 l 343 -558 q 408 -558 459 -537 q 509 -516 544 -478 q 578 -441 596 -389 q 613 -338 613 -276 l 613 -276 q 613 -202 593 -149 q 572 -97 538 -59 q 504 -21 465 8 l 465 8 l 450 -13 q 487 -40 518 -75 q 549 -111 568 -160 q 586 -209 586 -277 l 586 -277 q 586 -347 561 -405 q 535 -463 482 -497 q 428 -532 343 -532 l 343 -532 q 270 -532 208 -494 q 146 -456 109 -387 q 71 -319 71 -226 l 71 -226 q 71 -153 89 -106 q 106 -59 139 -36 q 171 -14 215 -14 l 215 -14 q 246 -14 272 -27 q 297 -40 313 -69 q 328 -99 328 -149 l 328 -149 q 328 -202 299 -239 q 269 -276 207 -276 l 207 -276 q 160 -276 119 -252 q 78 -229 55 -203 l 55 -203 l 50 -229 q 85 -267 127 -284 q 168 -302 208 -302 l 208 -302 q 248 -302 281 -285 q 314 -268 335 -234 q 355 -200 355 -149 l 355 -149 q 355 -94 336 -58 q 317 -23 286 -5 q 254 12 216 12 z m 875 12 l 875 12 q 828 12 789 -11 q 750 -35 727 -87 q 704 -139 704 -225 l 704 -225 q 704 -304 729 -365 q 753 -427 796 -470 q 838 -513 892 -535 q 945 -558 1002 -558 l 1002 -558 q 1067 -558 1118 -537 q 1168 -516 1203 -478 q 1237 -441 1255 -389 q 1272 -338 1272 -276 l 1272 -276 q 1272 -202 1252 -149 q 1231 -97 1197 -59 q 1163 -21 1124 8 l 1124 8 l 1109 -13 q 1146 -40 1177 -75 q 1208 -111 1227 -160 q 1245 -209 1245 -277 l 1245 -277 q 1245 -347 1220 -405 q 1194 -463 1141 -497 q 1087 -532 1002 -532 l 1002 -532 q 929 -532 867 -494 q 805 -456 768 -387 q 730 -319 730 -226 l 730 -226 q 730 -153 748 -106 q 765 -59 798 -36 q 830 -14 874 -14 l 874 -14 q 905 -14 931 -27 q 956 -40 972 -69 q 987 -99 987 -149 l 987 -149 q 987 -202 958 -239 q 928 -276 866 -276 l 866 -276 q 819 -276 778 -252 q 737 -229 714 -203 l 714 -203 l 709 -229 q 744 -267 786 -284 q 827 -302 867 -302 l 867 -302 q 907 -302 940 -285 q 973 -268 994 -234 q 1014 -200 1014 -149 l 1014 -149 q 1014 -94 995 -58 q 976 -23 945 -5 q 913 12 875 12 z"},"ൊ":{"ha":1239,"x_min":45,"x_max":1192,"o":"m 216 12 l 216 12 q 169 12 130 -11 q 91 -35 68 -87 q 45 -139 45 -225 l 45 -225 q 45 -304 70 -365 q 94 -427 137 -470 q 179 -513 233 -535 q 286 -558 343 -558 l 343 -558 q 408 -558 459 -537 q 509 -516 544 -478 q 578 -441 596 -389 q 613 -338 613 -276 l 613 -276 q 613 -202 593 -149 q 572 -97 538 -59 q 504 -21 465 8 l 465 8 l 450 -13 q 487 -40 518 -75 q 549 -111 568 -160 q 586 -209 586 -277 l 586 -277 q 586 -347 561 -405 q 535 -463 482 -497 q 428 -532 343 -532 l 343 -532 q 270 -532 208 -494 q 146 -456 109 -387 q 71 -319 71 -226 l 71 -226 q 71 -153 89 -106 q 106 -59 139 -36 q 171 -14 215 -14 l 215 -14 q 246 -14 272 -27 q 297 -40 313 -69 q 328 -99 328 -149 l 328 -149 q 328 -202 299 -239 q 269 -276 207 -276 l 207 -276 q 160 -276 119 -252 q 78 -229 55 -203 l 55 -203 l 50 -229 q 85 -267 127 -284 q 168 -302 208 -302 l 208 -302 q 248 -302 281 -285 q 314 -268 335 -234 q 355 -200 355 -149 l 355 -149 q 355 -94 336 -58 q 317 -23 286 -5 q 254 12 216 12 z m 722 -267 l 722 -267 q 707 -267 702 -276 q 697 -285 697 -298 l 697 -298 q 697 -310 702 -319 q 707 -329 722 -329 l 722 -329 q 740 -329 745 -319 q 749 -310 749 -298 l 749 -298 q 749 -285 745 -276 q 740 -267 722 -267 z m 1192 -275 l 1192 -275 q 1192 -212 1181 -159 q 1169 -106 1145 -68 q 1121 -30 1084 -9 q 1046 12 995 12 l 995 12 q 954 12 924 -1 q 894 -14 873 -37 q 851 -60 837 -91 q 822 -123 813 -160 l 813 -160 l 839 -166 q 850 -121 869 -86 q 887 -52 918 -33 q 948 -14 994 -14 l 994 -14 q 1056 -14 1094 -47 q 1131 -80 1148 -139 q 1165 -198 1165 -275 l 1165 -275 q 1165 -351 1148 -408 q 1130 -466 1094 -499 q 1057 -532 1000 -532 l 1000 -532 q 955 -532 925 -512 q 894 -492 875 -458 q 855 -424 842 -382 l 842 -382 l 816 -388 q 826 -423 842 -454 q 858 -485 881 -508 q 903 -532 933 -545 q 963 -558 1000 -558 l 1000 -558 q 1051 -558 1088 -535 q 1124 -512 1147 -472 q 1170 -433 1181 -382 q 1192 -331 1192 -275 z"},"ോ":{"ha":1106,"x_min":45,"x_max":1059,"o":"m 337 12 l 337 12 q 279 12 227 -5 q 174 -22 133 -57 q 92 -92 69 -146 q 45 -201 45 -276 l 45 -276 q 45 -350 71 -403 q 96 -456 139 -490 q 181 -525 233 -541 q 284 -558 336 -558 l 336 -558 q 392 -558 429 -541 q 465 -525 483 -496 q 501 -468 501 -431 l 501 -431 q 501 -392 487 -365 q 472 -339 448 -325 q 423 -312 393 -312 l 393 -312 q 352 -312 325 -328 q 298 -344 286 -371 q 273 -399 273 -433 l 273 -433 q 273 -468 287 -496 q 301 -524 327 -547 l 327 -547 l 358 -544 q 332 -524 316 -495 q 300 -467 300 -433 l 300 -433 q 300 -390 322 -364 q 343 -338 392 -338 l 392 -338 q 433 -338 454 -363 q 474 -388 474 -431 l 474 -431 q 474 -481 438 -506 q 402 -532 347 -532 l 347 -532 q 342 -532 336 -532 q 329 -532 321 -532 l 321 -532 q 254 -531 197 -500 q 140 -469 106 -412 q 72 -356 72 -276 l 72 -276 q 72 -196 100 -141 q 128 -86 181 -55 q 234 -24 309 -14 l 309 -14 q 320 -14 327 -14 q 334 -14 347 -14 l 347 -14 q 379 -14 407 -25 q 435 -36 453 -59 q 470 -82 470 -117 l 470 -117 q 470 -156 449 -181 q 427 -206 384 -206 l 384 -206 q 337 -206 316 -178 q 294 -151 294 -117 l 294 -117 q 294 -83 309 -56 q 323 -29 348 -7 l 348 -7 l 315 -6 q 293 -28 280 -55 q 267 -83 267 -117 l 267 -117 q 267 -146 280 -172 q 293 -199 319 -215 q 345 -232 383 -232 l 383 -232 q 414 -232 440 -219 q 465 -206 481 -180 q 497 -155 497 -117 l 497 -117 q 497 -78 478 -49 q 458 -20 422 -4 q 386 12 337 12 z m 589 -267 l 589 -267 q 574 -267 569 -276 q 564 -285 564 -298 l 564 -298 q 564 -310 569 -319 q 574 -329 589 -329 l 589 -329 q 607 -329 612 -319 q 616 -310 616 -298 l 616 -298 q 616 -285 612 -276 q 607 -267 589 -267 z m 1059 -275 l 1059 -275 q 1059 -212 1048 -159 q 1036 -106 1012 -68 q 988 -30 951 -9 q 913 12 862 12 l 862 12 q 821 12 791 -1 q 761 -14 740 -37 q 718 -60 704 -91 q 689 -123 680 -160 l 680 -160 l 706 -166 q 717 -121 736 -86 q 754 -52 785 -33 q 815 -14 861 -14 l 861 -14 q 923 -14 961 -47 q 998 -80 1015 -139 q 1032 -198 1032 -275 l 1032 -275 q 1032 -351 1015 -408 q 997 -466 961 -499 q 924 -532 867 -532 l 867 -532 q 822 -532 792 -512 q 761 -492 742 -458 q 722 -424 709 -382 l 709 -382 l 683 -388 q 693 -423 709 -454 q 725 -485 748 -508 q 770 -532 800 -545 q 830 -558 867 -558 l 867 -558 q 918 -558 955 -535 q 991 -512 1014 -472 q 1037 -433 1048 -382 q 1059 -331 1059 -275 z"},"ൌ":{"ha":1493,"x_min":45,"x_max":1446,"o":"m 216 12 l 216 12 q 169 12 130 -11 q 91 -35 68 -87 q 45 -139 45 -225 l 45 -225 q 45 -304 70 -365 q 94 -427 137 -470 q 179 -513 233 -535 q 286 -558 343 -558 l 343 -558 q 408 -558 459 -537 q 509 -516 544 -478 q 578 -441 596 -389 q 613 -338 613 -276 l 613 -276 q 613 -202 593 -149 q 572 -97 538 -59 q 504 -21 465 8 l 465 8 l 450 -13 q 487 -40 518 -75 q 549 -111 568 -160 q 586 -209 586 -277 l 586 -277 q 586 -347 561 -405 q 535 -463 482 -497 q 428 -532 343 -532 l 343 -532 q 270 -532 208 -494 q 146 -456 109 -387 q 71 -319 71 -226 l 71 -226 q 71 -153 89 -106 q 106 -59 139 -36 q 171 -14 215 -14 l 215 -14 q 246 -14 272 -27 q 297 -40 313 -69 q 328 -99 328 -149 l 328 -149 q 328 -202 299 -239 q 269 -276 207 -276 l 207 -276 q 160 -276 119 -252 q 78 -229 55 -203 l 55 -203 l 50 -229 q 85 -267 127 -284 q 168 -302 208 -302 l 208 -302 q 248 -302 281 -285 q 314 -268 335 -234 q 355 -200 355 -149 l 355 -149 q 355 -94 336 -58 q 317 -23 286 -5 q 254 12 216 12 z m 722 -267 l 722 -267 q 707 -267 702 -276 q 697 -285 697 -298 l 697 -298 q 697 -310 702 -319 q 707 -329 722 -329 l 722 -329 q 740 -329 745 -319 q 749 -310 749 -298 l 749 -298 q 749 -285 745 -276 q 740 -267 722 -267 z m 1272 -558 l 1272 -558 q 1329 -558 1368 -526 q 1406 -494 1426 -436 q 1446 -379 1446 -300 l 1446 -300 q 1446 -196 1420 -126 q 1393 -57 1340 -22 q 1286 12 1203 12 l 1203 12 q 1145 12 1103 1 q 1060 -11 1018 -32 l 1018 -32 l 1032 -55 q 1075 -33 1115 -23 q 1154 -14 1203 -14 l 1203 -14 q 1285 -14 1332 -48 q 1379 -83 1399 -147 q 1419 -211 1419 -300 l 1419 -300 q 1419 -416 1380 -474 q 1340 -532 1272 -532 l 1272 -532 q 1241 -532 1220 -522 q 1199 -513 1185 -496 l 1185 -496 q 1163 -470 1155 -428 q 1146 -387 1146 -339 l 1146 -339 l 1146 -254 l 1120 -254 l 1120 -338 q 1120 -399 1110 -438 q 1099 -477 1076 -500 l 1076 -500 q 1061 -515 1040 -523 q 1019 -532 992 -532 l 992 -532 q 927 -532 894 -487 q 860 -443 860 -376 l 860 -376 q 860 -345 865 -316 q 870 -288 879 -255 l 879 -255 l 854 -250 q 844 -280 839 -313 q 833 -346 833 -377 l 833 -377 q 833 -428 852 -469 q 870 -510 906 -534 q 941 -558 992 -558 l 992 -558 q 1048 -558 1086 -526 q 1124 -494 1137 -415 l 1137 -415 l 1128 -411 q 1136 -489 1177 -523 q 1217 -558 1272 -558 z"},"്":{"ha":0,"x_min":-256,"x_max":52,"o":"m -106 -601 l -106 -601 q -151 -601 -185 -617 q -219 -634 -237 -667 q -256 -700 -256 -751 l -256 -751 q -256 -761 -254 -776 q -253 -792 -250 -805 l -250 -805 l -224 -800 q -227 -788 -228 -775 q -230 -763 -230 -751 l -230 -751 q -230 -703 -213 -676 q -197 -649 -169 -638 q -141 -627 -106 -627 l -106 -627 q -69 -627 -39 -638 q -10 -650 8 -676 q 26 -703 26 -749 l 26 -749 q 26 -763 24 -775 q 22 -788 18 -800 l 18 -800 l 44 -805 q 47 -794 50 -778 q 52 -763 52 -750 l 52 -750 q 52 -700 32 -666 q 11 -633 -24 -617 q -60 -601 -106 -601 z"},"ൎ":{"ha":0,"x_min":-295,"x_max":-261,"o":"m -295 -796 l -261 -796 l -266 -624 l -290 -624 l -295 -796 z"},"൏":{"ha":1154,"x_min":52,"x_max":1105,"o":"m 533 -558 l 533 -558 q 621 -558 669 -516 q 717 -474 733 -404 l 733 -404 l 727 -402 q 741 -475 783 -516 q 824 -558 899 -558 l 899 -558 q 969 -558 1015 -516 q 1060 -475 1083 -404 q 1105 -333 1105 -245 l 1105 -245 q 1105 -90 1052 14 q 999 118 883 171 q 767 223 579 223 l 579 223 q 452 223 362 197 q 271 170 211 124 q 151 78 116 20 q 81 -39 67 -103 q 52 -167 52 -230 l 52 -230 q 52 -310 73 -381 q 93 -452 129 -526 l 129 -526 l 153 -515 q 118 -445 99 -373 q 79 -301 79 -230 l 79 -230 q 79 -173 92 -113 q 104 -53 136 3 q 167 58 224 102 q 281 146 369 172 q 457 197 583 197 l 583 197 q 711 197 805 171 q 898 145 959 92 q 1019 38 1049 -44 q 1078 -127 1078 -241 l 1078 -241 q 1078 -318 1061 -384 q 1043 -450 1004 -491 q 965 -532 902 -532 l 902 -532 q 865 -532 841 -523 q 817 -514 799 -497 l 799 -497 q 768 -469 757 -422 q 745 -376 745 -311 l 745 -311 l 745 0 l 719 0 l 719 -312 q 719 -389 700 -431 q 680 -473 648 -498 l 648 -498 q 624 -516 598 -524 q 571 -532 532 -532 l 532 -532 q 453 -532 396 -492 q 338 -453 308 -385 q 277 -318 277 -232 l 277 -232 l 277 -226 q 277 -153 295 -106 q 312 -59 345 -36 q 377 -14 421 -14 l 421 -14 q 452 -14 478 -27 q 503 -40 519 -69 q 534 -99 534 -149 l 534 -149 q 534 -202 505 -239 q 475 -276 413 -276 l 413 -276 q 366 -276 325 -252 q 284 -229 261 -203 l 261 -203 l 256 -229 q 291 -267 333 -284 q 374 -302 414 -302 l 414 -302 q 454 -302 487 -285 q 520 -268 541 -234 q 561 -200 561 -149 l 561 -149 q 561 -94 542 -58 q 523 -23 492 -5 q 460 12 421 12 l 421 12 q 374 12 336 -11 q 297 -35 274 -87 q 251 -139 251 -225 l 251 -225 q 251 -324 286 -399 q 320 -474 384 -516 q 447 -558 533 -558 z"},"ൔ":{"ha":588,"x_min":65,"x_max":577,"o":"m 148 -792 l 148 -792 q 176 -792 197 -785 q 218 -778 233 -766 l 233 -766 q 256 -748 267 -720 q 277 -692 277 -642 l 277 -642 l 277 -493 q 277 -437 283 -391 q 289 -346 306 -305 q 323 -264 357 -221 l 357 -221 l 364 -214 q 399 -176 451 -130 q 502 -84 577 -25 l 577 -25 l 564 0 l 65 0 l 65 -245 q 65 -292 71 -332 q 76 -373 89 -408 q 101 -444 123 -475 l 123 -475 q 149 -511 190 -534 q 231 -558 283 -558 l 283 -558 q 344 -558 381 -532 q 418 -507 435 -469 q 451 -431 451 -391 l 451 -391 q 451 -340 428 -293 q 405 -246 363 -202 l 363 -202 l 356 -194 q 327 -163 291 -132 q 254 -101 214 -71 q 173 -42 131 -12 l 131 -12 l 128 -22 q 157 -24 188 -25 q 219 -26 264 -26 l 264 -26 l 455 -26 q 476 -26 496 -26 q 515 -26 533 -25 q 551 -25 565 -23 l 565 -23 l 546 -21 q 483 -69 434 -112 q 385 -155 346 -196 l 346 -196 l 339 -204 q 306 -247 287 -288 q 267 -330 259 -377 q 251 -425 251 -484 l 251 -484 l 251 -637 q 251 -684 243 -708 q 235 -732 217 -746 l 217 -746 q 205 -755 189 -760 q 172 -766 148 -766 l 148 -766 q 127 -766 109 -763 q 90 -761 73 -756 l 73 -756 l 66 -781 q 85 -786 107 -789 q 128 -792 148 -792 z m 91 -237 l 91 -26 l 108 -26 q 156 -61 199 -92 q 241 -124 277 -154 q 312 -185 340 -214 l 340 -214 l 346 -220 q 383 -261 404 -303 q 424 -345 424 -391 l 424 -391 q 424 -427 410 -459 q 396 -492 365 -512 q 334 -533 283 -533 l 283 -533 q 239 -533 203 -512 q 167 -492 146 -463 l 146 -463 q 127 -437 115 -405 q 103 -373 97 -332 q 91 -291 91 -237 l 91 -237 z"},"ൕ":{"ha":953,"x_min":45,"x_max":918,"o":"m 639 12 l 639 12 q 607 12 580 8 q 552 4 529 -4 q 505 -12 483 -24 l 483 -24 q 481 -26 478 -27 q 475 -29 473 -30 l 473 -30 q 424 -60 388 -105 q 352 -150 333 -208 q 314 -267 314 -334 l 314 -334 q 314 -378 324 -417 q 334 -457 356 -487 l 356 -487 l 361 -494 q 375 -514 394 -528 q 413 -543 437 -550 q 461 -558 489 -558 l 489 -558 q 572 -558 619 -499 q 666 -440 666 -336 l 666 -336 q 666 -266 647 -207 q 628 -148 593 -103 q 557 -59 505 -30 l 505 -30 q 502 -29 499 -27 q 496 -25 493 -23 l 493 -23 q 461 -6 425 3 q 389 12 339 12 l 339 12 q 268 12 214 -14 q 159 -40 122 -87 q 84 -134 65 -196 q 45 -258 45 -330 l 45 -330 q 45 -406 72 -456 q 99 -507 142 -532 q 185 -558 234 -558 l 234 -558 q 290 -558 324 -536 q 357 -514 380 -489 l 380 -489 l 363 -471 q 340 -496 311 -514 q 281 -532 235 -532 l 235 -532 q 192 -532 155 -510 q 118 -489 95 -444 q 72 -399 72 -328 l 72 -328 q 72 -241 103 -169 q 133 -98 193 -56 q 252 -14 340 -14 l 340 -14 q 383 -14 413 -20 q 442 -26 469 -38 l 469 -38 q 473 -40 476 -42 q 479 -44 483 -45 l 483 -45 q 535 -71 570 -114 q 604 -158 622 -215 q 639 -272 639 -335 l 639 -335 q 639 -405 620 -448 q 600 -492 566 -512 q 532 -532 489 -532 l 489 -532 q 443 -532 410 -507 q 376 -482 359 -437 q 341 -393 341 -333 l 341 -333 q 341 -273 359 -217 q 377 -161 411 -117 q 445 -73 494 -46 l 494 -46 q 498 -45 501 -43 q 504 -41 508 -39 l 508 -39 q 534 -27 566 -20 q 598 -14 637 -14 l 637 -14 q 731 -14 784 -45 q 837 -76 859 -129 q 881 -183 881 -248 l 881 -248 q 881 -291 870 -330 q 858 -369 837 -407 q 815 -446 784 -486 l 784 -486 q 755 -524 735 -554 q 715 -584 705 -610 q 695 -637 695 -665 l 695 -665 q 695 -695 709 -724 q 722 -754 752 -773 q 781 -792 829 -792 l 829 -792 q 851 -792 874 -788 q 897 -784 918 -777 l 918 -777 l 910 -752 q 889 -759 869 -762 q 849 -766 828 -766 l 828 -766 q 773 -766 748 -736 q 722 -706 722 -665 l 722 -665 q 722 -641 731 -618 q 739 -596 758 -568 q 776 -540 806 -500 l 806 -500 q 835 -462 858 -423 q 881 -384 895 -341 q 908 -298 908 -248 l 908 -248 q 908 -204 899 -164 q 889 -125 870 -92 q 850 -60 818 -36 q 786 -13 742 0 q 698 12 639 12 z"},"ൖ":{"ha":616,"x_min":42,"x_max":574,"o":"m 131 -150 l 131 -150 q 131 -116 142 -85 q 152 -54 180 -34 q 208 -14 262 -14 l 262 -14 q 318 -14 343 -41 q 367 -69 367 -112 l 367 -112 q 367 -151 354 -186 q 341 -221 325 -256 q 308 -291 295 -328 q 282 -366 282 -410 l 282 -410 q 282 -451 300 -484 q 317 -518 350 -538 q 383 -558 428 -558 l 428 -558 q 480 -558 512 -535 q 544 -513 559 -477 q 574 -441 574 -399 l 574 -399 q 574 -335 545 -282 q 515 -230 457 -199 q 398 -169 311 -169 l 311 -169 l 304 -169 q 253 -169 210 -179 q 167 -190 133 -212 l 133 -212 l 121 -220 q 96 -239 79 -265 q 61 -291 52 -324 q 42 -358 42 -399 l 42 -399 q 42 -441 54 -480 q 65 -519 87 -557 l 87 -557 l 110 -544 q 88 -507 79 -472 q 69 -437 69 -400 l 69 -400 q 69 -347 85 -308 q 101 -270 131 -244 l 131 -244 l 139 -239 q 170 -217 211 -206 q 252 -195 303 -195 l 303 -195 l 311 -195 q 394 -195 446 -223 q 498 -251 523 -297 q 547 -344 547 -399 l 547 -399 q 547 -457 519 -494 q 491 -532 428 -532 l 428 -532 q 388 -532 362 -514 q 335 -497 322 -469 q 309 -442 309 -410 l 309 -410 q 309 -369 322 -331 q 335 -294 352 -258 q 368 -223 381 -187 q 394 -152 394 -114 l 394 -114 q 394 -92 388 -69 q 381 -47 366 -28 q 351 -10 326 1 q 300 12 261 12 l 261 12 q 206 12 172 -9 q 137 -30 121 -66 q 104 -103 104 -150 l 104 -150 q 104 -189 118 -230 q 132 -272 157 -321 q 182 -371 215 -431 l 215 -431 q 251 -497 269 -538 q 287 -579 293 -607 q 299 -636 299 -664 l 299 -664 q 299 -711 275 -738 q 251 -766 196 -766 l 196 -766 q 169 -766 148 -763 q 127 -760 110 -755 l 110 -755 l 103 -780 q 120 -785 145 -788 q 170 -792 196 -792 l 196 -792 q 242 -792 271 -774 q 299 -757 313 -728 q 326 -699 326 -664 l 326 -664 q 326 -642 323 -618 q 319 -595 310 -567 q 300 -539 283 -503 q 266 -467 238 -418 l 238 -418 q 210 -369 190 -330 q 170 -292 157 -260 q 144 -228 138 -201 q 131 -175 131 -150 z"},"ൗ":{"ha":702,"x_min":42,"x_max":655,"o":"m 481 -558 l 481 -558 q 538 -558 577 -526 q 615 -494 635 -436 q 655 -379 655 -300 l 655 -300 q 655 -196 629 -126 q 602 -57 549 -22 q 495 12 412 12 l 412 12 q 354 12 312 1 q 269 -11 227 -32 l 227 -32 l 241 -55 q 284 -33 324 -23 q 363 -14 412 -14 l 412 -14 q 494 -14 541 -48 q 588 -83 608 -147 q 628 -211 628 -300 l 628 -300 q 628 -416 589 -474 q 549 -532 481 -532 l 481 -532 q 450 -532 429 -522 q 408 -513 394 -496 l 394 -496 q 372 -470 364 -428 q 355 -387 355 -339 l 355 -339 l 355 -254 l 329 -254 l 329 -338 q 329 -399 319 -438 q 308 -477 285 -500 l 285 -500 q 270 -515 249 -523 q 228 -532 201 -532 l 201 -532 q 136 -532 103 -487 q 69 -443 69 -376 l 69 -376 q 69 -345 74 -316 q 79 -288 88 -255 l 88 -255 l 63 -250 q 53 -280 48 -313 q 42 -346 42 -377 l 42 -377 q 42 -428 61 -469 q 79 -510 115 -534 q 150 -558 201 -558 l 201 -558 q 257 -558 295 -526 q 333 -494 346 -415 l 346 -415 l 337 -411 q 345 -489 386 -523 q 426 -558 481 -558 z"},"൘":{"ha":1134,"x_min":45,"x_max":1083,"o":"m 570 12 l 570 12 q 494 12 455 -32 q 415 -77 404 -145 l 404 -145 l 410 -144 q 398 -69 357 -28 q 316 12 248 12 l 248 12 q 186 12 141 -21 q 95 -55 70 -116 q 45 -177 45 -258 l 45 -258 q 45 -333 64 -386 q 83 -439 116 -478 q 148 -518 189 -552 l 189 -552 l 204 -531 q 166 -499 136 -462 q 106 -426 89 -377 q 72 -328 72 -258 l 72 -258 q 72 -193 91 -137 q 110 -81 150 -47 q 189 -14 250 -14 l 250 -14 q 278 -14 302 -23 q 325 -33 342 -50 l 342 -50 q 371 -79 383 -124 q 395 -170 395 -234 l 395 -234 l 395 -546 l 421 -546 l 421 -230 q 421 -171 430 -131 q 439 -92 461 -63 l 461 -63 q 478 -41 505 -27 q 531 -14 567 -14 l 567 -14 q 606 -14 632 -27 q 658 -41 675 -63 l 675 -63 q 695 -91 704 -129 q 713 -167 713 -231 l 713 -231 l 713 -546 l 739 -546 l 739 -235 l 730 -143 q 723 -70 681 -29 q 638 12 570 12 z m 888 12 l 888 12 q 817 12 776 -29 q 735 -71 722 -144 l 722 -144 l 725 -224 l 725 -536 l 739 -536 l 739 -226 q 739 -165 751 -121 q 762 -77 793 -48 l 793 -48 q 811 -32 834 -23 q 857 -14 887 -14 l 887 -14 q 945 -14 982 -50 q 1019 -86 1038 -153 q 1056 -220 1056 -312 l 1056 -312 q 1056 -422 1031 -506 q 1005 -590 960 -649 q 915 -708 856 -745 q 796 -782 728 -799 q 659 -817 587 -817 l 587 -817 q 517 -817 456 -809 q 394 -802 347 -791 l 347 -791 l 343 -816 q 375 -824 413 -830 q 450 -836 494 -839 q 538 -843 587 -843 l 587 -843 q 663 -843 735 -824 q 807 -806 870 -766 q 933 -727 981 -664 q 1029 -602 1056 -514 q 1083 -427 1083 -312 l 1083 -312 q 1083 -212 1061 -139 q 1039 -67 996 -27 q 952 12 888 12 z"},"൙":{"ha":1010,"x_min":45,"x_max":988,"o":"m 333 -558 l 333 -558 q 408 -558 464 -533 q 520 -509 557 -465 q 594 -421 612 -362 q 630 -303 630 -234 l 630 -234 q 630 -143 608 -89 q 586 -35 545 -11 q 504 12 448 12 l 448 12 q 396 12 363 -10 q 329 -33 313 -68 q 297 -103 297 -142 l 297 -142 q 297 -176 309 -202 q 320 -228 340 -247 l 340 -247 q 362 -268 392 -280 q 422 -292 463 -297 q 504 -303 557 -303 l 557 -303 l 572 -303 l 572 -277 l 554 -277 q 488 -277 438 -267 q 388 -258 359 -230 l 359 -230 q 342 -214 333 -191 q 324 -169 324 -142 l 324 -142 q 324 -83 357 -48 q 390 -14 449 -14 l 449 -14 q 503 -14 537 -37 q 571 -60 587 -108 q 603 -157 603 -234 l 603 -234 q 603 -249 603 -259 q 602 -269 601 -279 l 601 -279 l 600 -290 q 591 -364 559 -418 q 526 -472 470 -502 q 414 -532 333 -532 l 333 -532 q 263 -532 204 -503 q 144 -475 108 -418 q 72 -361 72 -276 l 72 -276 q 72 -215 88 -167 q 103 -120 133 -83 q 163 -46 206 -15 l 206 -15 l 191 6 q 154 -20 121 -57 q 87 -95 66 -148 q 45 -201 45 -275 l 45 -275 q 45 -331 63 -382 q 81 -433 117 -472 q 153 -512 207 -535 q 261 -558 333 -558 z m 858 -546 l 858 -546 q 902 -546 931 -527 q 959 -508 974 -478 q 988 -449 988 -415 l 988 -415 q 988 -385 979 -361 q 970 -337 953 -320 l 953 -320 q 936 -303 914 -293 q 892 -284 866 -280 q 839 -277 808 -277 l 808 -277 l 563 -277 l 563 -303 l 807 -303 q 856 -303 884 -310 q 911 -317 929 -333 l 929 -333 q 944 -347 953 -366 q 961 -386 961 -414 l 961 -414 q 961 -461 935 -490 q 908 -520 858 -520 l 858 -520 q 802 -520 773 -487 q 744 -454 744 -400 l 744 -400 q 744 -365 754 -338 q 763 -312 777 -288 l 777 -288 l 750 -283 q 734 -312 726 -339 q 717 -366 717 -401 l 717 -401 q 717 -447 736 -479 q 754 -512 786 -529 q 818 -546 858 -546 z"},"൚":{"ha":1006,"x_min":45,"x_max":941,"o":"m 683 -558 l 683 -558 q 734 -558 775 -546 q 815 -534 846 -510 l 846 -510 q 877 -486 898 -450 q 919 -415 930 -365 q 941 -316 941 -249 l 941 -249 l 941 0 l 449 0 l 449 -26 q 532 -87 599 -151 q 666 -215 706 -279 q 745 -343 745 -403 l 745 -403 q 745 -432 735 -460 q 725 -489 701 -507 q 677 -526 635 -526 l 635 -526 q 595 -526 563 -512 q 531 -499 505 -473 l 505 -473 q 466 -434 451 -380 q 436 -326 436 -250 l 436 -250 l 436 -230 l 410 -230 l 410 -312 q 410 -377 398 -422 q 386 -468 356 -496 l 356 -496 q 338 -513 315 -522 q 292 -532 258 -532 l 258 -532 q 194 -532 153 -498 q 112 -465 92 -409 q 72 -354 72 -288 l 72 -288 q 72 -219 89 -169 q 106 -120 136 -83 q 166 -47 204 -15 l 204 -15 l 189 6 q 148 -28 116 -67 q 83 -107 64 -160 q 45 -213 45 -288 l 45 -288 q 45 -370 71 -430 q 97 -491 145 -524 q 192 -558 256 -558 l 256 -558 q 321 -558 357 -530 q 393 -502 410 -459 q 426 -417 431 -372 l 431 -372 l 426 -370 q 440 -441 479 -482 q 517 -523 571 -540 q 624 -558 683 -558 z m 772 -405 l 772 -405 q 772 -339 733 -273 q 693 -207 625 -141 q 557 -76 469 -9 l 469 -9 l 472 -23 q 506 -25 555 -25 q 604 -26 647 -26 l 647 -26 l 915 -26 l 915 -252 q 915 -337 892 -400 q 869 -464 817 -500 q 765 -536 677 -536 l 677 -536 l 673 -542 q 732 -526 752 -487 q 772 -449 772 -405 z"},"൛":{"ha":895,"x_min":79,"x_max":850,"o":"m 581 12 l 581 12 q 519 12 471 -9 q 422 -30 389 -67 q 355 -105 338 -156 q 320 -208 320 -269 l 320 -269 q 320 -344 340 -394 q 360 -445 389 -478 q 418 -511 444 -531 l 444 -531 l 438 -520 l 105 -520 l 105 0 l 79 0 l 79 -546 l 463 -546 l 473 -525 q 443 -503 414 -469 q 385 -435 366 -386 q 347 -337 347 -269 l 347 -269 q 347 -199 373 -141 q 398 -83 450 -48 q 502 -14 583 -14 l 583 -14 q 664 -14 717 -49 q 770 -84 797 -142 q 823 -201 823 -270 l 823 -270 q 823 -332 808 -379 q 792 -426 763 -463 q 733 -501 689 -531 l 689 -531 l 704 -552 q 742 -526 775 -488 q 808 -451 829 -398 q 850 -345 850 -271 l 850 -271 q 850 -210 832 -158 q 814 -107 779 -68 q 744 -30 694 -9 q 644 12 581 12 z"},"൜":{"ha":1412,"x_min":45,"x_max":1367,"o":"m 855 -558 l 855 -558 q 896 -558 924 -544 q 952 -531 971 -508 l 971 -508 q 989 -486 999 -460 q 1009 -434 1013 -396 q 1017 -359 1017 -304 l 1017 -304 l 1017 -273 q 1017 -193 1025 -143 q 1032 -93 1057 -60 l 1057 -60 q 1074 -38 1100 -26 q 1125 -14 1168 -14 l 1168 -14 q 1219 -14 1258 -41 q 1297 -69 1319 -123 q 1340 -177 1340 -257 l 1340 -257 q 1340 -328 1323 -377 q 1306 -427 1276 -464 q 1246 -501 1207 -533 l 1207 -533 l 1222 -554 q 1263 -520 1296 -480 q 1329 -440 1348 -386 q 1367 -333 1367 -258 l 1367 -258 q 1367 -175 1343 -114 q 1319 -53 1274 -20 q 1229 12 1167 12 l 1167 12 q 1124 12 1093 -1 q 1062 -14 1042 -38 l 1042 -38 q 1022 -62 1011 -90 q 1000 -118 996 -158 q 991 -198 991 -255 l 991 -255 l 991 -294 q 991 -363 984 -412 q 977 -461 951 -492 l 951 -492 q 936 -511 913 -521 q 889 -532 855 -532 l 855 -532 q 822 -532 799 -521 q 775 -511 760 -492 l 760 -492 q 734 -461 727 -411 q 719 -362 719 -293 l 719 -293 l 719 -242 q 719 -189 715 -150 q 710 -111 699 -82 q 687 -53 666 -31 l 666 -31 q 647 -12 620 0 q 592 12 557 12 l 557 12 q 516 12 489 -1 q 461 -15 441 -38 l 441 -38 q 423 -60 413 -86 q 403 -113 399 -150 q 395 -188 395 -242 l 395 -242 l 395 -273 q 395 -353 388 -403 q 381 -453 355 -486 l 355 -486 q 338 -508 313 -520 q 287 -532 244 -532 l 244 -532 q 193 -532 155 -504 q 116 -477 94 -423 q 72 -369 72 -289 l 72 -289 q 72 -219 89 -169 q 106 -119 137 -82 q 167 -45 205 -13 l 205 -13 l 190 8 q 149 -26 116 -66 q 83 -106 64 -160 q 45 -214 45 -288 l 45 -288 q 45 -372 69 -432 q 93 -493 138 -525 q 183 -558 245 -558 l 245 -558 q 288 -558 319 -545 q 350 -532 370 -508 l 370 -508 q 390 -485 401 -456 q 412 -428 417 -388 q 421 -349 421 -291 l 421 -291 l 421 -252 q 421 -183 429 -134 q 436 -86 461 -54 l 461 -54 q 476 -35 500 -24 q 523 -14 557 -14 l 557 -14 q 590 -14 614 -24 q 637 -35 652 -54 l 652 -54 q 678 -86 686 -135 q 693 -184 693 -253 l 693 -253 l 693 -304 q 693 -359 698 -398 q 702 -437 714 -465 q 725 -493 746 -515 l 746 -515 q 765 -535 793 -546 q 820 -558 855 -558 z"},"൝":{"ha":1902,"x_min":10,"x_max":1857,"o":"m 749 -558 l 749 -558 q 790 -558 818 -544 q 846 -531 865 -508 l 865 -508 q 883 -486 893 -460 q 903 -434 907 -396 q 911 -359 911 -304 l 911 -304 l 911 -252 q 911 -183 919 -134 q 926 -86 951 -54 l 951 -54 q 966 -35 990 -24 q 1013 -14 1047 -14 l 1047 -14 q 1080 -14 1104 -24 q 1127 -35 1142 -54 l 1142 -54 q 1168 -86 1176 -135 q 1183 -184 1183 -253 l 1183 -253 l 1183 -304 q 1183 -359 1188 -398 q 1192 -437 1204 -465 q 1215 -493 1236 -515 l 1236 -515 q 1255 -535 1283 -546 q 1310 -558 1345 -558 l 1345 -558 q 1386 -558 1414 -544 q 1442 -531 1461 -508 l 1461 -508 q 1479 -486 1489 -460 q 1499 -434 1503 -396 q 1507 -359 1507 -304 l 1507 -304 l 1507 -273 q 1507 -193 1515 -143 q 1522 -93 1547 -60 l 1547 -60 q 1564 -38 1590 -26 q 1615 -14 1658 -14 l 1658 -14 q 1709 -14 1748 -41 q 1787 -69 1809 -123 q 1830 -177 1830 -257 l 1830 -257 q 1830 -328 1813 -377 q 1796 -427 1766 -464 q 1736 -501 1697 -533 l 1697 -533 l 1712 -554 q 1753 -520 1786 -480 q 1819 -440 1838 -386 q 1857 -333 1857 -258 l 1857 -258 q 1857 -175 1833 -114 q 1809 -53 1764 -20 q 1719 12 1657 12 l 1657 12 q 1614 12 1583 -1 q 1552 -14 1532 -38 l 1532 -38 q 1512 -62 1501 -90 q 1490 -118 1486 -158 q 1481 -198 1481 -255 l 1481 -255 l 1481 -294 q 1481 -363 1474 -412 q 1467 -461 1441 -492 l 1441 -492 q 1426 -511 1403 -521 q 1379 -532 1345 -532 l 1345 -532 q 1312 -532 1289 -521 q 1265 -511 1250 -492 l 1250 -492 q 1224 -461 1217 -411 q 1209 -362 1209 -293 l 1209 -293 l 1209 -242 q 1209 -189 1205 -150 q 1200 -111 1189 -82 q 1177 -53 1156 -31 l 1156 -31 q 1137 -12 1110 0 q 1082 12 1047 12 l 1047 12 q 1006 12 979 -1 q 951 -15 931 -38 l 931 -38 q 913 -60 903 -86 q 893 -113 889 -150 q 885 -188 885 -242 l 885 -242 l 885 -294 q 885 -363 878 -412 q 871 -461 845 -492 l 845 -492 q 830 -511 807 -521 q 783 -532 749 -532 l 749 -532 q 716 -532 693 -521 q 669 -511 654 -492 l 654 -492 q 628 -461 621 -411 q 613 -362 613 -293 l 613 -293 l 613 -234 q 613 -155 601 -111 q 589 -67 561 -36 l 561 -36 q 540 -13 511 0 q 482 12 443 12 l 443 12 q 377 12 336 -28 q 295 -69 287 -143 l 287 -143 l 293 -144 q 285 -96 264 -61 q 242 -26 207 -7 q 171 12 119 12 l 119 12 q 92 12 64 6 q 36 0 10 -14 l 10 -14 l 20 -38 q 40 -27 65 -20 q 90 -14 119 -14 l 119 -14 q 157 -14 181 -23 q 205 -33 223 -49 l 223 -49 q 254 -78 266 -124 q 277 -170 277 -235 l 277 -235 l 277 -546 l 303 -546 l 303 -222 q 303 -158 316 -114 q 328 -71 356 -45 l 356 -45 q 373 -30 394 -22 q 415 -14 443 -14 l 443 -14 q 480 -14 505 -25 q 530 -37 546 -58 l 546 -58 q 568 -86 578 -130 q 587 -174 587 -255 l 587 -255 l 587 -304 q 587 -359 592 -398 q 596 -437 608 -465 q 619 -493 640 -515 l 640 -515 q 659 -535 687 -546 q 714 -558 749 -558 z"},"൞":{"ha":1246,"x_min":45,"x_max":1214,"o":"m 333 -558 l 333 -558 q 408 -558 464 -533 q 520 -509 557 -465 q 594 -421 612 -362 q 630 -303 630 -234 l 630 -234 q 630 -143 608 -89 q 586 -35 545 -11 q 504 12 448 12 l 448 12 q 396 12 363 -10 q 329 -33 313 -68 q 297 -103 297 -142 l 297 -142 q 297 -176 309 -202 q 320 -228 340 -247 l 340 -247 q 362 -268 392 -280 q 422 -292 463 -297 q 504 -303 557 -303 l 557 -303 l 590 -303 l 590 -277 l 554 -277 q 488 -277 438 -267 q 388 -258 359 -230 l 359 -230 q 342 -214 333 -191 q 324 -169 324 -142 l 324 -142 q 324 -83 357 -48 q 390 -14 449 -14 l 449 -14 q 503 -14 537 -37 q 571 -60 587 -108 q 603 -157 603 -234 l 603 -234 q 603 -249 603 -259 q 602 -269 601 -279 l 601 -279 l 600 -290 q 591 -364 559 -418 q 526 -472 470 -502 q 414 -532 333 -532 l 333 -532 q 263 -532 204 -503 q 144 -475 108 -418 q 72 -361 72 -276 l 72 -276 q 72 -215 88 -167 q 103 -120 133 -83 q 163 -46 206 -15 l 206 -15 l 191 6 q 154 -20 121 -57 q 87 -95 66 -148 q 45 -201 45 -275 l 45 -275 q 45 -331 63 -382 q 81 -433 117 -472 q 153 -512 207 -535 q 261 -558 333 -558 z m 1051 -219 l 1051 -219 q 1002 -219 965 -240 q 928 -262 908 -300 q 887 -339 887 -388 l 887 -388 q 887 -435 905 -471 q 923 -508 954 -536 l 954 -536 l 948 -520 l 735 -520 l 741 -531 q 770 -501 783 -470 q 795 -439 795 -413 l 795 -413 q 795 -354 768 -324 q 740 -295 696 -286 q 652 -277 603 -277 l 603 -277 l 576 -277 l 576 -303 l 602 -303 q 646 -303 684 -309 q 722 -316 746 -339 q 769 -362 769 -412 l 769 -412 q 769 -441 756 -468 q 742 -496 717 -521 l 717 -521 l 728 -546 l 961 -546 l 973 -525 q 942 -493 928 -460 q 914 -428 914 -389 l 914 -389 q 914 -323 952 -284 q 989 -245 1051 -245 l 1051 -245 q 1094 -245 1125 -265 q 1155 -285 1171 -317 q 1187 -350 1187 -387 l 1187 -387 q 1187 -437 1169 -470 q 1150 -504 1113 -533 l 1113 -533 l 1129 -554 q 1170 -519 1192 -482 q 1214 -446 1214 -387 l 1214 -387 q 1214 -342 1194 -303 q 1173 -265 1137 -242 q 1100 -219 1051 -219 z"},"ൟ":{"ha":1220,"x_min":34,"x_max":1186,"o":"m 34 -264 l 34 -264 q 34 -316 66 -352 q 97 -388 151 -388 l 151 -388 q 206 -388 238 -352 q 270 -317 270 -264 l 270 -264 q 270 -211 238 -175 q 206 -140 151 -140 l 151 -140 q 96 -140 65 -176 q 34 -212 34 -264 z m 61 -265 l 61 -265 q 61 -222 84 -194 q 107 -166 151 -166 l 151 -166 q 197 -166 220 -194 q 243 -222 243 -265 l 243 -265 q 243 -307 220 -334 q 197 -362 151 -362 l 151 -362 q 108 -362 85 -334 q 61 -307 61 -265 z m 950 -264 l 950 -264 q 950 -316 982 -352 q 1013 -388 1067 -388 l 1067 -388 q 1122 -388 1154 -352 q 1186 -317 1186 -264 l 1186 -264 q 1186 -211 1154 -175 q 1122 -140 1067 -140 l 1067 -140 q 1012 -140 981 -176 q 950 -212 950 -264 z m 977 -265 l 977 -265 q 977 -222 1000 -194 q 1023 -166 1067 -166 l 1067 -166 q 1113 -166 1136 -194 q 1159 -222 1159 -265 l 1159 -265 q 1159 -307 1136 -334 q 1113 -362 1067 -362 l 1067 -362 q 1024 -362 1001 -334 q 977 -307 977 -265 z m 605 -558 l 605 -558 q 678 -558 734 -534 q 789 -511 827 -468 q 864 -426 883 -368 q 902 -311 902 -243 l 902 -243 q 902 -152 879 -96 q 856 -40 816 -14 q 775 12 722 12 l 722 12 q 665 12 629 -14 q 593 -41 576 -86 q 558 -132 558 -187 l 558 -187 q 558 -282 607 -331 q 656 -380 731 -380 l 731 -380 q 774 -380 806 -363 q 837 -346 860 -318 q 883 -291 898 -257 l 898 -257 l 886 -243 q 874 -269 853 -294 q 831 -320 801 -337 q 771 -354 732 -354 l 732 -354 q 659 -354 622 -309 q 585 -265 585 -189 l 585 -189 q 585 -141 599 -101 q 612 -61 643 -37 q 673 -14 724 -14 l 724 -14 q 772 -14 806 -38 q 840 -62 858 -113 q 876 -164 876 -244 l 876 -244 q 876 -255 876 -261 q 875 -267 875 -271 l 875 -271 q 875 -276 876 -281 q 876 -287 875 -291 l 875 -291 q 867 -353 838 -408 q 808 -463 752 -497 q 695 -532 605 -532 l 605 -532 q 535 -532 476 -503 q 416 -475 380 -418 q 344 -361 344 -276 l 344 -276 q 344 -215 360 -167 q 375 -120 405 -83 q 435 -46 478 -15 l 478 -15 l 463 6 q 426 -20 393 -57 q 359 -95 338 -148 q 317 -201 317 -275 l 317 -275 q 317 -331 335 -382 q 353 -433 389 -472 q 425 -512 479 -535 q 533 -558 605 -558 z"},"ൠ":{"ha":800,"x_min":41,"x_max":759,"o":"m 597 -558 l 597 -558 q 674 -558 717 -504 q 759 -451 759 -365 l 759 -365 q 759 -293 737 -245 q 715 -198 677 -169 l 677 -169 q 629 -132 566 -119 q 503 -107 428 -107 l 428 -107 l 412 -107 l 390 -107 l 372 -107 q 299 -107 235 -119 q 171 -132 123 -169 l 123 -169 q 86 -198 64 -245 q 41 -293 41 -365 l 41 -365 q 41 -422 61 -465 q 80 -509 117 -533 q 153 -558 203 -558 l 203 -558 q 247 -558 278 -539 q 309 -520 325 -487 q 341 -455 341 -414 l 341 -414 q 341 -375 325 -343 q 309 -312 277 -294 q 245 -276 197 -276 l 197 -276 q 163 -276 136 -285 q 108 -295 87 -310 q 65 -326 49 -343 l 49 -343 l 57 -368 q 69 -353 88 -338 q 107 -323 134 -312 q 161 -302 196 -302 l 196 -302 q 255 -302 285 -332 q 314 -362 314 -414 l 314 -414 q 314 -464 287 -498 q 260 -532 203 -532 l 203 -532 q 156 -532 126 -509 q 95 -486 81 -448 q 67 -410 67 -365 l 67 -365 q 67 -359 68 -353 q 68 -348 68 -343 l 68 -343 l 67 -335 q 72 -280 96 -239 q 120 -199 162 -173 q 203 -148 262 -135 q 320 -123 395 -123 l 395 -123 l 402 -123 q 478 -123 537 -135 q 596 -148 638 -173 q 680 -199 704 -239 q 728 -280 733 -335 l 733 -335 l 732 -343 q 732 -348 733 -354 q 733 -360 733 -365 l 733 -365 q 733 -410 719 -448 q 705 -486 676 -509 q 646 -532 597 -532 l 597 -532 q 540 -532 513 -498 q 486 -464 486 -414 l 486 -414 q 486 -362 516 -332 q 545 -302 604 -302 l 604 -302 q 639 -302 666 -312 q 693 -323 712 -338 q 731 -353 743 -368 l 743 -368 l 751 -343 q 735 -326 714 -310 q 692 -295 665 -285 q 637 -276 603 -276 l 603 -276 q 556 -276 524 -294 q 491 -312 475 -343 q 459 -375 459 -414 l 459 -414 q 459 -455 475 -487 q 491 -520 522 -539 q 553 -558 597 -558 z m 398 203 l 398 203 q 280 203 208 185 q 136 167 104 131 q 72 95 72 42 l 72 42 q 72 -5 94 -35 q 115 -66 154 -83 q 193 -100 247 -107 q 300 -114 363 -114 l 363 -114 l 437 -114 q 500 -114 554 -107 q 607 -100 646 -83 q 685 -66 707 -35 q 728 -5 728 42 l 728 42 q 728 95 696 131 q 663 167 591 185 q 519 203 398 203 z m 399 177 l 399 177 q 515 177 581 162 q 647 146 674 116 q 701 85 701 40 l 701 40 q 701 5 684 -21 q 667 -47 631 -64 q 595 -81 539 -89 q 482 -98 402 -98 l 402 -98 l 395 -98 q 290 -98 225 -83 q 159 -68 129 -37 q 99 -7 99 40 l 99 40 q 99 85 126 116 q 153 146 219 162 q 284 177 399 177 z m 481 -33 l 481 -33 q 507 -33 524 -23 q 541 -13 551 3 q 561 19 566 38 q 570 56 570 74 l 570 74 l 570 103 l 544 103 l 544 76 q 544 32 528 13 q 511 -7 479 -7 l 479 -7 q 447 -7 430 16 q 413 38 413 76 l 413 76 l 413 103 l 387 103 l 387 76 q 387 38 370 16 q 353 -7 321 -7 l 321 -7 q 289 -7 273 13 q 256 32 256 76 l 256 76 l 256 103 l 230 103 l 230 74 q 230 56 235 38 q 239 19 249 3 q 259 -13 276 -23 q 293 -33 319 -33 l 319 -33 q 351 -33 370 -17 q 389 -1 400 28 l 400 28 q 409 2 429 -15 q 448 -33 481 -33 z"},"ൡ":{"ha":1224,"x_min":48,"x_max":1193,"o":"m 330 -558 l 330 -558 q 418 -558 469 -513 q 520 -469 533 -389 l 533 -389 l 534 -368 l 542 -279 l 542 0 l 516 0 l 516 -312 q 516 -389 497 -431 q 477 -473 445 -498 l 445 -498 q 421 -516 395 -524 q 368 -532 329 -532 l 329 -532 q 250 -532 193 -492 q 135 -453 105 -385 q 74 -318 74 -232 l 74 -232 l 74 -226 q 74 -153 92 -106 q 109 -59 142 -36 q 174 -14 218 -14 l 218 -14 q 249 -14 275 -27 q 300 -40 316 -69 q 331 -99 331 -149 l 331 -149 q 331 -202 302 -239 q 272 -276 210 -276 l 210 -276 q 163 -276 122 -252 q 81 -229 58 -203 l 58 -203 l 53 -229 q 88 -267 130 -284 q 171 -302 211 -302 l 211 -302 q 251 -302 284 -285 q 317 -268 338 -234 q 358 -200 358 -149 l 358 -149 q 358 -94 339 -58 q 320 -23 289 -5 q 257 12 218 12 l 218 12 q 171 12 133 -11 q 94 -35 71 -87 q 48 -139 48 -225 l 48 -225 q 48 -324 83 -399 q 117 -474 181 -516 q 244 -558 330 -558 z m 747 -558 l 747 -558 q 822 -558 876 -529 q 930 -501 964 -450 q 998 -399 1012 -331 l 1012 -331 q 1017 -306 1020 -278 q 1022 -251 1022 -222 l 1022 -222 q 1022 -141 998 -89 q 973 -38 933 -13 q 892 12 843 12 l 843 12 q 783 12 748 -14 q 713 -40 698 -80 q 683 -121 683 -162 l 683 -162 q 683 -257 747 -307 q 810 -357 918 -357 l 918 -357 q 936 -357 954 -355 q 971 -353 987 -350 l 987 -350 l 1001 -348 q 1070 -331 1112 -290 q 1154 -249 1174 -194 q 1193 -139 1193 -80 l 1193 -80 q 1193 -12 1174 41 q 1154 93 1118 129 q 1082 164 1032 183 q 982 201 920 201 l 920 201 q 868 201 826 193 q 784 184 755 172 l 755 172 l 765 148 q 794 160 834 168 q 874 175 920 175 l 920 175 q 980 175 1026 158 q 1072 140 1103 107 q 1134 73 1150 26 q 1166 -21 1166 -80 l 1166 -80 q 1166 -143 1147 -191 q 1128 -240 1092 -273 q 1055 -306 1004 -321 l 1004 -321 l 992 -323 q 975 -327 957 -329 q 938 -331 918 -331 l 918 -331 q 858 -331 811 -314 q 764 -297 737 -259 q 710 -222 710 -160 l 710 -160 q 710 -127 721 -93 q 732 -60 761 -37 q 790 -14 842 -14 l 842 -14 q 919 -14 957 -71 q 995 -128 995 -223 l 995 -223 q 995 -250 992 -277 q 989 -305 983 -333 l 983 -333 l 981 -345 q 968 -395 941 -437 q 913 -480 866 -506 q 819 -532 747 -532 l 747 -532 q 704 -532 669 -520 q 634 -508 608 -485 l 608 -485 q 586 -466 571 -440 q 556 -415 549 -379 q 542 -343 542 -292 l 542 -292 l 542 -197 l 523 -349 q 526 -411 554 -458 q 582 -505 631 -531 q 680 -558 747 -558 z"},"ൢ":{"ha":0,"x_min":-727,"x_max":-41,"o":"m -532 -1 l -532 -1 q -458 -1 -424 34 q -391 68 -381 125 l -381 125 l -375 181 l -375 332 l -401 332 l -401 173 q -401 126 -411 98 q -421 70 -438 54 l -438 54 q -456 37 -480 30 q -505 23 -531 23 l -531 23 q -578 23 -614 40 q -650 57 -671 87 q -693 116 -699 156 l -699 156 q -700 163 -700 171 q -701 178 -701 185 l -701 185 q -701 244 -678 278 q -655 311 -611 311 l -611 311 q -568 311 -549 286 q -530 261 -530 225 l -530 225 q -530 184 -552 163 q -575 142 -612 142 l -612 142 q -640 142 -665 154 q -691 165 -714 191 l -714 191 l -721 172 q -703 149 -674 133 q -646 117 -612 117 l -612 117 q -564 117 -533 146 q -503 175 -503 225 l -503 225 q -503 271 -530 304 q -558 337 -611 337 l -611 337 q -669 337 -698 292 q -727 247 -727 182 l -727 182 q -727 129 -702 88 q -678 46 -634 23 q -590 -1 -532 -1 z m -233 -1 l -233 -1 q -161 -1 -119 28 q -77 56 -59 99 q -41 141 -41 184 l -41 184 q -41 268 -74 303 q -108 337 -158 337 l -158 337 q -199 337 -224 321 q -250 305 -262 278 q -274 251 -274 217 l -274 217 q -274 179 -259 154 q -244 128 -218 115 q -192 102 -160 102 l -160 102 q -121 102 -97 118 q -74 133 -61 154 q -48 174 -44 191 l -44 191 l -54 203 q -61 175 -88 151 q -115 127 -159 127 l -159 127 q -203 127 -225 152 q -247 176 -247 218 l -247 218 q -247 257 -227 284 q -208 311 -158 311 l -158 311 q -115 311 -91 282 q -67 252 -67 186 l -67 186 q -67 180 -67 174 q -68 167 -69 160 l -69 160 l -69 153 q -73 121 -91 92 q -109 62 -143 43 q -178 23 -234 23 l -234 23 q -262 23 -283 30 q -305 37 -322 51 l -322 51 q -350 73 -362 111 q -375 148 -375 202 l -375 202 l -393 144 q -390 107 -372 74 q -355 41 -320 20 q -286 -1 -233 -1 z"},"ൣ":{"ha":0,"x_min":-727,"x_max":74,"o":"m -532 -1 l -532 -1 q -458 -1 -424 34 q -391 68 -381 125 l -381 125 l -375 181 l -375 332 l -401 332 l -401 173 q -401 126 -411 98 q -421 70 -438 54 l -438 54 q -456 37 -480 30 q -505 23 -531 23 l -531 23 q -578 23 -614 40 q -650 57 -671 87 q -693 116 -699 156 l -699 156 q -700 163 -700 171 q -701 178 -701 185 l -701 185 q -701 244 -678 278 q -655 311 -611 311 l -611 311 q -568 311 -549 286 q -530 261 -530 225 l -530 225 q -530 184 -552 163 q -575 142 -612 142 l -612 142 q -640 142 -665 154 q -691 165 -714 191 l -714 191 l -721 172 q -703 149 -674 133 q -646 117 -612 117 l -612 117 q -564 117 -533 146 q -503 175 -503 225 l -503 225 q -503 271 -530 304 q -558 337 -611 337 l -611 337 q -669 337 -698 292 q -727 247 -727 182 l -727 182 q -727 129 -702 88 q -678 46 -634 23 q -590 -1 -532 -1 z m -233 -1 l -233 -1 q -161 -1 -120 27 q -79 54 -61 97 q -44 139 -44 184 l -44 184 q -44 238 -59 272 q -74 306 -100 322 q -127 337 -160 337 l -160 337 q -199 337 -224 322 q -250 306 -262 280 q -274 254 -274 224 l -274 224 q -274 163 -228 133 q -183 102 -116 102 l -116 102 q -106 102 -96 103 q -86 103 -76 105 l -76 105 q -34 112 0 132 q 34 152 54 187 q 74 222 74 275 l 74 275 q 74 294 69 321 q 63 347 50 366 l 50 366 l 26 354 q 37 336 42 316 q 47 296 47 277 l 47 277 q 47 214 17 180 q -13 146 -57 133 l -57 133 l -69 131 q -80 129 -92 128 q -104 127 -115 127 l -115 127 q -176 127 -211 152 q -247 176 -247 225 l -247 225 q -247 259 -228 285 q -209 311 -161 311 l -161 311 q -118 311 -94 282 q -70 252 -70 186 l -70 186 q -70 169 -72 153 q -74 136 -79 123 l -79 123 l -82 113 q -94 81 -117 61 q -140 41 -169 32 q -199 23 -234 23 l -234 23 q -262 23 -283 30 q -305 37 -322 51 l -322 51 q -350 73 -362 111 q -375 148 -375 202 l -375 202 l -393 144 q -391 117 -380 91 q -370 65 -350 44 q -331 23 -302 11 q -273 -1 -233 -1 z"},"൦":{"ha":535,"x_min":44,"x_max":491,"o":"m 267 -49 l 267 -49 q 199 -49 149 -78 q 98 -107 71 -159 q 44 -212 44 -282 l 44 -282 q 44 -352 71 -404 q 98 -456 149 -485 q 199 -514 267 -514 l 267 -514 q 336 -514 386 -485 q 436 -457 464 -405 q 491 -353 491 -282 l 491 -282 q 491 -211 464 -158 q 436 -106 386 -77 q 336 -49 267 -49 z m 267 -75 l 267 -75 q 327 -75 371 -99 q 415 -123 440 -169 q 464 -216 464 -282 l 464 -282 q 464 -381 411 -434 q 357 -488 267 -488 l 267 -488 q 178 -488 125 -434 q 71 -381 71 -281 l 71 -281 q 71 -182 125 -128 q 178 -75 267 -75 z"},"൧":{"ha":836,"x_min":13,"x_max":767,"o":"m 357 175 l 357 201 l 179 201 q 134 201 105 194 q 75 187 52 170 l 52 170 q 33 156 23 135 q 13 114 13 86 l 13 86 q 13 63 20 45 q 27 26 40 13 l 40 13 q 54 -1 73 -9 q 91 -18 119 -22 q 146 -26 187 -26 l 187 -26 l 355 -26 l 353 0 l 190 0 q 139 0 108 6 q 77 11 59 30 l 59 30 q 50 40 45 54 q 40 68 40 86 l 40 86 q 40 128 68 150 l 68 150 q 85 163 113 169 q 140 175 186 175 l 186 175 l 357 175 z m 550 -558 l 550 -558 q 604 -558 644 -539 q 684 -521 711 -489 l 711 -489 q 740 -455 754 -407 q 767 -359 767 -288 l 767 -288 l 767 0 l 337 0 l 337 -297 q 337 -342 343 -377 q 349 -413 362 -441 q 375 -470 395 -493 l 395 -493 q 421 -523 460 -540 q 498 -558 550 -558 z m 550 -532 l 550 -532 q 506 -532 472 -518 q 437 -504 414 -476 l 414 -476 q 389 -446 376 -402 q 363 -359 363 -278 l 363 -278 l 363 -26 l 741 -26 l 741 -276 q 741 -353 729 -397 q 716 -442 691 -472 l 691 -472 q 667 -501 632 -516 q 597 -532 550 -532 z"},"൨":{"ha":822,"x_min":45,"x_max":807,"o":"m 314 -558 l 314 -558 q 376 -558 425 -537 q 473 -516 507 -478 q 540 -441 558 -389 q 575 -338 575 -277 l 575 -277 q 575 -203 555 -152 q 535 -101 507 -68 q 478 -35 451 -15 l 451 -15 l 457 -26 l 807 -26 l 807 0 l 432 0 l 422 -21 q 453 -44 482 -77 q 510 -111 529 -160 q 548 -209 548 -277 l 548 -277 q 548 -347 523 -405 q 498 -463 446 -497 q 393 -532 312 -532 l 312 -532 q 231 -532 178 -497 q 125 -462 99 -403 q 72 -345 72 -276 l 72 -276 q 72 -215 88 -167 q 103 -120 133 -83 q 163 -46 206 -15 l 206 -15 l 191 6 q 154 -20 121 -57 q 87 -95 66 -148 q 45 -201 45 -275 l 45 -275 q 45 -336 63 -387 q 81 -439 116 -477 q 151 -516 201 -537 q 251 -558 314 -558 z"},"൩":{"ha":1031,"x_min":45,"x_max":1016,"o":"m 256 -558 l 256 -558 q 305 -558 340 -540 q 374 -522 396 -487 q 417 -452 425 -402 l 425 -402 l 419 -402 q 432 -475 474 -516 q 515 -558 590 -558 l 590 -558 q 660 -558 707 -521 q 754 -484 778 -423 q 801 -363 801 -291 l 801 -291 q 801 -223 786 -173 q 771 -123 745 -86 q 718 -50 683 -20 l 683 -20 l 692 0 l 662 0 l 652 -21 q 688 -55 716 -91 q 743 -127 759 -175 q 774 -223 774 -291 l 774 -291 q 774 -352 755 -407 q 736 -462 696 -497 q 656 -532 593 -532 l 593 -532 q 556 -532 532 -523 q 508 -514 490 -497 l 490 -497 q 459 -469 448 -422 q 436 -376 436 -311 l 436 -311 l 436 0 l 410 0 l 410 -312 q 410 -377 398 -422 q 386 -468 356 -496 l 356 -496 q 338 -513 315 -522 q 292 -532 258 -532 l 258 -532 q 194 -532 153 -498 q 112 -465 92 -409 q 72 -354 72 -288 l 72 -288 q 72 -219 89 -169 q 106 -120 136 -83 q 166 -47 204 -15 l 204 -15 l 189 6 q 148 -28 116 -67 q 83 -107 64 -160 q 45 -213 45 -288 l 45 -288 q 45 -370 71 -430 q 97 -491 145 -524 q 192 -558 256 -558 z m 682 0 l 675 -26 l 1016 -26 l 1016 0 l 682 0 z"},"൪":{"ha":731,"x_min":45,"x_max":723,"o":"m 333 -558 l 333 -558 q 398 -558 451 -535 q 504 -512 546 -469 l 546 -469 q 589 -425 614 -362 q 639 -299 639 -222 l 639 -222 q 639 -136 614 -84 q 588 -33 546 -10 q 504 12 456 12 l 456 12 q 394 12 357 -15 q 319 -42 303 -85 q 286 -128 286 -175 l 286 -175 q 286 -236 312 -284 q 337 -333 391 -377 q 445 -421 531 -467 l 531 -467 q 595 -503 631 -525 q 667 -547 682 -568 q 696 -590 696 -622 l 696 -622 q 696 -646 688 -665 q 679 -685 665 -704 l 665 -704 l 688 -717 q 703 -698 713 -673 q 723 -649 723 -623 l 723 -623 q 723 -587 708 -561 q 692 -535 654 -509 q 615 -483 544 -446 l 544 -446 q 461 -402 410 -360 q 359 -319 336 -274 q 313 -229 313 -175 l 313 -175 q 313 -101 348 -57 q 383 -14 458 -14 l 458 -14 q 500 -14 535 -33 q 570 -53 591 -98 q 612 -144 612 -221 l 612 -221 q 612 -295 590 -354 q 567 -413 527 -453 l 527 -453 q 489 -492 441 -512 q 392 -532 333 -532 l 333 -532 q 263 -532 204 -503 q 144 -475 108 -418 q 72 -361 72 -276 l 72 -276 q 72 -215 88 -167 q 103 -120 133 -83 q 163 -46 206 -15 l 206 -15 l 191 6 q 154 -20 121 -57 q 87 -95 66 -148 q 45 -201 45 -275 l 45 -275 q 45 -331 63 -382 q 81 -433 117 -472 q 153 -512 207 -535 q 261 -558 333 -558 z"},"൫":{"ha":891,"x_min":51,"x_max":840,"o":"m 460 -723 l 460 -723 q 561 -723 633 -687 q 705 -651 751 -589 q 797 -528 819 -451 q 840 -374 840 -292 l 840 -292 q 840 -204 823 -131 q 806 -58 771 12 l 771 12 l 747 0 q 771 -47 786 -94 q 800 -141 807 -189 q 813 -238 813 -292 l 813 -292 q 813 -370 794 -442 q 774 -515 732 -572 q 689 -630 623 -663 q 556 -697 461 -697 l 461 -697 q 353 -697 267 -647 q 180 -597 130 -498 q 79 -400 79 -255 l 79 -255 q 79 -173 99 -99 q 118 -25 158 31 q 197 87 257 120 q 316 152 396 152 l 396 152 q 513 152 568 96 q 623 39 623 -52 l 623 -52 q 623 -111 600 -153 q 577 -195 534 -218 q 491 -241 431 -241 l 431 -241 l 420 -241 l 420 -267 l 446 -267 q 497 -267 531 -277 q 564 -287 583 -309 l 583 -309 q 596 -324 602 -343 q 608 -363 608 -388 l 608 -388 q 608 -446 571 -481 q 533 -517 461 -517 l 461 -517 q 395 -517 351 -486 q 307 -456 285 -403 q 262 -351 262 -283 l 262 -283 q 262 -205 288 -140 q 314 -75 358 -7 l 358 -7 l 336 7 q 290 -64 263 -132 q 235 -200 235 -285 l 235 -285 q 235 -360 262 -418 q 288 -476 339 -509 q 390 -543 461 -543 l 461 -543 q 519 -543 558 -522 q 596 -501 616 -466 q 635 -432 635 -390 l 635 -390 q 635 -355 622 -323 q 609 -292 575 -271 q 541 -250 477 -247 l 477 -247 l 478 -257 q 559 -244 605 -193 q 650 -142 650 -53 l 650 -53 q 650 20 620 72 q 590 123 532 151 q 474 178 390 178 l 390 178 q 287 178 211 122 q 134 66 93 -31 q 51 -129 51 -255 l 51 -255 q 51 -367 82 -454 q 113 -541 169 -601 q 224 -661 299 -692 q 373 -723 460 -723 z"},"൬":{"ha":1134,"x_min":45,"x_max":1083,"o":"m 570 -558 l 570 -558 q 638 -558 681 -517 q 723 -477 730 -403 l 730 -403 l 739 -311 l 739 0 l 713 0 l 713 -315 q 713 -379 704 -417 q 695 -455 675 -483 l 675 -483 q 658 -506 632 -519 q 606 -532 567 -532 l 567 -532 q 531 -532 505 -519 q 478 -506 461 -483 l 461 -483 q 439 -455 430 -415 q 421 -375 421 -316 l 421 -316 l 421 0 l 395 0 l 395 -312 q 395 -376 383 -422 q 371 -468 342 -496 l 342 -496 q 325 -513 302 -522 q 278 -532 250 -532 l 250 -532 q 189 -532 150 -498 q 110 -465 91 -409 q 72 -354 72 -288 l 72 -288 q 72 -218 89 -169 q 106 -120 136 -83 q 166 -47 204 -15 l 204 -15 l 189 6 q 148 -28 116 -67 q 83 -107 64 -160 q 45 -213 45 -288 l 45 -288 q 45 -370 70 -430 q 95 -491 141 -524 q 186 -558 248 -558 l 248 -558 q 316 -558 357 -517 q 398 -477 410 -402 l 410 -402 l 404 -401 q 415 -469 455 -513 q 494 -558 570 -558 z m 888 -558 l 888 -558 q 984 -558 1034 -470 q 1083 -382 1083 -224 l 1083 -224 q 1083 -94 1051 2 q 1018 97 947 149 q 875 201 756 201 l 756 201 q 732 201 701 199 q 670 196 643 190 l 643 190 l 646 165 q 674 170 704 173 q 734 175 755 175 l 755 175 q 840 175 898 147 q 956 119 991 67 q 1025 14 1041 -59 q 1056 -133 1056 -224 l 1056 -224 q 1056 -321 1038 -390 q 1019 -459 982 -495 q 945 -532 887 -532 l 887 -532 q 857 -532 834 -523 q 811 -515 793 -498 l 793 -498 q 762 -470 751 -425 q 739 -381 739 -320 l 739 -320 l 739 -10 l 725 -10 l 725 -322 l 722 -402 q 735 -475 776 -516 q 817 -558 888 -558 z"},"൭":{"ha":694,"x_min":46,"x_max":643,"o":"m 352 -558 l 352 -558 q 424 -558 479 -533 q 533 -508 570 -461 q 606 -415 625 -349 q 643 -284 643 -204 l 643 -204 q 643 -121 626 -48 q 608 25 568 81 q 528 137 461 169 q 394 201 295 201 l 295 201 q 267 201 237 199 q 206 197 176 191 l 176 191 l 179 165 q 205 169 235 172 q 264 175 296 175 l 296 175 q 392 175 454 144 q 516 113 552 60 q 587 6 602 -62 q 616 -130 616 -204 l 616 -204 q 616 -362 549 -447 q 481 -532 352 -532 l 352 -532 q 263 -532 201 -493 q 138 -454 105 -385 q 72 -317 72 -229 l 72 -229 l 72 -218 q 72 -149 90 -103 q 107 -58 140 -36 q 172 -14 216 -14 l 216 -14 q 247 -14 273 -27 q 298 -40 314 -69 q 329 -99 329 -149 l 329 -149 q 329 -202 300 -239 q 270 -276 208 -276 l 208 -276 q 161 -276 120 -252 q 79 -229 56 -203 l 56 -203 l 51 -229 q 86 -267 128 -284 q 169 -302 209 -302 l 209 -302 q 249 -302 282 -285 q 315 -268 336 -234 q 356 -200 356 -149 l 356 -149 q 356 -94 337 -58 q 318 -23 287 -5 q 255 12 216 12 l 216 12 q 169 12 131 -11 q 92 -35 69 -86 q 46 -137 46 -221 l 46 -221 q 46 -324 84 -399 q 121 -475 190 -516 q 258 -558 352 -558 z"},"൮":{"ha":895,"x_min":45,"x_max":816,"o":"m 314 -558 l 314 -558 q 376 -558 425 -537 q 473 -516 507 -478 q 540 -441 558 -389 q 575 -338 575 -277 l 575 -277 q 575 -203 555 -152 q 535 -101 507 -68 q 478 -35 451 -15 l 451 -15 l 457 -26 l 790 -26 l 790 -546 l 816 -546 l 816 -74 l 800 0 l 432 0 l 422 -21 q 453 -44 482 -77 q 510 -111 529 -160 q 548 -209 548 -277 l 548 -277 q 548 -347 523 -405 q 498 -463 446 -497 q 393 -532 312 -532 l 312 -532 q 231 -532 178 -497 q 125 -462 99 -403 q 72 -345 72 -276 l 72 -276 q 72 -215 88 -167 q 103 -120 133 -83 q 163 -46 206 -15 l 206 -15 l 191 6 q 154 -20 121 -57 q 87 -95 66 -148 q 45 -201 45 -275 l 45 -275 q 45 -336 63 -387 q 81 -439 116 -477 q 151 -516 201 -537 q 251 -558 314 -558 z m 514 201 l 514 201 q 484 201 458 199 q 431 196 405 191 l 405 191 l 409 165 q 431 169 457 172 q 483 175 513 175 l 513 175 q 597 175 650 157 q 703 138 733 108 q 762 78 775 44 q 787 9 790 -22 l 790 -22 l 816 -90 l 816 -44 q 816 3 805 41 q 793 78 770 107 q 747 135 713 156 l 713 156 q 676 178 627 190 q 577 201 514 201 z"},"൯":{"ha":1044,"x_min":45,"x_max":1036,"o":"m 256 -558 l 256 -558 q 310 -558 347 -536 q 383 -514 404 -473 q 424 -432 428 -374 l 428 -374 l 436 -260 l 436 0 l 410 0 l 410 -312 q 410 -377 398 -422 q 386 -468 356 -496 l 356 -496 q 338 -513 315 -522 q 292 -532 258 -532 l 258 -532 q 194 -532 153 -498 q 112 -465 92 -409 q 72 -354 72 -288 l 72 -288 q 72 -219 89 -169 q 106 -120 136 -83 q 166 -47 204 -15 l 204 -15 l 189 6 q 148 -28 116 -67 q 83 -107 64 -160 q 45 -213 45 -288 l 45 -288 q 45 -370 71 -430 q 97 -491 145 -524 q 192 -558 256 -558 z m 641 -558 l 641 -558 q 706 -558 762 -535 q 817 -512 859 -469 l 859 -469 q 902 -425 927 -362 q 952 -299 952 -222 l 952 -222 q 952 -136 927 -84 q 901 -33 859 -10 q 817 12 769 12 l 769 12 q 707 12 670 -15 q 632 -42 616 -85 q 599 -128 599 -175 l 599 -175 q 599 -236 625 -284 q 650 -333 704 -377 q 758 -421 844 -467 l 844 -467 q 908 -503 944 -525 q 980 -547 995 -568 q 1009 -590 1009 -622 l 1009 -622 q 1009 -646 1001 -665 q 992 -685 978 -704 l 978 -704 l 1001 -717 q 1016 -698 1026 -673 q 1036 -649 1036 -623 l 1036 -623 q 1036 -587 1021 -561 q 1005 -535 967 -509 q 928 -483 857 -446 l 857 -446 q 774 -402 723 -360 q 672 -319 649 -274 q 626 -229 626 -175 l 626 -175 q 626 -101 661 -57 q 696 -14 771 -14 l 771 -14 q 813 -14 848 -33 q 883 -53 904 -98 q 925 -144 925 -221 l 925 -221 q 925 -295 903 -354 q 880 -413 840 -453 l 840 -453 q 802 -492 751 -512 q 700 -532 641 -532 l 641 -532 q 592 -532 561 -522 q 529 -512 506 -493 l 506 -493 q 482 -474 467 -447 q 451 -421 444 -382 q 436 -343 436 -285 l 436 -285 l 436 -179 l 422 -179 l 422 -280 l 419 -381 q 430 -442 459 -481 q 488 -520 534 -539 q 580 -558 641 -558 z"},"൰":{"ha":1039,"x_min":-35,"x_max":994,"o":"m 270 -546 l 296 -546 l 296 -115 l 295 -98 q 295 -26 284 31 q 272 88 239 129 l 239 129 q 211 164 166 183 q 120 201 55 201 l 55 201 q 33 201 11 199 q -12 197 -35 191 l -35 191 l -32 166 q -14 170 8 173 q 29 175 55 175 l 55 175 q 117 175 157 158 q 197 141 221 110 l 221 110 q 250 73 260 22 q 270 -30 270 -110 l 270 -110 l 270 -546 z m 783 12 l 783 12 q 708 12 667 -29 q 626 -71 613 -144 l 613 -144 l 620 -145 q 609 -77 569 -32 q 528 12 447 12 l 447 12 q 398 12 364 -7 q 329 -26 310 -60 q 290 -95 283 -143 l 283 -143 l 280 -265 l 279 -519 l 296 -520 l 296 -231 q 296 -167 305 -129 q 313 -92 335 -64 l 335 -64 q 353 -42 381 -28 q 408 -14 449 -14 l 449 -14 q 488 -14 516 -28 q 544 -42 562 -64 l 562 -64 q 585 -93 594 -132 q 603 -171 603 -230 l 603 -230 l 603 -546 l 629 -546 l 629 -235 q 629 -170 641 -124 q 652 -78 683 -49 l 683 -49 q 701 -32 725 -23 q 749 -14 786 -14 l 786 -14 q 849 -14 889 -49 q 929 -84 948 -139 q 967 -195 967 -255 l 967 -255 q 967 -326 950 -376 q 933 -426 903 -462 q 873 -499 834 -531 l 834 -531 l 849 -552 q 890 -518 923 -479 q 956 -441 975 -387 q 994 -334 994 -256 l 994 -256 q 994 -184 971 -123 q 947 -62 900 -25 q 853 12 783 12 z"},"൱":{"ha":831,"x_min":45,"x_max":780,"o":"m 256 -558 l 256 -558 q 310 -558 347 -536 q 383 -514 404 -473 q 424 -432 428 -374 l 428 -374 l 436 -260 l 436 0 l 410 0 l 410 -312 q 410 -377 398 -422 q 386 -468 356 -496 l 356 -496 q 338 -513 315 -522 q 292 -532 258 -532 l 258 -532 q 194 -532 153 -498 q 112 -465 92 -409 q 72 -354 72 -288 l 72 -288 q 72 -219 89 -169 q 106 -120 136 -83 q 166 -47 204 -15 l 204 -15 l 189 6 q 148 -28 116 -67 q 83 -107 64 -160 q 45 -213 45 -288 l 45 -288 q 45 -370 71 -430 q 97 -491 145 -524 q 192 -558 256 -558 z m 585 -558 l 585 -558 q 649 -558 693 -518 q 736 -479 758 -404 q 780 -329 780 -224 l 780 -224 q 780 -94 748 2 q 715 97 644 149 q 572 201 453 201 l 453 201 q 429 201 398 199 q 367 196 340 190 l 340 190 l 343 165 q 371 170 401 173 q 431 175 452 175 l 452 175 q 537 175 595 147 q 653 119 688 67 q 722 14 738 -59 q 753 -133 753 -224 l 753 -224 q 753 -321 735 -390 q 716 -459 679 -495 q 642 -532 584 -532 l 584 -532 q 554 -532 531 -523 q 508 -515 490 -498 l 490 -498 q 459 -470 448 -425 q 436 -381 436 -320 l 436 -320 l 436 -10 l 422 -10 l 422 -322 l 419 -402 q 432 -475 473 -516 q 514 -558 585 -558 z"},"൲":{"ha":1276,"x_min":45,"x_max":1254,"o":"m 1124 -546 l 1124 -546 q 1168 -546 1197 -527 q 1225 -508 1240 -478 q 1254 -449 1254 -415 l 1254 -415 q 1254 -385 1245 -361 q 1236 -337 1219 -320 l 1219 -320 q 1202 -303 1180 -293 q 1158 -284 1132 -280 q 1105 -277 1074 -277 l 1074 -277 l 829 -277 l 829 -303 l 1073 -303 q 1122 -303 1150 -310 q 1177 -317 1195 -333 l 1195 -333 q 1210 -347 1219 -366 q 1227 -386 1227 -414 l 1227 -414 q 1227 -461 1201 -490 q 1174 -520 1124 -520 l 1124 -520 q 1068 -520 1039 -487 q 1010 -454 1010 -400 l 1010 -400 q 1010 -365 1020 -338 q 1029 -312 1043 -288 l 1043 -288 l 1016 -283 q 1000 -312 992 -339 q 983 -366 983 -401 l 983 -401 q 983 -447 1002 -479 q 1020 -512 1052 -529 q 1084 -546 1124 -546 z m 256 -558 l 256 -558 q 310 -558 347 -536 q 384 -514 405 -473 q 425 -432 429 -376 l 429 -376 l 436 -260 l 436 0 l 410 0 l 410 -312 q 410 -377 398 -422 q 386 -468 356 -496 l 356 -496 q 338 -513 315 -522 q 292 -532 258 -532 l 258 -532 q 194 -532 153 -498 q 112 -465 92 -409 q 72 -354 72 -288 l 72 -288 q 72 -219 89 -169 q 106 -120 136 -83 q 166 -47 204 -15 l 204 -15 l 189 6 q 148 -28 116 -67 q 83 -107 64 -160 q 45 -213 45 -288 l 45 -288 q 45 -370 71 -430 q 97 -491 145 -524 q 192 -558 256 -558 z m 630 -558 l 630 -558 q 691 -558 740 -534 q 789 -511 824 -469 q 859 -427 878 -369 q 896 -312 896 -244 l 896 -244 q 896 -146 874 -90 q 852 -34 811 -11 q 770 12 714 12 l 714 12 q 662 12 629 -10 q 595 -33 579 -68 q 563 -103 563 -142 l 563 -142 q 563 -176 575 -202 q 586 -228 606 -247 l 606 -247 q 628 -268 658 -280 q 688 -292 729 -297 q 770 -303 823 -303 l 823 -303 l 1068 -303 l 1068 -277 l 820 -277 q 754 -277 704 -267 q 654 -258 625 -230 l 625 -230 q 608 -214 599 -191 q 590 -169 590 -142 l 590 -142 q 590 -83 623 -48 q 656 -14 715 -14 l 715 -14 q 769 -14 803 -36 q 837 -59 853 -109 q 869 -160 869 -243 l 869 -243 q 869 -254 869 -265 q 868 -276 867 -286 l 867 -286 l 866 -296 q 857 -370 825 -422 q 793 -475 743 -503 q 693 -532 629 -532 l 629 -532 q 589 -532 558 -521 q 526 -510 500 -487 l 500 -487 q 480 -470 466 -442 q 451 -415 444 -379 q 436 -343 436 -298 l 436 -298 l 436 -197 l 417 -199 l 417 -339 q 420 -412 448 -460 q 475 -509 522 -533 q 569 -558 630 -558 z"},"൳":{"ha":764,"x_min":46,"x_max":742,"o":"m 216 12 l 216 12 q 169 12 131 -11 q 92 -34 69 -84 q 46 -134 46 -214 l 46 -214 q 46 -296 71 -350 q 96 -405 139 -439 l 139 -439 q 174 -466 217 -481 q 259 -497 315 -503 q 370 -510 443 -510 l 443 -510 l 742 -510 l 742 -484 l 454 -484 q 381 -484 326 -478 q 271 -473 229 -458 q 187 -444 153 -417 l 153 -417 q 119 -389 98 -347 q 77 -305 72 -242 l 72 -242 l 72 -231 q 72 -227 72 -222 q 72 -218 72 -213 l 72 -213 q 72 -146 90 -102 q 107 -58 140 -36 q 172 -14 216 -14 l 216 -14 q 247 -14 273 -27 q 298 -40 314 -69 q 329 -99 329 -149 l 329 -149 q 329 -201 300 -238 q 270 -276 208 -276 l 208 -276 q 162 -276 121 -252 q 79 -229 56 -203 l 56 -203 l 51 -229 q 86 -267 128 -284 q 169 -302 209 -302 l 209 -302 q 249 -302 282 -285 q 315 -268 336 -234 q 356 -200 356 -149 l 356 -149 q 356 -94 337 -58 q 318 -23 287 -5 q 255 12 216 12 z"},"൴":{"ha":860,"x_min":46,"x_max":814,"o":"m 485 -792 l 511 -792 l 511 -230 q 511 -188 514 -152 q 517 -116 528 -87 q 538 -59 559 -41 l 559 -41 q 574 -28 596 -21 q 617 -14 646 -14 l 646 -14 q 695 -14 726 -40 q 757 -66 772 -109 q 786 -153 786 -205 l 786 -205 q 786 -272 766 -327 q 745 -382 708 -423 q 670 -464 618 -490 q 566 -517 502 -527 l 502 -527 l 492 -528 q 477 -530 462 -531 q 446 -532 429 -532 l 429 -532 q 337 -532 270 -507 q 202 -483 159 -440 q 115 -398 94 -344 q 72 -290 72 -231 l 72 -231 l 72 -224 q 72 -152 90 -105 q 107 -59 140 -36 q 172 -14 216 -14 l 216 -14 q 247 -14 273 -27 q 298 -40 314 -69 q 329 -99 329 -149 l 329 -149 q 329 -202 300 -239 q 270 -276 208 -276 l 208 -276 q 161 -276 120 -252 q 79 -229 56 -203 l 56 -203 l 51 -229 q 86 -267 128 -284 q 169 -302 209 -302 l 209 -302 q 249 -302 282 -285 q 315 -268 336 -234 q 356 -200 356 -149 l 356 -149 q 356 -93 337 -57 q 318 -22 287 -5 q 255 12 216 12 l 216 12 q 169 12 131 -11 q 92 -35 69 -87 q 46 -140 46 -226 l 46 -226 q 46 -293 70 -353 q 93 -413 141 -459 q 188 -505 260 -531 q 331 -558 428 -558 l 428 -558 q 445 -558 461 -557 q 476 -556 492 -554 l 492 -554 l 501 -553 q 570 -543 627 -514 q 684 -486 726 -441 q 768 -396 791 -336 q 814 -277 814 -205 l 814 -205 q 814 -139 794 -90 q 774 -42 736 -15 q 698 12 644 12 l 644 12 q 610 12 586 3 q 561 -6 541 -22 l 541 -22 q 521 -40 509 -65 q 496 -91 491 -127 q 485 -163 485 -212 l 485 -212 l 485 -792 z"},"൵":{"ha":1150,"x_min":48,"x_max":1142,"o":"m 330 -558 l 330 -558 q 418 -558 473 -510 q 527 -462 534 -371 l 534 -371 l 533 -319 l 542 -198 l 542 0 l 516 0 l 516 -312 q 516 -389 497 -431 q 477 -473 445 -498 l 445 -498 q 421 -516 395 -524 q 368 -532 329 -532 l 329 -532 q 250 -532 193 -492 q 135 -453 105 -385 q 74 -318 74 -232 l 74 -232 l 74 -226 q 74 -153 92 -106 q 109 -59 142 -36 q 174 -14 218 -14 l 218 -14 q 249 -14 275 -27 q 300 -40 316 -69 q 331 -99 331 -149 l 331 -149 q 331 -202 302 -239 q 272 -276 210 -276 l 210 -276 q 163 -276 122 -252 q 81 -229 58 -203 l 58 -203 l 53 -229 q 88 -267 130 -284 q 171 -302 211 -302 l 211 -302 q 251 -302 284 -285 q 317 -268 338 -234 q 358 -200 358 -149 l 358 -149 q 358 -94 339 -58 q 320 -23 289 -5 q 257 12 218 12 l 218 12 q 171 12 133 -11 q 94 -35 71 -87 q 48 -139 48 -225 l 48 -225 q 48 -324 83 -399 q 117 -474 181 -516 q 244 -558 330 -558 z m 747 -558 l 747 -558 q 812 -558 868 -535 q 923 -512 965 -469 l 965 -469 q 1008 -425 1033 -362 q 1058 -299 1058 -222 l 1058 -222 q 1058 -136 1033 -84 q 1007 -33 965 -10 q 923 12 875 12 l 875 12 q 813 12 776 -15 q 738 -42 722 -85 q 705 -128 705 -175 l 705 -175 q 705 -236 731 -284 q 756 -333 810 -377 q 864 -421 950 -467 l 950 -467 q 1014 -503 1050 -525 q 1086 -547 1101 -568 q 1115 -590 1115 -622 l 1115 -622 q 1115 -646 1107 -665 q 1098 -685 1084 -704 l 1084 -704 l 1107 -717 q 1122 -698 1132 -673 q 1142 -649 1142 -623 l 1142 -623 q 1142 -587 1127 -561 q 1111 -535 1073 -509 q 1034 -483 963 -446 l 963 -446 q 880 -402 829 -360 q 778 -319 755 -274 q 732 -229 732 -175 l 732 -175 q 732 -101 767 -57 q 802 -14 877 -14 l 877 -14 q 919 -14 954 -33 q 989 -53 1010 -98 q 1031 -144 1031 -221 l 1031 -221 q 1031 -295 1009 -354 q 986 -413 946 -453 l 946 -453 q 908 -492 857 -512 q 806 -532 747 -532 l 747 -532 q 698 -532 667 -522 q 635 -512 612 -493 l 612 -493 q 588 -474 573 -447 q 557 -421 550 -382 q 542 -343 542 -285 l 542 -285 l 542 -179 l 528 -179 l 528 -280 l 525 -381 q 536 -442 565 -481 q 594 -520 640 -539 q 686 -558 747 -558 z"},"൶":{"ha":1274,"x_min":38,"x_max":1209,"o":"m 201 -327 l 201 -327 q 250 -327 287 -305 q 324 -284 345 -246 q 365 -208 365 -158 l 365 -158 q 365 -111 348 -74 q 330 -38 298 -10 l 298 -10 l 304 -26 l 689 -26 l 686 0 l 291 0 l 279 -21 q 311 -53 325 -85 q 338 -118 338 -157 l 338 -157 q 338 -223 301 -262 q 263 -301 201 -301 l 201 -301 q 158 -301 128 -281 q 97 -261 81 -229 q 65 -197 65 -159 l 65 -159 q 65 -109 84 -75 q 102 -42 139 -13 l 139 -13 l 123 8 q 83 -27 61 -63 q 38 -100 38 -159 l 38 -159 q 38 -205 59 -243 q 79 -281 116 -304 q 153 -327 201 -327 z m 951 -558 l 951 -558 q 1002 -558 1043 -546 q 1083 -534 1114 -510 l 1114 -510 q 1145 -486 1166 -450 q 1187 -415 1198 -365 q 1209 -316 1209 -249 l 1209 -249 l 1209 0 l 674 0 l 674 -246 q 674 -306 683 -351 q 692 -397 710 -432 q 727 -467 754 -492 l 754 -492 q 789 -524 838 -541 q 887 -558 951 -558 z m 903 -526 l 903 -526 q 863 -526 830 -512 q 797 -499 771 -473 l 771 -473 q 737 -439 719 -385 q 700 -331 700 -248 l 700 -248 l 700 -26 l 717 -26 q 800 -87 867 -151 q 934 -215 974 -279 q 1013 -343 1013 -403 l 1013 -403 q 1013 -432 1003 -460 q 993 -489 969 -507 q 945 -526 903 -526 z m 1040 -405 l 1040 -405 q 1040 -339 1001 -273 q 961 -207 893 -141 q 825 -76 737 -9 l 737 -9 l 740 -23 q 774 -25 823 -25 q 872 -26 915 -26 l 915 -26 l 1183 -26 l 1183 -252 q 1183 -337 1160 -400 q 1137 -464 1085 -500 q 1033 -536 945 -536 l 945 -536 l 941 -542 q 1000 -526 1020 -487 q 1040 -449 1040 -405 z"},"൷":{"ha":1616,"x_min":38,"x_max":1592,"o":"m 201 -327 l 201 -327 q 250 -327 287 -305 q 324 -284 345 -246 q 365 -208 365 -158 l 365 -158 q 365 -111 348 -74 q 330 -38 298 -10 l 298 -10 l 304 -26 l 662 -26 l 675 0 l 291 0 l 279 -21 q 311 -53 325 -85 q 338 -118 338 -157 l 338 -157 q 338 -223 301 -262 q 263 -301 201 -301 l 201 -301 q 158 -301 128 -281 q 97 -261 81 -229 q 65 -197 65 -159 l 65 -159 q 65 -109 84 -75 q 102 -42 139 -13 l 139 -13 l 123 8 q 83 -27 61 -63 q 38 -100 38 -159 l 38 -159 q 38 -205 59 -243 q 79 -281 116 -304 q 153 -327 201 -327 z m 754 -558 l 754 -558 q 808 -558 845 -536 q 882 -514 903 -473 q 923 -432 927 -376 l 927 -376 l 934 -285 l 934 -230 l 908 -230 l 908 -312 q 908 -377 896 -422 q 884 -468 854 -496 l 854 -496 q 836 -513 813 -522 q 790 -532 756 -532 l 756 -532 q 692 -532 651 -498 q 610 -465 590 -411 q 570 -358 570 -296 l 570 -296 q 570 -201 606 -136 q 641 -72 692 -21 l 692 -21 l 682 0 l 668 0 l 661 -20 q 627 -53 601 -93 q 574 -133 559 -183 q 543 -233 543 -295 l 543 -295 q 543 -373 569 -432 q 595 -491 643 -524 q 690 -558 754 -558 z m 1128 -558 l 1128 -558 q 1189 -558 1238 -534 q 1287 -511 1322 -469 q 1357 -427 1376 -369 q 1394 -312 1394 -244 l 1394 -244 q 1394 -146 1372 -90 q 1350 -34 1309 -11 q 1268 12 1212 12 l 1212 12 q 1160 12 1127 -10 q 1093 -33 1077 -68 q 1061 -103 1061 -142 l 1061 -142 q 1061 -176 1073 -202 q 1084 -228 1104 -247 l 1104 -247 q 1126 -268 1156 -280 q 1186 -292 1227 -297 q 1268 -303 1321 -303 l 1321 -303 l 1372 -303 l 1372 -277 l 1318 -277 q 1252 -277 1202 -267 q 1152 -258 1123 -230 l 1123 -230 q 1106 -214 1097 -191 q 1088 -169 1088 -142 l 1088 -142 q 1088 -83 1121 -48 q 1154 -14 1213 -14 l 1213 -14 q 1267 -14 1301 -36 q 1335 -59 1351 -109 q 1367 -160 1367 -243 l 1367 -243 q 1367 -254 1367 -265 q 1366 -276 1365 -286 l 1365 -286 l 1364 -296 q 1355 -370 1323 -422 q 1291 -475 1241 -503 q 1191 -532 1127 -532 l 1127 -532 q 1087 -532 1056 -521 q 1024 -510 998 -487 l 998 -487 q 978 -470 964 -442 q 949 -415 942 -379 q 934 -343 934 -298 l 934 -298 l 934 -255 l 915 -250 l 915 -339 q 918 -412 946 -460 q 973 -509 1020 -533 q 1067 -558 1128 -558 z m 1557 -454 l 1583 -459 q 1588 -448 1590 -432 q 1592 -417 1592 -403 l 1592 -403 q 1592 -373 1583 -351 q 1574 -329 1557 -315 l 1557 -315 q 1531 -293 1496 -285 q 1461 -277 1407 -277 l 1407 -277 l 1380 -277 l 1380 -303 l 1404 -303 q 1454 -303 1484 -308 q 1514 -313 1534 -329 l 1534 -329 q 1548 -340 1557 -358 q 1565 -377 1565 -405 l 1565 -405 q 1565 -412 1563 -428 q 1561 -444 1557 -454 l 1557 -454 z"},"൸":{"ha":2077,"x_min":10,"x_max":2012,"o":"m 1345 -558 l 1345 -558 q 1394 -558 1424 -540 q 1454 -522 1471 -493 q 1487 -465 1493 -432 q 1499 -400 1500 -370 l 1500 -370 l 1497 -370 q 1511 -441 1550 -482 q 1588 -523 1642 -540 q 1695 -558 1754 -558 l 1754 -558 q 1805 -558 1846 -546 q 1886 -534 1917 -510 l 1917 -510 q 1948 -486 1969 -450 q 1990 -415 2001 -365 q 2012 -316 2012 -249 l 2012 -249 l 2012 0 l 1520 0 l 1520 -26 q 1603 -87 1670 -151 q 1737 -215 1777 -279 q 1816 -343 1816 -403 l 1816 -403 q 1816 -432 1806 -460 q 1796 -489 1772 -507 q 1748 -526 1706 -526 l 1706 -526 q 1666 -526 1634 -512 q 1602 -499 1576 -473 l 1576 -473 q 1537 -434 1522 -380 q 1507 -326 1507 -250 l 1507 -250 l 1507 -230 l 1481 -230 l 1481 -293 q 1481 -363 1474 -411 q 1467 -460 1441 -492 l 1441 -492 q 1426 -511 1403 -521 q 1379 -532 1345 -532 l 1345 -532 q 1312 -532 1289 -521 q 1265 -511 1250 -492 l 1250 -492 q 1224 -461 1217 -411 q 1209 -362 1209 -293 l 1209 -293 l 1209 -242 q 1209 -189 1205 -150 q 1200 -111 1189 -82 q 1177 -53 1156 -31 l 1156 -31 q 1137 -12 1110 0 q 1082 12 1047 12 l 1047 12 q 1006 12 979 -1 q 951 -15 931 -38 l 931 -38 q 913 -60 903 -86 q 893 -113 889 -150 q 885 -188 885 -242 l 885 -242 l 885 -294 q 885 -363 878 -412 q 871 -461 845 -492 l 845 -492 q 830 -511 807 -521 q 783 -532 749 -532 l 749 -532 q 716 -532 693 -521 q 669 -511 654 -492 l 654 -492 q 628 -461 621 -411 q 613 -362 613 -293 l 613 -293 l 613 -234 q 613 -155 601 -111 q 589 -67 561 -36 l 561 -36 q 540 -13 511 0 q 482 12 443 12 l 443 12 q 377 12 336 -28 q 295 -69 287 -143 l 287 -143 l 293 -144 q 285 -96 264 -61 q 242 -26 207 -7 q 171 12 119 12 l 119 12 q 92 12 64 6 q 36 0 10 -14 l 10 -14 l 20 -38 q 40 -27 65 -20 q 90 -14 119 -14 l 119 -14 q 157 -14 181 -23 q 205 -33 223 -49 l 223 -49 q 254 -78 266 -124 q 277 -170 277 -235 l 277 -235 l 277 -546 l 303 -546 l 303 -222 q 303 -158 316 -114 q 328 -71 356 -45 l 356 -45 q 373 -30 394 -22 q 415 -14 443 -14 l 443 -14 q 480 -14 505 -25 q 530 -37 546 -58 l 546 -58 q 568 -86 578 -130 q 587 -174 587 -255 l 587 -255 l 587 -304 q 587 -359 592 -398 q 596 -437 608 -465 q 619 -493 640 -515 l 640 -515 q 659 -535 687 -546 q 714 -558 749 -558 l 749 -558 q 790 -558 818 -544 q 846 -531 865 -508 l 865 -508 q 883 -486 893 -460 q 903 -434 907 -396 q 911 -359 911 -304 l 911 -304 l 911 -252 q 911 -183 919 -134 q 926 -86 951 -54 l 951 -54 q 966 -35 990 -24 q 1013 -14 1047 -14 l 1047 -14 q 1080 -14 1104 -24 q 1127 -35 1142 -54 l 1142 -54 q 1168 -86 1176 -135 q 1183 -184 1183 -253 l 1183 -253 l 1183 -304 q 1183 -359 1188 -398 q 1192 -437 1204 -465 q 1215 -493 1236 -515 l 1236 -515 q 1255 -535 1283 -546 q 1310 -558 1345 -558 z m 1843 -405 l 1843 -405 q 1843 -339 1804 -273 q 1764 -207 1696 -141 q 1628 -76 1540 -9 l 1540 -9 l 1543 -23 q 1577 -25 1626 -25 q 1675 -26 1718 -26 l 1718 -26 l 1986 -26 l 1986 -252 q 1986 -337 1963 -400 q 1940 -464 1888 -500 q 1836 -536 1748 -536 l 1748 -536 l 1744 -542 q 1803 -526 1823 -487 q 1843 -449 1843 -405 z"},"൹":{"ha":1090,"x_min":45,"x_max":1068,"o":"m 256 -558 l 256 -558 q 310 -558 347 -536 q 384 -514 405 -473 q 425 -432 429 -376 l 429 -376 l 436 -260 l 436 0 l 410 0 l 410 -312 q 410 -377 398 -422 q 386 -468 356 -496 l 356 -496 q 338 -513 315 -522 q 292 -532 258 -532 l 258 -532 q 194 -532 153 -498 q 112 -465 92 -409 q 72 -354 72 -288 l 72 -288 q 72 -219 89 -169 q 106 -120 136 -83 q 166 -47 204 -15 l 204 -15 l 189 6 q 148 -28 116 -67 q 83 -107 64 -160 q 45 -213 45 -288 l 45 -288 q 45 -370 71 -430 q 97 -491 145 -524 q 192 -558 256 -558 z m 630 -558 l 630 -558 q 691 -558 740 -534 q 789 -511 824 -469 q 859 -427 878 -369 q 896 -312 896 -244 l 896 -244 q 896 -146 874 -90 q 852 -34 811 -11 q 770 12 714 12 l 714 12 q 662 12 629 -10 q 595 -33 579 -68 q 563 -103 563 -142 l 563 -142 q 563 -176 575 -202 q 586 -228 606 -247 l 606 -247 q 628 -268 658 -280 q 688 -292 729 -297 q 770 -303 823 -303 l 823 -303 l 1068 -303 l 1068 -277 l 820 -277 q 754 -277 704 -267 q 654 -258 625 -230 l 625 -230 q 608 -214 599 -191 q 590 -169 590 -142 l 590 -142 q 590 -83 623 -48 q 656 -14 715 -14 l 715 -14 q 769 -14 803 -36 q 837 -59 853 -109 q 869 -160 869 -243 l 869 -243 q 869 -254 869 -265 q 868 -276 867 -286 l 867 -286 l 866 -296 q 857 -370 825 -422 q 793 -475 743 -503 q 693 -532 629 -532 l 629 -532 q 589 -532 558 -521 q 526 -510 500 -487 l 500 -487 q 480 -470 466 -442 q 451 -415 444 -379 q 436 -343 436 -298 l 436 -298 l 436 -197 l 417 -199 l 417 -339 q 420 -412 448 -460 q 475 -509 522 -533 q 569 -558 630 -558 z"},"ൺ":{"ha":1426,"x_min":48,"x_max":1383,"o":"m 330 -558 l 330 -558 q 418 -558 466 -516 q 514 -474 530 -404 l 530 -404 l 525 -401 q 536 -469 577 -513 q 617 -558 698 -558 l 698 -558 q 772 -558 815 -517 q 858 -477 865 -403 l 865 -403 l 869 -378 l 875 -311 l 875 0 l 849 0 l 849 -315 q 849 -379 841 -416 q 832 -454 810 -482 l 810 -482 q 792 -505 765 -518 q 737 -532 696 -532 l 696 -532 q 657 -532 629 -518 q 601 -505 583 -482 l 583 -482 q 561 -454 552 -414 q 542 -375 542 -316 l 542 -316 l 542 0 l 516 0 l 516 -312 q 516 -389 497 -431 q 477 -473 445 -498 l 445 -498 q 421 -516 395 -524 q 368 -532 329 -532 l 329 -532 q 250 -532 193 -492 q 135 -453 105 -385 q 74 -318 74 -232 l 74 -232 l 74 -226 q 74 -153 92 -106 q 109 -59 142 -36 q 174 -14 218 -14 l 218 -14 q 249 -14 275 -27 q 300 -40 316 -69 q 331 -99 331 -149 l 331 -149 q 331 -202 302 -239 q 272 -276 210 -276 l 210 -276 q 163 -276 122 -252 q 81 -229 58 -203 l 58 -203 l 53 -229 q 88 -267 130 -284 q 171 -302 211 -302 l 211 -302 q 251 -302 284 -285 q 317 -268 338 -234 q 358 -200 358 -149 l 358 -149 q 358 -94 339 -58 q 320 -23 289 -5 q 257 12 218 12 l 218 12 q 171 12 133 -11 q 94 -35 71 -87 q 48 -139 48 -225 l 48 -225 q 48 -324 83 -399 q 117 -474 181 -516 q 244 -558 330 -558 z m 1216 12 l 1216 12 q 1169 12 1131 -10 q 1092 -32 1070 -80 q 1047 -128 1047 -205 l 1047 -205 q 1047 -278 1071 -334 q 1094 -390 1130 -434 q 1165 -478 1202 -515 l 1202 -515 l 1209 -522 q 1251 -564 1272 -598 q 1292 -632 1292 -669 l 1292 -669 q 1292 -712 1268 -739 q 1244 -766 1189 -766 l 1189 -766 q 1163 -766 1142 -763 q 1120 -760 1103 -755 l 1103 -755 l 1096 -780 q 1113 -785 1138 -788 q 1163 -792 1189 -792 l 1189 -792 q 1235 -792 1264 -774 q 1292 -757 1306 -729 q 1319 -701 1319 -670 l 1319 -670 q 1319 -629 1295 -592 q 1270 -555 1231 -511 l 1231 -511 l 1221 -500 q 1177 -452 1144 -408 q 1111 -364 1093 -315 q 1074 -266 1074 -203 l 1074 -203 q 1074 -129 1094 -88 q 1114 -47 1147 -30 q 1180 -14 1217 -14 l 1217 -14 q 1279 -14 1318 -61 q 1357 -109 1357 -209 l 1357 -209 q 1357 -280 1339 -337 q 1320 -395 1287 -437 q 1253 -479 1207 -503 l 1207 -503 q 1178 -519 1145 -525 q 1112 -532 1072 -532 l 1072 -532 q 1029 -532 999 -522 q 968 -512 945 -493 l 945 -493 q 921 -474 906 -447 q 890 -421 883 -382 q 875 -343 875 -286 l 875 -286 l 875 -68 l 857 -68 l 861 -239 l 858 -381 q 869 -442 898 -481 q 926 -520 970 -539 q 1013 -558 1070 -558 l 1070 -558 q 1115 -558 1152 -549 q 1188 -541 1219 -524 l 1219 -524 q 1221 -523 1224 -522 q 1226 -521 1228 -519 l 1228 -519 q 1276 -491 1311 -445 q 1346 -399 1365 -339 q 1383 -280 1383 -210 l 1383 -210 q 1383 -104 1338 -46 q 1293 12 1216 12 z"},"ൻ":{"ha":987,"x_min":45,"x_max":944,"o":"m 256 -558 l 256 -558 q 310 -558 347 -536 q 384 -514 404 -473 q 424 -432 428 -374 l 428 -374 l 436 -260 l 436 0 l 410 0 l 410 -312 q 410 -377 398 -422 q 386 -468 356 -496 l 356 -496 q 338 -513 315 -522 q 292 -532 258 -532 l 258 -532 q 194 -532 153 -498 q 112 -465 92 -409 q 72 -354 72 -288 l 72 -288 q 72 -219 89 -169 q 106 -120 136 -83 q 166 -47 204 -15 l 204 -15 l 189 6 q 148 -28 116 -67 q 83 -107 64 -160 q 45 -213 45 -288 l 45 -288 q 45 -370 71 -430 q 97 -491 145 -524 q 192 -558 256 -558 z m 777 12 l 777 12 q 730 12 692 -10 q 653 -32 631 -80 q 608 -128 608 -205 l 608 -205 q 608 -278 632 -334 q 655 -390 691 -434 q 726 -478 763 -515 l 763 -515 l 770 -522 q 812 -564 833 -598 q 853 -632 853 -669 l 853 -669 q 853 -712 829 -739 q 805 -766 750 -766 l 750 -766 q 724 -766 703 -763 q 681 -760 664 -755 l 664 -755 l 657 -780 q 674 -785 699 -788 q 724 -792 750 -792 l 750 -792 q 796 -792 825 -774 q 853 -757 867 -729 q 880 -701 880 -670 l 880 -670 q 880 -629 856 -592 q 831 -555 792 -511 l 792 -511 l 782 -500 q 738 -452 705 -408 q 672 -364 654 -315 q 635 -266 635 -203 l 635 -203 q 635 -129 655 -88 q 675 -47 708 -30 q 741 -14 778 -14 l 778 -14 q 840 -14 879 -61 q 918 -109 918 -209 l 918 -209 q 918 -280 900 -337 q 881 -395 848 -437 q 814 -479 768 -503 l 768 -503 q 739 -519 706 -525 q 673 -532 633 -532 l 633 -532 q 590 -532 560 -522 q 529 -512 506 -493 l 506 -493 q 482 -474 467 -447 q 451 -421 444 -382 q 436 -343 436 -286 l 436 -286 l 436 -68 l 418 -68 l 422 -239 l 419 -381 q 430 -442 459 -481 q 487 -520 531 -539 q 575 -558 631 -558 l 631 -558 q 676 -558 713 -549 q 749 -541 780 -524 l 780 -524 q 782 -523 785 -522 q 787 -521 789 -519 l 789 -519 q 837 -491 872 -445 q 907 -399 926 -339 q 944 -280 944 -210 l 944 -210 q 944 -104 899 -46 q 854 12 777 12 z"},"ർ":{"ha":670,"x_min":43,"x_max":627,"o":"m 460 12 l 460 12 q 413 12 375 -10 q 336 -32 314 -80 q 291 -128 291 -205 l 291 -205 q 291 -278 315 -333 q 339 -389 375 -433 q 411 -477 446 -515 l 446 -515 l 453 -522 q 494 -566 515 -599 q 536 -632 536 -669 l 536 -669 q 536 -712 512 -739 q 488 -766 433 -766 l 433 -766 q 407 -766 386 -763 q 364 -760 347 -755 l 347 -755 l 340 -780 q 357 -785 382 -788 q 407 -792 433 -792 l 433 -792 q 479 -792 508 -774 q 536 -757 550 -729 q 563 -701 563 -670 l 563 -670 q 563 -629 540 -591 q 516 -553 475 -511 l 475 -511 l 465 -500 q 421 -453 388 -408 q 354 -364 336 -315 q 318 -266 318 -203 l 318 -203 q 318 -129 338 -88 q 358 -47 391 -30 q 424 -14 461 -14 l 461 -14 q 523 -14 562 -61 q 601 -109 601 -209 l 601 -209 q 601 -262 591 -307 q 580 -353 560 -390 q 540 -428 513 -456 q 485 -485 451 -503 l 451 -503 q 422 -519 390 -525 q 357 -532 320 -532 l 320 -532 q 247 -532 191 -500 q 134 -469 102 -411 q 70 -354 70 -276 l 70 -276 q 70 -215 86 -167 q 101 -120 131 -83 q 161 -46 204 -15 l 204 -15 l 189 6 q 152 -20 119 -57 q 85 -95 64 -148 q 43 -201 43 -275 l 43 -275 q 43 -339 64 -391 q 84 -443 122 -480 q 159 -518 210 -538 q 260 -558 320 -558 l 320 -558 q 361 -558 397 -549 q 432 -541 463 -524 l 463 -524 q 465 -523 468 -522 q 470 -521 472 -519 l 472 -519 q 520 -491 555 -445 q 590 -399 609 -339 q 627 -280 627 -210 l 627 -210 q 627 -104 582 -46 q 537 12 460 12 z"},"ൽ":{"ha":1075,"x_min":45,"x_max":1032,"o":"m 665 -558 l 665 -558 q 702 -558 736 -553 q 770 -549 802 -540 q 833 -531 860 -517 l 860 -517 l 871 -511 q 946 -471 989 -395 q 1032 -320 1032 -210 l 1032 -210 q 1032 -104 987 -46 q 942 12 865 12 l 865 12 q 818 12 780 -10 q 741 -32 719 -80 q 696 -128 696 -205 l 696 -205 q 696 -275 718 -328 q 740 -382 774 -425 q 807 -468 842 -506 l 842 -506 l 851 -515 q 894 -559 918 -595 q 941 -632 941 -669 l 941 -669 q 941 -712 917 -739 q 893 -766 838 -766 l 838 -766 q 812 -766 791 -763 q 769 -760 752 -755 l 752 -755 l 745 -780 q 762 -785 787 -788 q 812 -792 838 -792 l 838 -792 q 884 -792 913 -774 q 941 -757 955 -729 q 968 -701 968 -670 l 968 -670 q 968 -629 943 -589 q 918 -549 875 -505 l 875 -505 l 864 -493 q 821 -447 790 -403 q 758 -360 741 -312 q 723 -265 723 -203 l 723 -203 q 723 -129 743 -88 q 763 -47 796 -30 q 829 -14 866 -14 l 866 -14 q 928 -14 967 -61 q 1006 -109 1006 -209 l 1006 -209 q 1006 -281 987 -336 q 968 -391 934 -430 q 899 -469 852 -493 l 852 -493 l 842 -498 q 804 -515 760 -523 q 716 -532 667 -532 l 667 -532 q 617 -532 572 -523 q 527 -514 489 -496 l 489 -496 l 479 -490 q 409 -453 369 -381 q 329 -310 329 -205 l 329 -205 q 329 -137 347 -95 q 365 -53 397 -33 q 429 -14 472 -14 l 472 -14 q 513 -14 545 -35 q 576 -56 595 -99 q 613 -143 613 -210 l 613 -210 q 613 -265 595 -319 q 577 -373 544 -418 q 511 -464 465 -492 l 465 -492 l 457 -497 q 427 -514 393 -523 q 358 -532 320 -532 l 320 -532 q 235 -532 180 -497 q 125 -462 99 -403 q 72 -345 72 -276 l 72 -276 q 72 -214 88 -166 q 103 -118 133 -81 q 163 -44 206 -13 l 206 -13 l 191 8 q 154 -18 121 -56 q 87 -94 66 -147 q 45 -201 45 -275 l 45 -275 q 45 -336 64 -387 q 82 -439 117 -477 q 152 -516 204 -537 q 255 -558 321 -558 l 321 -558 q 365 -558 404 -546 q 443 -534 479 -511 l 479 -511 l 489 -505 q 557 -459 599 -379 q 640 -300 640 -210 l 640 -210 q 640 -134 618 -85 q 595 -36 557 -12 q 519 12 472 12 l 472 12 q 423 12 385 -11 q 346 -34 324 -82 q 302 -130 302 -206 l 302 -206 q 302 -278 321 -335 q 339 -392 374 -434 q 408 -477 455 -505 l 455 -505 l 467 -512 q 509 -536 560 -547 q 610 -558 665 -558 z"},"ൾ":{"ha":965,"x_min":49,"x_max":922,"o":"m 728 -792 l 728 -792 q 774 -792 803 -774 q 831 -757 845 -729 q 858 -701 858 -670 l 858 -670 q 858 -629 835 -591 q 811 -553 770 -511 l 770 -511 l 760 -500 q 716 -453 683 -408 q 649 -364 631 -315 q 613 -266 613 -203 l 613 -203 q 613 -129 633 -88 q 653 -47 686 -30 q 719 -14 756 -14 l 756 -14 q 818 -14 857 -61 q 896 -109 896 -209 l 896 -209 q 896 -262 886 -308 q 875 -354 855 -391 q 835 -429 808 -457 q 780 -486 746 -504 l 746 -504 q 717 -520 687 -526 q 656 -532 622 -532 l 622 -532 q 576 -532 542 -520 q 508 -508 485 -485 l 485 -485 q 454 -454 440 -405 q 425 -357 425 -275 l 425 -275 l 425 -255 q 425 -198 421 -158 q 416 -118 405 -90 q 394 -62 374 -38 l 374 -38 q 354 -14 323 -1 q 292 12 249 12 l 249 12 q 187 12 142 -20 q 97 -53 73 -114 q 49 -175 49 -258 l 49 -258 q 49 -333 68 -386 q 87 -440 120 -480 q 153 -520 194 -554 l 194 -554 l 209 -533 q 171 -501 141 -464 q 110 -427 93 -377 q 76 -328 76 -257 l 76 -257 q 76 -177 98 -123 q 120 -69 159 -41 q 197 -14 248 -14 l 248 -14 q 291 -14 317 -26 q 342 -38 359 -60 l 359 -60 q 385 -93 392 -143 q 399 -193 399 -273 l 399 -273 l 399 -287 q 399 -361 415 -413 q 430 -466 467 -503 l 467 -503 q 493 -529 532 -543 q 571 -558 621 -558 l 621 -558 q 660 -558 692 -550 q 724 -542 758 -525 l 758 -525 l 767 -520 q 815 -492 850 -446 q 885 -400 904 -340 q 922 -281 922 -210 l 922 -210 q 922 -104 877 -46 q 832 12 755 12 l 755 12 q 708 12 670 -10 q 631 -32 609 -80 q 586 -128 586 -205 l 586 -205 q 586 -278 610 -333 q 634 -389 670 -433 q 706 -477 741 -515 l 741 -515 l 748 -522 q 789 -566 810 -599 q 831 -632 831 -669 l 831 -669 q 831 -712 807 -739 q 783 -766 728 -766 l 728 -766 q 702 -766 681 -763 q 659 -760 642 -755 l 642 -755 l 635 -780 q 652 -785 677 -788 q 702 -792 728 -792 z"},"ൿ":{"ha":1093,"x_min":38,"x_max":1055,"o":"m 491 -558 l 491 -558 q 560 -558 604 -523 q 648 -489 669 -426 q 689 -363 689 -275 l 689 -275 q 689 -174 664 -110 q 639 -47 594 -17 q 549 12 489 12 l 489 12 q 441 12 407 -6 q 372 -24 349 -54 l 349 -54 q 317 -95 304 -154 q 290 -213 290 -275 l 290 -275 q 290 -409 343 -483 q 396 -558 491 -558 z m 491 -532 l 491 -532 q 405 -532 361 -464 q 316 -396 316 -274 l 316 -274 q 316 -187 337 -129 q 358 -72 397 -43 q 435 -14 487 -14 l 487 -14 q 542 -14 582 -40 q 621 -67 642 -125 q 663 -183 663 -276 l 663 -276 q 663 -364 643 -420 q 623 -477 585 -504 q 547 -532 491 -532 z m 192 12 l 192 12 q 119 12 79 -28 q 38 -68 38 -141 l 38 -141 q 38 -181 54 -209 q 69 -237 94 -255 l 94 -255 q 121 -275 153 -285 q 185 -295 226 -298 q 267 -302 319 -302 l 319 -302 l 826 -302 q 885 -302 926 -293 q 967 -285 998 -262 l 998 -262 q 1024 -243 1040 -214 q 1055 -186 1055 -143 l 1055 -143 q 1055 -65 1016 -26 q 976 12 912 12 l 912 12 q 847 12 807 -31 q 766 -75 766 -151 l 766 -151 q 766 -178 775 -213 q 783 -248 799 -283 l 799 -283 q 801 -286 803 -289 q 804 -293 805 -297 l 805 -297 q 818 -324 835 -357 q 852 -390 874 -431 l 874 -431 q 910 -497 928 -538 q 946 -579 952 -607 q 958 -636 958 -664 l 958 -664 q 958 -711 934 -738 q 910 -766 855 -766 l 855 -766 q 829 -766 808 -763 q 786 -760 769 -755 l 769 -755 l 762 -780 q 779 -785 804 -788 q 829 -792 855 -792 l 855 -792 q 901 -792 930 -774 q 958 -757 972 -728 q 985 -699 985 -664 l 985 -664 q 985 -642 982 -618 q 978 -595 969 -567 q 959 -539 942 -503 q 924 -467 897 -418 l 897 -418 q 876 -381 861 -351 q 845 -322 834 -298 l 834 -298 q 833 -295 832 -291 q 830 -287 828 -285 l 828 -285 q 809 -245 801 -210 q 793 -176 793 -151 l 793 -151 q 793 -102 810 -72 q 826 -42 854 -28 q 881 -14 912 -14 l 912 -14 q 970 -14 999 -46 q 1028 -79 1028 -143 l 1028 -143 q 1028 -177 1016 -201 q 1004 -225 983 -241 l 983 -241 q 958 -260 924 -268 q 889 -276 827 -276 l 827 -276 l 313 -276 q 246 -276 196 -269 q 146 -262 111 -236 l 111 -236 q 90 -221 78 -197 q 65 -174 65 -140 l 65 -140 q 65 -91 83 -63 q 101 -36 131 -25 q 161 -14 195 -14 l 195 -14 q 241 -14 275 -28 q 309 -42 354 -73 l 354 -73 l 371 -53 q 346 -35 320 -20 q 293 -5 263 4 q 232 12 192 12 z"},"!":{"ha":234,"x_min":91,"x_max":143,"o":"m 129 -174 l 105 -174 l 103 -714 l 131 -714 l 129 -174 z m 116 8 l 116 8 q 101 8 96 -1 q 91 -10 91 -23 l 91 -23 q 91 -35 96 -44 q 101 -54 116 -54 l 116 -54 q 134 -54 139 -44 q 143 -35 143 -23 l 143 -23 q 143 -10 139 -1 q 134 8 116 8 z"},"\"":{"ha":361,"x_min":95,"x_max":267,"o":"m 119 -542 l 98 -542 l 95 -800 l 123 -800 l 119 -542 z m 263 -542 l 242 -542 l 239 -800 l 267 -800 l 263 -542 z"},"#":{"ha":646,"x_min":28,"x_max":618,"o":"m 157 0 l 130 0 l 173 -226 l 28 -226 l 28 -252 l 178 -252 l 217 -462 l 72 -462 l 72 -488 l 222 -488 l 265 -714 l 292 -714 l 249 -488 l 446 -488 l 489 -714 l 516 -714 l 473 -488 l 618 -488 l 618 -462 l 468 -462 l 429 -252 l 574 -252 l 574 -226 l 424 -226 l 381 0 l 354 0 l 397 -226 l 200 -226 l 157 0 z m 244 -462 l 205 -252 l 402 -252 l 441 -462 l 244 -462 z"},"%":{"ha":793,"x_min":59,"x_max":734,"o":"m 215 0 l 185 0 l 578 -714 l 608 -714 l 215 0 z m 195 -276 l 195 -276 q 129 -276 94 -333 q 59 -390 59 -501 l 59 -501 q 59 -612 96 -668 q 133 -724 197 -724 l 197 -724 q 266 -724 300 -667 q 333 -610 333 -501 l 333 -501 q 333 -388 297 -332 q 260 -276 195 -276 z m 195 -302 l 195 -302 q 251 -302 279 -353 q 306 -404 306 -501 l 306 -501 q 306 -597 280 -647 q 254 -698 197 -698 l 197 -698 q 145 -698 116 -649 q 86 -601 86 -501 l 86 -501 q 86 -402 115 -352 q 143 -302 195 -302 z m 596 10 l 596 10 q 530 10 495 -47 q 460 -104 460 -215 l 460 -215 q 460 -326 497 -382 q 534 -438 598 -438 l 598 -438 q 667 -438 701 -381 q 734 -324 734 -215 l 734 -215 q 734 -102 698 -46 q 661 10 596 10 z m 596 -16 l 596 -16 q 652 -16 680 -67 q 707 -118 707 -215 l 707 -215 q 707 -311 681 -361 q 655 -412 598 -412 l 598 -412 q 546 -412 517 -363 q 487 -315 487 -215 l 487 -215 q 487 -116 516 -66 q 544 -16 596 -16 z"},"'":{"ha":217,"x_min":95,"x_max":123,"o":"m 119 -542 l 98 -542 l 95 -800 l 123 -800 l 119 -542 z"},"(":{"ha":275,"x_min":60,"x_max":245,"o":"m 60 -276 l 60 -276 q 60 -382 78 -476 q 96 -570 130 -651 q 164 -733 212 -800 l 212 -800 l 245 -800 q 192 -728 157 -644 q 121 -561 104 -468 q 87 -376 87 -277 l 87 -277 q 87 -178 104 -86 q 121 6 157 89 q 192 172 245 244 l 245 244 l 212 244 q 164 177 130 97 q 96 16 78 -77 q 60 -171 60 -276 z"},")":{"ha":275,"x_min":30,"x_max":215,"o":"m 215 -280 l 215 -280 q 215 -175 197 -80 q 179 14 145 95 q 111 176 63 244 l 63 244 l 30 244 q 84 172 119 89 q 154 5 171 -87 q 188 -180 188 -279 l 188 -279 q 188 -379 171 -470 q 154 -562 119 -645 q 84 -728 30 -800 l 30 -800 l 63 -800 q 111 -733 145 -652 q 179 -572 197 -479 q 215 -386 215 -280 z"},"*":{"ha":513,"x_min":46,"x_max":467,"o":"m 243 -800 l 271 -800 l 268 -597 l 459 -663 l 467 -636 l 274 -578 l 396 -416 l 373 -399 l 257 -567 l 142 -400 l 119 -416 l 240 -578 l 46 -636 l 55 -663 l 246 -597 l 243 -800 z"},"+":{"ha":572,"x_min":56,"x_max":516,"o":"m 299 -123 l 273 -123 l 273 -340 l 56 -340 l 56 -366 l 273 -366 l 273 -583 l 299 -583 l 299 -366 l 516 -366 l 516 -340 l 299 -340 l 299 -123 z"},",":{"ha":206,"x_min":37,"x_max":125,"o":"m 94 -116 l 119 -116 l 125 -107 q 120 -66 110 -25 q 100 16 87 55 q 74 94 59 129 l 59 129 l 37 129 q 51 94 63 51 q 74 8 83 -36 q 91 -80 94 -116 l 94 -116 z"},"-":{"ha":320,"x_min":40,"x_max":280,"o":"m 280 -256 l 40 -256 l 40 -282 l 280 -282 l 280 -256 z"},".":{"ha":206,"x_min":77,"x_max":129,"o":"m 102 8 l 102 8 q 87 8 82 -1 q 77 -10 77 -23 l 77 -23 q 77 -35 82 -44 q 87 -54 102 -54 l 102 -54 q 120 -54 125 -44 q 129 -35 129 -23 l 129 -23 q 129 -10 125 -1 q 120 8 102 8 z"},"/":{"ha":345,"x_min":26,"x_max":319,"o":"m 53 244 l 26 244 l 292 -800 l 319 -800 l 53 244 z"},":":{"ha":206,"x_min":77,"x_max":129,"o":"m 102 8 l 102 8 q 87 8 82 -1 q 77 -10 77 -23 l 77 -23 q 77 -35 82 -44 q 87 -54 102 -54 l 102 -54 q 120 -54 125 -44 q 129 -35 129 -23 l 129 -23 q 129 -10 125 -1 q 120 8 102 8 z m 102 -480 l 102 -480 q 87 -480 82 -489 q 77 -498 77 -511 l 77 -511 q 77 -523 82 -532 q 87 -542 102 -542 l 102 -542 q 120 -542 125 -532 q 129 -523 129 -511 l 129 -511 q 129 -498 125 -489 q 120 -480 102 -480 z"},";":{"ha":206,"x_min":37,"x_max":129,"o":"m 94 -116 l 119 -116 l 125 -107 q 120 -66 110 -25 q 100 16 87 55 q 74 94 59 129 l 59 129 l 37 129 q 52 94 64 51 q 75 7 83 -36 q 91 -80 94 -116 l 94 -116 z m 102 -480 l 102 -480 q 87 -480 82 -489 q 77 -498 77 -511 l 77 -511 q 77 -523 82 -532 q 87 -542 102 -542 l 102 -542 q 120 -542 125 -532 q 129 -523 129 -511 l 129 -511 q 129 -498 125 -489 q 120 -480 102 -480 z"},"<":{"ha":572,"x_min":57,"x_max":515,"o":"m 515 -155 l 515 -127 l 57 -342 l 57 -364 l 515 -579 l 515 -551 l 90 -353 l 515 -155 z"},"=":{"ha":572,"x_min":56,"x_max":516,"o":"m 516 -238 l 56 -238 l 56 -264 l 516 -264 l 516 -238 z m 516 -442 l 56 -442 l 56 -468 l 516 -468 l 516 -442 z"},">":{"ha":572,"x_min":57,"x_max":515,"o":"m 515 -342 l 57 -127 l 57 -155 l 482 -353 l 57 -551 l 57 -579 l 515 -364 l 515 -342 z"},"?":{"ha":413,"x_min":38,"x_max":374,"o":"m 185 -724 l 185 -724 q 269 -724 322 -681 q 374 -639 374 -554 l 374 -554 q 374 -504 358 -468 q 341 -433 312 -405 q 282 -378 242 -350 l 242 -350 q 214 -331 198 -310 q 182 -290 176 -261 q 169 -232 169 -186 l 169 -186 l 169 -174 l 143 -174 l 143 -186 q 143 -235 150 -267 q 157 -299 176 -323 q 195 -347 229 -371 l 229 -371 q 265 -397 292 -421 q 318 -446 333 -477 q 347 -508 347 -553 l 347 -553 q 347 -628 301 -663 q 255 -698 184 -698 l 184 -698 q 147 -698 114 -689 q 80 -680 49 -662 l 49 -662 l 38 -686 q 72 -705 109 -714 q 145 -724 185 -724 z m 156 8 l 156 8 q 141 8 136 -1 q 131 -10 131 -23 l 131 -23 q 131 -35 136 -44 q 141 -54 156 -54 l 156 -54 q 174 -54 179 -44 q 183 -35 183 -23 l 183 -23 q 183 -10 179 -1 q 174 8 156 8 z"},"[":{"ha":307,"x_min":94,"x_max":266,"o":"m 266 244 l 94 244 l 94 -800 l 266 -800 l 266 -774 l 120 -774 l 120 218 l 266 218 l 266 244 z"},"\\":{"ha":345,"x_min":26,"x_max":319,"o":"m 319 244 l 292 244 l 26 -800 l 53 -800 l 319 244 z"},"]":{"ha":313,"x_min":47,"x_max":219,"o":"m 219 244 l 47 244 l 47 218 l 193 218 l 193 -774 l 47 -774 l 47 -800 l 219 -800 l 219 244 z"},"^":{"ha":572,"x_min":47,"x_max":523,"o":"m 76 -278 l 47 -278 l 273 -719 l 297 -719 l 523 -278 l 494 -278 l 285 -688 l 76 -278 z"},"_":{"ha":444,"x_min":-2,"x_max":446,"o":"m 446 115 l -2 115 l -2 90 l 446 90 l 446 115 z"},"{":{"ha":344,"x_min":30,"x_max":305,"o":"m 305 218 l 305 244 q 247 244 211 231 q 174 218 158 189 q 141 160 141 111 l 141 111 l 141 -151 q 141 -215 116 -240 q 91 -265 30 -265 l 30 -265 l 30 -291 q 91 -291 116 -317 q 141 -344 141 -408 l 141 -408 l 141 -664 q 141 -708 160 -738 q 178 -768 215 -784 q 251 -800 305 -800 l 305 -800 l 305 -774 q 233 -774 200 -746 q 167 -719 167 -658 l 167 -658 l 167 -404 q 167 -353 150 -320 q 133 -287 89 -279 l 89 -279 l 89 -277 q 132 -267 150 -239 q 167 -211 167 -155 l 167 -155 l 167 105 q 167 148 180 173 q 192 198 222 208 q 252 218 305 218 l 305 218 z"},"|":{"ha":512,"x_min":243,"x_max":269,"o":"m 269 244 l 243 244 l 243 -800 l 269 -800 l 269 244 z"},"}":{"ha":344,"x_min":39,"x_max":314,"o":"m 39 -774 l 39 -800 q 98 -800 134 -787 q 170 -774 187 -745 q 203 -716 203 -667 l 203 -667 l 203 -405 q 203 -341 228 -316 q 253 -291 314 -291 l 314 -291 l 314 -265 q 253 -265 228 -239 q 203 -213 203 -148 l 203 -148 l 203 108 q 203 151 185 182 q 166 212 130 228 q 93 244 39 244 l 39 244 l 39 218 q 111 218 144 191 q 177 163 177 102 l 177 102 l 177 -152 q 177 -203 195 -236 q 212 -269 255 -277 l 255 -277 l 255 -279 q 212 -289 195 -317 q 177 -345 177 -401 l 177 -401 l 177 -661 q 177 -705 165 -729 q 152 -754 122 -764 q 92 -774 39 -774 l 39 -774 z"},"~":{"ha":572,"x_min":56,"x_max":516,"o":"m 280 -341 l 280 -341 q 253 -355 227 -363 q 201 -372 171 -372 l 171 -372 q 142 -372 114 -359 q 85 -347 56 -318 l 56 -318 l 56 -350 q 79 -372 109 -385 q 138 -398 171 -398 l 171 -398 q 204 -398 233 -389 q 262 -380 292 -365 l 292 -365 q 319 -352 345 -343 q 371 -334 401 -334 l 401 -334 q 430 -334 459 -346 q 488 -359 516 -388 l 516 -388 l 516 -356 q 494 -334 464 -321 q 434 -308 401 -308 l 401 -308 q 368 -308 339 -317 q 310 -326 280 -341 z"}," ":{"ha":309,"x_min":0,"x_max":0,"o":""},"­":{"ha":320,"x_min":40,"x_max":280,"o":"m 280 -256 l 40 -256 l 40 -282 l 280 -282 l 280 -256 z"},"–":{"ha":500,"x_min":40,"x_max":460,"o":"m 460 -257 l 40 -257 l 40 -283 l 460 -283 l 460 -257 z"},"—":{"ha":1000,"x_min":40,"x_max":960,"o":"m 960 -257 l 40 -257 l 40 -283 l 960 -283 l 960 -257 z"},"‘":{"ha":180,"x_min":46,"x_max":134,"o":"m 77 -555 l 52 -555 l 46 -564 q 52 -605 62 -646 q 71 -687 84 -726 q 97 -766 112 -800 l 112 -800 l 134 -800 q 120 -765 108 -721 q 96 -678 89 -634 q 81 -591 77 -555 l 77 -555 z"},"’":{"ha":180,"x_min":46,"x_max":134,"o":"m 103 -800 l 128 -800 l 134 -791 q 129 -750 119 -709 q 109 -668 96 -629 q 83 -590 68 -555 l 68 -555 l 46 -555 q 57 -581 66 -612 q 75 -644 83 -677 q 90 -710 95 -741 q 100 -773 103 -800 l 103 -800 z"},"“":{"ha":324,"x_min":46,"x_max":278,"o":"m 221 -555 l 196 -555 l 190 -564 q 196 -605 206 -646 q 215 -687 228 -726 q 241 -766 256 -800 l 256 -800 l 278 -800 q 264 -765 252 -721 q 240 -678 233 -634 q 225 -591 221 -555 l 221 -555 z m 77 -555 l 52 -555 l 46 -564 q 52 -605 62 -646 q 71 -687 84 -726 q 97 -766 112 -800 l 112 -800 l 134 -800 q 120 -765 108 -721 q 96 -678 89 -634 q 81 -591 77 -555 l 77 -555 z"},"”":{"ha":324,"x_min":46,"x_max":278,"o":"m 247 -800 l 272 -800 l 278 -791 q 273 -750 263 -709 q 253 -668 240 -629 q 227 -590 212 -555 l 212 -555 l 190 -555 q 205 -590 217 -633 q 228 -677 236 -720 q 244 -764 247 -800 l 247 -800 z m 103 -800 l 128 -800 l 134 -791 q 129 -750 119 -709 q 109 -668 96 -629 q 83 -590 68 -555 l 68 -555 l 46 -555 q 57 -581 66 -612 q 75 -644 83 -677 q 90 -710 95 -741 q 100 -773 103 -800 l 103 -800 z"},"…":{"ha":617,"x_min":77,"x_max":540,"o":"m 102 8 l 102 8 q 87 8 82 -1 q 77 -10 77 -23 l 77 -23 q 77 -35 82 -44 q 87 -54 102 -54 l 102 -54 q 120 -54 125 -44 q 129 -35 129 -23 l 129 -23 q 129 -10 125 -1 q 120 8 102 8 z m 307 8 l 307 8 q 292 8 287 -1 q 282 -10 282 -23 l 282 -23 q 282 -35 287 -44 q 292 -54 307 -54 l 307 -54 q 325 -54 330 -44 q 334 -35 334 -23 l 334 -23 q 334 -10 330 -1 q 325 8 307 8 z m 513 8 l 513 8 q 498 8 493 -1 q 488 -10 488 -23 l 488 -23 q 488 -35 493 -44 q 498 -54 513 -54 l 513 -54 q 531 -54 536 -44 q 540 -35 540 -23 l 540 -23 q 540 -10 536 -1 q 531 8 513 8 z"},"×":{"ha":572,"x_min":72,"x_max":500,"o":"m 286 -371 l 482 -567 l 500 -549 l 304 -353 l 500 -157 l 482 -139 l 286 -335 l 90 -139 l 72 -157 l 268 -353 l 72 -549 l 90 -567 l 286 -371 z"},"÷":{"ha":572,"x_min":56,"x_max":516,"o":"m 516 -340 l 56 -340 l 56 -366 l 516 -366 l 516 -340 z m 285 -144 l 285 -144 q 270 -144 265 -153 q 260 -162 260 -175 l 260 -175 q 260 -187 265 -196 q 270 -206 285 -206 l 285 -206 q 303 -206 308 -196 q 312 -187 312 -175 l 312 -175 q 312 -162 308 -153 q 303 -144 285 -144 z m 285 -500 l 285 -500 q 270 -500 265 -509 q 260 -518 260 -531 l 260 -531 q 260 -543 265 -552 q 270 -562 285 -562 l 285 -562 q 303 -562 308 -552 q 312 -543 312 -531 l 312 -531 q 312 -518 308 -509 q 303 -500 285 -500 z"},"−":{"ha":572,"x_min":56,"x_max":516,"o":"m 516 -340 l 56 -340 l 56 -366 l 516 -366 l 516 -340 z"},"₹":{"ha":572,"x_min":78,"x_max":505,"o":"m 370 0 l 336 0 l 84 -314 l 87 -337 l 113 -337 q 172 -337 208 -349 q 243 -362 266 -386 l 266 -386 q 286 -408 296 -438 q 306 -469 306 -509 l 306 -509 q 306 -543 301 -568 q 295 -593 283 -615 l 283 -615 q 264 -650 228 -669 q 191 -689 123 -689 l 123 -689 l 78 -689 l 78 -714 l 505 -714 l 505 -689 l 225 -689 q 275 -674 304 -630 q 332 -586 332 -512 l 332 -512 q 332 -447 309 -402 q 286 -358 236 -335 q 186 -312 106 -312 l 106 -312 l 111 -321 l 370 0 z m 505 -501 l 78 -501 l 78 -526 l 505 -526 l 505 -501 z"},"꠰":{"ha":196,"x_min":85,"x_max":111,"o":"m 85 0 l 85 -546 l 111 -546 l 111 0 l 85 0 z"},"꠱":{"ha":384,"x_min":85,"x_max":299,"o":"m 85 0 l 85 -546 l 111 -546 l 111 0 l 85 0 z m 273 0 l 273 -546 l 299 -546 l 299 0 l 273 0 z"},"꠲":{"ha":572,"x_min":85,"x_max":487,"o":"m 85 0 l 85 -546 l 111 -546 l 111 0 l 85 0 z m 273 0 l 273 -546 l 299 -546 l 299 0 l 273 0 z m 461 0 l 461 -546 l 487 -546 l 487 0 l 461 0 z"},"॑":{"ha":0,"x_min":-290,"x_max":-264,"o":"m -290 -653 l -290 -864 l -264 -864 l -264 -653 l -290 -653 z"},"॒":{"ha":0,"x_min":-464,"x_max":-91,"o":"m -91 132 l -91 157 l -464 157 l -464 132 l -91 132 z"},"।":{"ha":308,"x_min":188,"x_max":214,"o":"m 214 49 l 188 49 l 188 -595 l 214 -595 l 214 49 z"},"॥":{"ha":516,"x_min":188,"x_max":422,"o":"m 422 49 l 396 49 l 396 -595 l 422 -595 l 422 49 z m 214 49 l 188 49 l 188 -595 l 214 -595 l 214 49 z"},"᳚":{"ha":0,"x_min":-348,"x_max":-209,"o":"m -348 -653 l -348 -864 l -322 -864 l -322 -653 l -348 -653 z m -235 -653 l -235 -864 l -209 -864 l -209 -653 l -235 -653 z"},"̇":{"ha":0,"x_min":-304,"x_max":-252,"o":"m -304 -701 l -304 -701 q -304 -713 -299 -722 q -294 -732 -279 -732 l -279 -732 q -261 -732 -256 -722 q -252 -713 -252 -701 l -252 -701 q -252 -688 -256 -679 q -261 -670 -279 -670 l -279 -670 q -294 -670 -299 -679 q -304 -688 -304 -701 z"},"̣":{"ha":0,"x_min":-304,"x_max":-252,"o":"m -304 135 l -304 135 q -304 123 -299 114 q -294 104 -279 104 l -279 104 q -261 104 -256 114 q -252 123 -252 135 l -252 135 q -252 148 -256 157 q -261 166 -279 166 l -279 166 q -294 166 -299 157 q -304 148 -304 135 z"},"‐":{"ha":320,"x_min":40,"x_max":280,"o":"m 280 -256 l 40 -256 l 40 -282 l 280 -282 l 280 -256 z"},"​":{"ha":0,"x_min":0,"x_max":0,"o":""},"‌":{"ha":0,"x_min":0,"x_max":0,"o":""},"‍":{"ha":0,"x_min":-161,"x_max":161,"o":"m 29 244 l -29 244 l -29 -565 l -121 -474 l -161 -514 l -40 -631 l -161 -748 l -121 -788 l 0 -669 l 121 -788 l 161 -748 l 40 -631 l 161 -514 l 121 -474 l 29 -565 l 29 244 z"},"◌":{"ha":562,"x_min":57,"x_max":504,"o":"m 89 -231 l 89 -231 q 57 -231 57 -264 l 57 -264 q 57 -295 89 -295 l 89 -295 q 121 -295 121 -264 l 121 -264 q 121 -231 89 -231 z m 138 -95 l 138 -95 q 106 -95 106 -127 l 106 -127 q 106 -158 138 -158 l 138 -158 q 169 -158 169 -127 l 169 -127 q 169 -95 138 -95 z m 281 -40 l 281 -40 q 249 -40 249 -72 l 249 -72 q 249 -104 281 -104 l 281 -104 q 312 -104 312 -72 l 312 -72 q 312 -40 281 -40 z m 138 -369 l 138 -369 q 106 -369 106 -401 l 106 -401 q 106 -432 138 -432 l 138 -432 q 169 -432 169 -401 l 169 -401 q 169 -369 138 -369 z m 423 -95 l 423 -95 q 391 -95 391 -127 l 391 -127 q 391 -158 423 -158 l 423 -158 q 455 -158 455 -127 l 455 -127 q 455 -95 423 -95 z m 281 -424 l 281 -424 q 249 -424 249 -456 l 249 -456 q 249 -487 281 -487 l 281 -487 q 312 -487 312 -456 l 312 -456 q 312 -424 281 -424 z m 472 -231 l 472 -231 q 441 -231 441 -264 l 441 -264 q 441 -295 472 -295 l 472 -295 q 504 -295 504 -264 l 504 -264 q 504 -231 472 -231 z m 423 -369 l 423 -369 q 391 -369 391 -401 l 391 -401 q 391 -432 423 -432 l 423 -432 q 455 -432 455 -401 l 455 -401 q 455 -369 423 -369 z"},"«":{"ha":389,"x_min":26,"x_max":363,"o":"m 26 -272 l 26 -285 l 178 -472 l 194 -460 l 57 -279 l 194 -98 l 178 -87 l 26 -272 z m 195 -272 l 195 -285 l 347 -472 l 363 -460 l 226 -279 l 363 -98 l 347 -87 l 195 -272 z"},"»":{"ha":389,"x_min":26,"x_max":363,"o":"m 363 -287 l 363 -274 l 211 -87 l 195 -99 l 332 -280 l 195 -461 l 211 -472 l 363 -287 z m 194 -287 l 194 -274 l 42 -87 l 26 -99 l 163 -280 l 26 -461 l 42 -472 l 194 -287 z"},"̈":{"ha":0,"x_min":-117,"x_max":116,"o":"m -117 -678 l -117 -678 q -117 -690 -112 -699 q -107 -709 -94 -709 l -94 -709 q -77 -709 -73 -699 q -69 -690 -69 -678 l -69 -678 q -69 -665 -73 -656 q -77 -647 -94 -647 l -94 -647 q -107 -647 -112 -656 q -117 -665 -117 -678 z m 68 -678 l 68 -678 q 68 -690 73 -699 q 78 -709 91 -709 l 91 -709 q 108 -709 112 -699 q 116 -690 116 -678 l 116 -678 q 116 -665 112 -656 q 108 -647 91 -647 l 91 -647 q 78 -647 73 -656 q 68 -665 68 -678 z"},"̀":{"ha":0,"x_min":-446,"x_max":-277,"o":"m -446 -766 l -416 -766 q -401 -745 -377 -716 q -353 -688 -326 -660 q -299 -632 -277 -612 l -277 -612 l -277 -606 l -298 -606 q -318 -623 -338 -642 q -359 -662 -378 -682 q -398 -703 -415 -722 q -433 -742 -446 -759 l -446 -759 l -446 -766 z"},"́":{"ha":0,"x_min":-210,"x_max":-41,"o":"m -41 -766 l -41 -759 q -54 -742 -71 -722 q -89 -703 -108 -682 q -128 -662 -148 -642 q -169 -623 -189 -606 l -189 -606 l -210 -606 l -210 -612 q -187 -632 -160 -660 q -134 -688 -109 -716 q -85 -745 -71 -766 l -71 -766 l -41 -766 z"},"̋":{"ha":0,"x_min":-92,"x_max":207,"o":"m 207 -766 l 207 -759 q 196 -741 182 -721 q 168 -702 153 -681 q 137 -661 121 -642 q 105 -623 89 -606 l 89 -606 l 68 -606 l 68 -612 q 86 -632 107 -659 q 128 -686 147 -715 q 166 -744 177 -766 l 177 -766 l 207 -766 z m 47 -766 l 47 -759 q 36 -741 22 -721 q 8 -702 -7 -681 q -23 -661 -39 -642 q -55 -623 -71 -606 l -71 -606 l -92 -606 l -92 -612 q -74 -632 -53 -659 q -32 -686 -13 -715 q 6 -744 17 -766 l 17 -766 l 47 -766 z"},"̄":{"ha":0,"x_min":-129,"x_max":126,"o":"m -129 -638 l 126 -638 l 126 -614 l -129 -614 l -129 -638 z"},"˙":{"ha":132,"x_min":40,"x_max":92,"o":"m 65 -721 l 65 -721 q 83 -721 88 -711 q 92 -702 92 -690 l 92 -690 q 92 -677 88 -668 q 83 -659 65 -659 l 65 -659 q 50 -659 45 -668 q 40 -677 40 -690 l 40 -690 q 40 -702 45 -711 q 50 -721 65 -721 z"},"°":{"ha":428,"x_min":71,"x_max":357,"o":"m 214 -441 l 214 -441 q 174 -441 142 -458 q 109 -476 90 -508 q 71 -540 71 -583 l 71 -583 q 71 -626 90 -657 q 109 -689 142 -706 q 174 -724 214 -724 l 214 -724 q 255 -724 288 -706 q 320 -688 339 -656 q 357 -625 357 -583 l 357 -583 q 357 -540 339 -508 q 320 -476 288 -458 q 255 -441 214 -441 z m 213 -466 l 213 -466 q 264 -466 297 -499 q 330 -532 330 -583 l 330 -583 q 330 -636 297 -667 q 264 -699 213 -699 l 213 -699 q 161 -699 130 -667 q 98 -636 98 -583 l 98 -583 q 98 -532 130 -499 q 161 -466 213 -466 z"},"A":{"ha":577,"x_min":0,"x_max":577,"o":"m 577 0 l 549 0 l 445 -271 l 135 -271 l 28 0 l 0 0 l 282 -716 l 307 -716 l 577 0 z m 435 -296 l 325 -594 q 321 -606 316 -619 q 311 -632 306 -648 q 300 -664 293 -682 l 293 -682 q 288 -667 283 -651 q 277 -636 271 -621 q 265 -607 260 -593 l 260 -593 l 144 -296 l 435 -296 z"},"Á":{"ha":577,"x_min":0,"x_max":577,"o":"m 577 0 l 549 0 l 445 -271 l 135 -271 l 28 0 l 0 0 l 282 -716 l 307 -716 l 577 0 z m 435 -296 l 325 -594 q 321 -606 316 -619 q 311 -632 306 -648 q 300 -664 293 -682 l 293 -682 q 288 -667 283 -651 q 277 -636 271 -621 q 265 -607 260 -593 l 260 -593 l 144 -296 l 435 -296 z m 414 -952 l 414 -945 q 401 -928 384 -908 q 366 -889 347 -868 q 327 -848 307 -828 q 286 -809 266 -792 l 266 -792 l 245 -792 l 245 -798 q 268 -818 295 -846 q 321 -874 346 -902 q 370 -931 384 -952 l 384 -952 l 414 -952 z"},"Ă":{"ha":577,"x_min":0,"x_max":577,"o":"m 577 0 l 549 0 l 445 -271 l 135 -271 l 28 0 l 0 0 l 282 -716 l 307 -716 l 577 0 z m 435 -296 l 325 -594 q 321 -606 316 -619 q 311 -632 306 -648 q 300 -664 293 -682 l 293 -682 q 288 -667 283 -651 q 277 -636 271 -621 q 265 -607 260 -593 l 260 -593 l 144 -296 l 435 -296 z m 387 -904 l 412 -904 q 408 -868 393 -843 q 377 -818 351 -805 q 325 -792 289 -792 l 289 -792 q 235 -792 204 -820 q 172 -849 167 -904 l 167 -904 l 192 -904 q 195 -878 206 -858 q 217 -838 238 -827 q 259 -816 289 -816 l 289 -816 q 322 -816 343 -827 q 363 -838 374 -858 q 384 -878 387 -904 l 387 -904 z"},"Â":{"ha":577,"x_min":0,"x_max":577,"o":"m 577 0 l 549 0 l 445 -271 l 135 -271 l 28 0 l 0 0 l 282 -716 l 307 -716 l 577 0 z m 435 -296 l 325 -594 q 321 -606 316 -619 q 311 -632 306 -648 q 300 -664 293 -682 l 293 -682 q 288 -667 283 -651 q 277 -636 271 -621 q 265 -607 260 -593 l 260 -593 l 144 -296 l 435 -296 z m 279 -949 l 301 -949 q 313 -929 333 -901 q 353 -874 375 -846 q 397 -819 415 -798 l 415 -798 l 415 -792 l 394 -792 q 366 -820 339 -854 q 311 -889 290 -917 l 290 -917 q 269 -889 241 -854 q 212 -820 184 -792 l 184 -792 l 163 -792 l 163 -798 q 182 -819 204 -846 q 226 -874 247 -901 q 267 -929 279 -949 l 279 -949 z"},"Ä":{"ha":577,"x_min":0,"x_max":577,"o":"m 577 0 l 549 0 l 445 -271 l 135 -271 l 28 0 l 0 0 l 282 -716 l 307 -716 l 577 0 z m 435 -296 l 325 -594 q 321 -606 316 -619 q 311 -632 306 -648 q 300 -664 293 -682 l 293 -682 q 288 -667 283 -651 q 277 -636 271 -621 q 265 -607 260 -593 l 260 -593 l 144 -296 l 435 -296 z m 173 -864 l 173 -864 q 173 -876 178 -885 q 183 -895 196 -895 l 196 -895 q 213 -895 217 -885 q 221 -876 221 -864 l 221 -864 q 221 -851 217 -842 q 213 -833 196 -833 l 196 -833 q 183 -833 178 -842 q 173 -851 173 -864 z m 358 -864 l 358 -864 q 358 -876 363 -885 q 368 -895 381 -895 l 381 -895 q 398 -895 402 -885 q 406 -876 406 -864 l 406 -864 q 406 -851 402 -842 q 398 -833 381 -833 l 381 -833 q 368 -833 363 -842 q 358 -851 358 -864 z"},"À":{"ha":577,"x_min":0,"x_max":577,"o":"m 577 0 l 549 0 l 445 -271 l 135 -271 l 28 0 l 0 0 l 282 -716 l 307 -716 l 577 0 z m 435 -296 l 325 -594 q 321 -606 316 -619 q 311 -632 306 -648 q 300 -664 293 -682 l 293 -682 q 288 -667 283 -651 q 277 -636 271 -621 q 265 -607 260 -593 l 260 -593 l 144 -296 l 435 -296 z m 205 -952 l 235 -952 q 250 -931 274 -902 q 298 -874 325 -846 q 352 -818 374 -798 l 374 -798 l 374 -792 l 353 -792 q 333 -809 313 -828 q 292 -848 273 -868 q 253 -889 236 -908 q 218 -928 205 -945 l 205 -945 l 205 -952 z"},"Ā":{"ha":577,"x_min":0,"x_max":577,"o":"m 577 0 l 549 0 l 445 -271 l 135 -271 l 28 0 l 0 0 l 282 -716 l 307 -716 l 577 0 z m 435 -296 l 325 -594 q 321 -606 316 -619 q 311 -632 306 -648 q 300 -664 293 -682 l 293 -682 q 288 -667 283 -651 q 277 -636 271 -621 q 265 -607 260 -593 l 260 -593 l 144 -296 l 435 -296 z m 162 -824 l 417 -824 l 417 -800 l 162 -800 l 162 -824 z"},"Ą":{"ha":577,"x_min":0,"x_max":577,"o":"m 577 0 l 549 0 l 445 -271 l 135 -271 l 28 0 l 0 0 l 282 -716 l 307 -716 l 577 0 z m 435 -296 l 325 -594 q 321 -606 316 -619 q 311 -632 306 -648 q 300 -664 293 -682 l 293 -682 q 288 -667 283 -651 q 277 -636 271 -621 q 265 -607 260 -593 l 260 -593 l 144 -296 l 435 -296 z m 470 131 l 470 131 q 470 160 485 176 q 499 192 528 192 l 528 192 q 542 192 555 190 q 568 188 576 185 l 576 185 l 576 209 q 568 212 555 215 q 542 217 526 217 l 526 217 q 492 217 468 197 q 444 176 444 135 l 444 135 q 444 111 455 88 q 465 64 487 40 q 509 15 544 -11 l 544 -11 l 562 0 q 528 27 499 60 q 470 93 470 131 z"}}}
